# MagicaVoxel @ Ephtracy

# group
o tmagb0

# material
#mtllib TRG-0-tmagb0.mtl
#usemtl palette

# normals
vn -1 0 0
vn 1 0 0
vn 0 0 1
vn 0 0 -1
vn 0 -1 0
vn 0 1 0

# texcoords
vt 0.00195313 0.5
vt 0.0214844 0.5
vt 0.0253906 0.5
vt 0.0332031 0.5
vt 0.337891 0.5
vt 0.353516 0.5
vt 0.396484 0.5
vt 0.412109 0.5
vt 0.419922 0.5
vt 0.427734 0.5

# verts
v -0.5 0 -0.2
v -0.5 0 -0.3
v -0.5 0 -0.4
v -0.5 0.1 0.4
v -0.5 0.1 0.1
v -0.5 0.1 -0.2
v -0.5 0.2 0.4
v -0.5 0.2 0.1
v -0.5 0.2 -0.2
v -0.5 0.3 -0.2
v -0.5 0.3 -0.3
v -0.5 0.3 -0.4
v -0.4 0 0.4
v -0.4 0 -0.1
v -0.4 0 -0.2
v -0.4 0.1 0.5
v -0.4 0.1 0.4
v -0.4 0.1 0.1
v -0.4 0.1 -0.1
v -0.4 0.1 -0.2
v -0.4 0.2 0.5
v -0.4 0.2 0.4
v -0.4 0.2 0.1
v -0.4 0.2 -0.1
v -0.4 0.2 -0.2
v -0.4 0.3 0.4
v -0.4 0.3 -0.1
v -0.4 0.3 -0.2
v -0.4 0 -0.3
v -0.4 0 -0.4
v -0.4 0.1 -0.3
v -0.4 0.1 -0.4
v -0.4 0.2 -0.3
v -0.4 0.2 -0.4
v -0.4 0.3 -0.3
v -0.4 0.3 -0.4
v -0.2 0.1 -0.3
v -0.2 0.1 -0.4
v -0.2 0.2 -0.3
v -0.2 0.2 -0.4
v 0.3 0 0.4
v 0.3 0 0.2
v 0.3 0 -0.2
v 0.3 0 -0.3
v 0.3 0.1 0.5
v 0.3 0.1 0.4
v 0.3 0.1 0.2
v 0.3 0.1 0
v 0.3 0.1 -0.2
v 0.3 0.1 -0.3
v 0.3 0.2 0.5
v 0.3 0.2 0.4
v 0.3 0.2 0.2
v 0.3 0.2 0
v 0.3 0.2 -0.2
v 0.3 0.2 -0.3
v 0.3 0.3 0.4
v 0.3 0.3 0.2
v 0.3 0.3 -0.2
v 0.3 0.3 -0.3
v 0.4 0.1 0.4
v 0.4 0.1 0.2
v 0.4 0.1 0
v 0.4 0.1 -0.2
v 0.4 0.1 -0.3
v 0.4 0.2 0.4
v 0.4 0.2 0.2
v 0.4 0.2 0
v 0.4 0.2 -0.2
v 0.4 0.2 -0.3
v -0.4 0.1 0.5
v -0.4 0.2 0.5
v -0.3 0.1 0.5
v -0.3 0.2 0.5
v 0.2 0.1 0.5
v 0.2 0.2 0.5
v 0.3 0.1 0.5
v 0.3 0.2 0.5
v -0.5 0.1 0.4
v -0.5 0.2 0.4
v -0.4 0 0.4
v -0.4 0.1 0.4
v -0.4 0.2 0.4
v -0.4 0.3 0.4
v -0.3 0 0.4
v -0.3 0.1 0.4
v -0.3 0.2 0.4
v -0.3 0.3 0.4
v -0.2 0 0.4
v -0.2 0.1 0.4
v -0.2 0.2 0.4
v -0.2 0.3 0.4
v 0.1 0 0.4
v 0.1 0.1 0.4
v 0.1 0.2 0.4
v 0.1 0.3 0.4
v 0.2 0.1 0.4
v 0.2 0.2 0.4
v 0.3 0 0.4
v 0.3 0.1 0.4
v 0.3 0.2 0.4
v 0.3 0.3 0.4
v 0.4 0.1 0.4
v 0.4 0.2 0.4
v -0.5 0 -0.2
v -0.5 0.1 -0.2
v -0.5 0.2 -0.2
v -0.5 0.3 -0.2
v -0.4 0 -0.2
v -0.4 0.1 -0.2
v -0.4 0.2 -0.2
v -0.4 0.3 -0.2
v -0.4 0 -0.3
v -0.4 0.1 -0.3
v -0.4 0.2 -0.3
v -0.4 0.3 -0.3
v -0.3 0.1 -0.3
v -0.3 0.2 -0.3
v -0.2 0 -0.3
v -0.2 0.1 -0.3
v -0.2 0.2 -0.3
v -0.2 0.3 -0.3
v 0.2 0 -0.3
v 0.2 0.1 -0.3
v 0.2 0.2 -0.3
v 0.2 0.3 -0.3
v 0.3 0 -0.3
v 0.3 0.1 -0.3
v 0.3 0.2 -0.3
v 0.3 0.3 -0.3
v 0.4 0.1 -0.3
v 0.4 0.2 -0.3
v -0.5 0 -0.4
v -0.5 0.3 -0.4
v -0.4 0 -0.4
v -0.4 0.1 -0.4
v -0.4 0.2 -0.4
v -0.4 0.3 -0.4
v -0.3 0.1 -0.4
v -0.3 0.2 -0.4
v -0.2 0.1 -0.4
v -0.2 0.2 -0.4
v -0.4 0 0.4
v -0.3 0 0.4
v -0.2 0 0.4
v 0.1 0 0.4
v 0.3 0 0.4
v -0.3 0 0.3
v -0.2 0 0.3
v -0.1 0 0.3
v 0 0 0.3
v 0.1 0 0.3
v 0.2 0 0.3
v 0.2 0 0.2
v 0.3 0 0.2
v -0.3 0 0
v -0.2 0 0
v -0.1 0 0
v 0 0 0
v 0.1 0 0
v 0.2 0 0
v -0.4 0 -0.1
v -0.3 0 -0.1
v -0.5 0 -0.2
v -0.4 0 -0.2
v -0.3 0 -0.2
v -0.2 0 -0.2
v -0.1 0 -0.2
v 0 0 -0.2
v 0.1 0 -0.2
v 0.2 0 -0.2
v 0.3 0 -0.2
v -0.5 0 -0.3
v -0.4 0 -0.3
v -0.2 0 -0.3
v 0.2 0 -0.3
v 0.3 0 -0.3
v -0.5 0 -0.4
v -0.4 0 -0.4
v -0.4 0.1 0.5
v -0.3 0.1 0.5
v 0.2 0.1 0.5
v 0.3 0.1 0.5
v -0.5 0.1 0.4
v -0.4 0.1 0.4
v -0.3 0.1 0.4
v -0.2 0.1 0.4
v 0.1 0.1 0.4
v 0.2 0.1 0.4
v 0.3 0.1 0.4
v 0.4 0.1 0.4
v 0.3 0.1 0.2
v 0.4 0.1 0.2
v -0.5 0.1 0.1
v -0.4 0.1 0.1
v 0.3 0.1 0
v 0.4 0.1 0
v -0.4 0.1 -0.1
v -0.5 0.1 -0.2
v -0.4 0.1 -0.2
v 0.3 0.1 -0.2
v 0.4 0.1 -0.2
v -0.4 0.1 -0.3
v -0.3 0.1 -0.3
v -0.2 0.1 -0.3
v 0.3 0.1 -0.3
v 0.4 0.1 -0.3
v -0.4 0.1 -0.4
v -0.3 0.1 -0.4
v -0.2 0.1 -0.4
v -0.4 0.2 0.5
v -0.3 0.2 0.5
v 0.2 0.2 0.5
v 0.3 0.2 0.5
v -0.5 0.2 0.4
v -0.4 0.2 0.4
v -0.3 0.2 0.4
v -0.2 0.2 0.4
v 0.1 0.2 0.4
v 0.2 0.2 0.4
v 0.3 0.2 0.4
v 0.4 0.2 0.4
v 0.3 0.2 0.2
v 0.4 0.2 0.2
v -0.5 0.2 0.1
v -0.4 0.2 0.1
v 0.3 0.2 0
v 0.4 0.2 0
v -0.4 0.2 -0.1
v -0.5 0.2 -0.2
v -0.4 0.2 -0.2
v 0.3 0.2 -0.2
v 0.4 0.2 -0.2
v -0.4 0.2 -0.3
v -0.3 0.2 -0.3
v -0.2 0.2 -0.3
v 0.3 0.2 -0.3
v 0.4 0.2 -0.3
v -0.4 0.2 -0.4
v -0.3 0.2 -0.4
v -0.2 0.2 -0.4
v -0.4 0.3 0.4
v -0.3 0.3 0.4
v -0.2 0.3 0.4
v 0.1 0.3 0.4
v 0.3 0.3 0.4
v -0.3 0.3 0.3
v -0.2 0.3 0.3
v -0.1 0.3 0.3
v 0 0.3 0.3
v 0.1 0.3 0.3
v 0.2 0.3 0.3
v 0.2 0.3 0.2
v 0.3 0.3 0.2
v -0.3 0.3 0
v -0.2 0.3 0
v -0.1 0.3 0
v 0 0.3 0
v 0.1 0.3 0
v 0.2 0.3 0
v -0.4 0.3 -0.1
v -0.3 0.3 -0.1
v -0.5 0.3 -0.2
v -0.4 0.3 -0.2
v -0.3 0.3 -0.2
v -0.2 0.3 -0.2
v -0.1 0.3 -0.2
v 0 0.3 -0.2
v 0.1 0.3 -0.2
v 0.2 0.3 -0.2
v 0.3 0.3 -0.2
v -0.5 0.3 -0.3
v -0.4 0.3 -0.3
v -0.2 0.3 -0.3
v 0.2 0.3 -0.3
v 0.3 0.3 -0.3
v -0.5 0.3 -0.4
v -0.4 0.3 -0.4

# faces
f 6/4/1 2/4/1 1/4/1
f 7/1/1 5/1/1 4/1/1
f 8/4/1 6/4/1 5/4/1
f 8/1/1 5/1/1 7/1/1
f 9/4/1 2/4/1 6/4/1
f 9/4/1 6/4/1 8/4/1
f 10/4/1 2/4/1 9/4/1
f 11/9/1 3/9/1 2/9/1
f 11/4/1 2/4/1 10/4/1
f 12/9/1 3/9/1 11/9/1
f 17/2/1 14/2/1 13/2/1
f 18/2/1 14/2/1 17/2/1
f 19/4/1 15/4/1 14/4/1
f 19/2/1 14/2/1 18/2/1
f 20/4/1 15/4/1 19/4/1
f 21/4/1 17/4/1 16/4/1
f 22/4/1 17/4/1 21/4/1
f 26/2/1 23/2/1 22/2/1
f 26/2/1 24/2/1 23/2/1
f 27/4/1 25/4/1 24/4/1
f 27/2/1 24/2/1 26/2/1
f 28/4/1 25/4/1 27/4/1
f 29/9/2 30/9/2 31/9/2
f 31/9/2 30/9/2 32/9/2
f 33/9/2 34/9/2 35/9/2
f 35/9/2 34/9/2 36/9/2
f 37/5/2 38/5/2 39/5/2
f 39/5/2 38/5/2 40/5/2
f 41/10/2 42/10/2 46/10/2
f 42/9/2 43/9/2 47/9/2
f 46/10/2 42/10/2 47/10/2
f 47/9/2 43/9/2 48/9/2
f 43/7/2 44/7/2 49/7/2
f 48/9/2 43/9/2 49/9/2
f 49/7/2 44/7/2 50/7/2
f 45/4/2 46/4/2 51/4/2
f 51/4/2 46/4/2 52/4/2
f 52/10/2 53/10/2 57/10/2
f 54/9/2 55/9/2 58/9/2
f 57/10/2 53/10/2 58/10/2
f 53/9/2 54/9/2 58/9/2
f 55/7/2 56/7/2 59/7/2
f 58/9/2 55/9/2 59/9/2
f 59/7/2 56/7/2 60/7/2
f 61/4/2 62/4/2 66/4/2
f 62/2/2 63/2/2 67/2/2
f 66/4/2 62/4/2 67/4/2
f 63/10/2 64/10/2 68/10/2
f 67/2/2 63/2/2 68/2/2
f 64/7/2 65/7/2 69/7/2
f 68/10/2 64/10/2 69/10/2
f 69/7/2 65/7/2 70/7/2
f 73/4/3 72/4/3 71/4/3
f 74/4/3 72/4/3 73/4/3
f 75/2/3 74/2/3 73/2/3
f 76/2/3 74/2/3 75/2/3
f 77/4/3 76/4/3 75/4/3
f 78/4/3 76/4/3 77/4/3
f 82/1/3 80/1/3 79/1/3
f 83/1/3 80/1/3 82/1/3
f 85/2/3 82/2/3 81/2/3
f 86/2/3 82/2/3 85/2/3
f 87/2/3 84/2/3 83/2/3
f 88/2/3 84/2/3 87/2/3
f 89/10/3 86/10/3 85/10/3
f 90/10/3 86/10/3 89/10/3
f 91/10/3 88/10/3 87/10/3
f 92/10/3 88/10/3 91/10/3
f 93/9/3 90/9/3 89/9/3
f 94/9/3 90/9/3 93/9/3
f 95/9/3 92/9/3 91/9/3
f 96/9/3 92/9/3 95/9/3
f 97/10/3 94/10/3 93/10/3
f 98/10/3 96/10/3 95/10/3
f 99/10/3 97/10/3 93/10/3
f 100/10/3 97/10/3 99/10/3
f 101/10/3 96/10/3 98/10/3
f 102/10/3 96/10/3 101/10/3
f 103/4/3 101/4/3 100/4/3
f 104/4/3 101/4/3 103/4/3
f 109/4/3 106/4/3 105/4/3
f 110/4/3 106/4/3 109/4/3
f 111/4/3 108/4/3 107/4/3
f 112/4/3 108/4/3 111/4/3
f 113/9/4 114/9/4 117/9/4
f 115/9/4 116/9/4 118/9/4
f 113/9/4 117/9/4 119/9/4
f 119/9/4 117/9/4 120/9/4
f 118/9/4 116/9/4 121/9/4
f 121/9/4 116/9/4 122/9/4
f 119/8/4 120/8/4 123/8/4
f 120/1/4 121/1/4 124/1/4
f 123/8/4 120/8/4 124/8/4
f 121/8/4 122/8/4 125/8/4
f 124/1/4 121/1/4 125/1/4
f 125/8/4 122/8/4 126/8/4
f 123/7/4 124/7/4 127/7/4
f 124/3/4 125/3/4 128/3/4
f 127/7/4 124/7/4 128/7/4
f 125/7/4 126/7/4 129/7/4
f 128/3/4 125/3/4 129/3/4
f 129/7/4 126/7/4 130/7/4
f 128/7/4 129/7/4 131/7/4
f 131/7/4 129/7/4 132/7/4
f 133/9/4 134/9/4 135/9/4
f 135/9/4 134/9/4 136/9/4
f 136/9/4 134/9/4 137/9/4
f 137/9/4 134/9/4 138/9/4
f 136/6/4 137/6/4 139/6/4
f 139/6/4 137/6/4 140/6/4
f 139/5/4 140/5/4 141/5/4
f 141/5/4 140/5/4 142/5/4
f 148/2/5 144/2/5 143/2/5
f 148/10/5 145/10/5 144/10/5
f 149/9/5 146/9/5 145/9/5
f 149/10/5 145/10/5 148/10/5
f 150/9/5 146/9/5 149/9/5
f 151/9/5 146/9/5 150/9/5
f 152/10/5 147/10/5 146/10/5
f 152/9/5 146/9/5 151/9/5
f 153/10/5 147/10/5 152/10/5
f 154/9/5 153/9/5 152/9/5
f 154/10/5 147/10/5 153/10/5
f 155/10/5 147/10/5 154/10/5
f 156/2/5 148/2/5 143/2/5
f 156/9/5 149/9/5 148/9/5
f 157/10/5 150/10/5 149/10/5
f 157/9/5 149/9/5 156/9/5
f 158/9/5 151/9/5 150/9/5
f 158/10/5 150/10/5 157/10/5
f 159/10/5 152/10/5 151/10/5
f 159/9/5 151/9/5 158/9/5
f 160/9/5 155/9/5 154/9/5
f 160/10/5 152/10/5 159/10/5
f 160/9/5 154/9/5 152/9/5
f 161/9/5 155/9/5 160/9/5
f 162/2/5 156/2/5 143/2/5
f 163/10/5 157/10/5 156/10/5
f 163/2/5 156/2/5 162/2/5
f 165/4/5 163/4/5 162/4/5
f 166/10/5 157/10/5 163/10/5
f 166/4/5 163/4/5 165/4/5
f 167/2/5 158/2/5 157/2/5
f 167/10/5 157/10/5 166/10/5
f 168/10/5 159/10/5 158/10/5
f 168/2/5 158/2/5 167/2/5
f 169/2/5 160/2/5 159/2/5
f 169/10/5 159/10/5 168/10/5
f 170/10/5 161/10/5 160/10/5
f 170/2/5 160/2/5 169/2/5
f 171/9/5 155/9/5 161/9/5
f 171/10/5 161/10/5 170/10/5
f 172/9/5 155/9/5 171/9/5
f 173/4/5 165/4/5 164/4/5
f 174/9/5 167/9/5 166/9/5
f 174/4/5 165/4/5 173/4/5
f 174/9/5 166/9/5 165/9/5
f 175/8/5 170/8/5 169/8/5
f 175/9/5 167/9/5 174/9/5
f 175/8/5 168/8/5 167/8/5
f 175/8/5 171/8/5 170/8/5
f 175/8/5 169/8/5 168/8/5
f 176/7/5 172/7/5 171/7/5
f 176/8/5 171/8/5 175/8/5
f 177/7/5 172/7/5 176/7/5
f 178/9/5 174/9/5 173/9/5
f 179/9/5 174/9/5 178/9/5
f 185/4/5 181/4/5 180/4/5
f 186/2/5 182/2/5 181/2/5
f 186/4/5 181/4/5 185/4/5
f 187/2/5 182/2/5 186/2/5
f 188/2/5 182/2/5 187/2/5
f 189/4/5 183/4/5 182/4/5
f 189/2/5 182/2/5 188/2/5
f 190/4/5 183/4/5 189/4/5
f 192/4/5 191/4/5 190/4/5
f 193/4/5 191/4/5 192/4/5
f 194/1/5 185/1/5 184/1/5
f 195/1/5 185/1/5 194/1/5
f 196/2/5 193/2/5 192/2/5
f 197/2/5 193/2/5 196/2/5
f 198/4/5 195/4/5 194/4/5
f 199/4/5 198/4/5 194/4/5
f 200/4/5 198/4/5 199/4/5
f 201/10/5 197/10/5 196/10/5
f 202/10/5 197/10/5 201/10/5
f 206/7/5 202/7/5 201/7/5
f 207/7/5 202/7/5 206/7/5
f 208/6/5 204/6/5 203/6/5
f 209/5/5 205/5/5 204/5/5
f 209/6/5 204/6/5 208/6/5
f 210/5/5 205/5/5 209/5/5
f 211/4/6 212/4/6 216/4/6
f 212/2/6 213/2/6 217/2/6
f 216/4/6 212/4/6 217/4/6
f 217/2/6 213/2/6 218/2/6
f 218/2/6 213/2/6 219/2/6
f 213/4/6 214/4/6 220/4/6
f 219/2/6 213/2/6 220/2/6
f 220/4/6 214/4/6 221/4/6
f 221/4/6 222/4/6 223/4/6
f 223/4/6 222/4/6 224/4/6
f 215/1/6 216/1/6 225/1/6
f 225/1/6 216/1/6 226/1/6
f 223/2/6 224/2/6 227/2/6
f 227/2/6 224/2/6 228/2/6
f 225/4/6 226/4/6 229/4/6
f 225/4/6 229/4/6 230/4/6
f 230/4/6 229/4/6 231/4/6
f 227/10/6 228/10/6 232/10/6
f 232/10/6 228/10/6 233/10/6
f 232/7/6 233/7/6 237/7/6
f 237/7/6 233/7/6 238/7/6
f 234/6/6 235/6/6 239/6/6
f 235/5/6 236/5/6 240/5/6
f 239/6/6 235/6/6 240/6/6
f 240/5/6 236/5/6 241/5/6
f 242/2/6 243/2/6 247/2/6
f 243/10/6 244/10/6 247/10/6
f 244/9/6 245/9/6 248/9/6
f 247/10/6 244/10/6 248/10/6
f 248/9/6 245/9/6 249/9/6
f 249/9/6 245/9/6 250/9/6
f 245/10/6 246/10/6 251/10/6
f 250/9/6 245/9/6 251/9/6
f 251/10/6 246/10/6 252/10/6
f 251/9/6 252/9/6 253/9/6
f 252/10/6 246/10/6 253/10/6
f 253/10/6 246/10/6 254/10/6
f 242/2/6 247/2/6 255/2/6
f 247/9/6 248/9/6 255/9/6
f 248/10/6 249/10/6 256/10/6
f 255/9/6 248/9/6 256/9/6
f 249/9/6 250/9/6 257/9/6
f 256/10/6 249/10/6 257/10/6
f 250/10/6 251/10/6 258/10/6
f 257/9/6 250/9/6 258/9/6
f 253/9/6 254/9/6 259/9/6
f 258/10/6 251/10/6 259/10/6
f 251/9/6 253/9/6 259/9/6
f 259/9/6 254/9/6 260/9/6
f 242/2/6 255/2/6 261/2/6
f 255/10/6 256/10/6 262/10/6
f 261/2/6 255/2/6 262/2/6
f 261/4/6 262/4/6 264/4/6
f 262/10/6 256/10/6 265/10/6
f 264/4/6 262/4/6 265/4/6
f 256/2/6 257/2/6 266/2/6
f 265/10/6 256/10/6 266/10/6
f 257/10/6 258/10/6 267/10/6
f 266/2/6 257/2/6 267/2/6
f 258/2/6 259/2/6 268/2/6
f 267/10/6 258/10/6 268/10/6
f 259/10/6 260/10/6 269/10/6
f 268/2/6 259/2/6 269/2/6
f 260/9/6 254/9/6 270/9/6
f 269/10/6 260/10/6 270/10/6
f 270/9/6 254/9/6 271/9/6
f 263/4/6 264/4/6 272/4/6
f 265/9/6 266/9/6 273/9/6
f 272/4/6 264/4/6 273/4/6
f 264/9/6 265/9/6 273/9/6
f 268/8/6 269/8/6 274/8/6
f 273/9/6 266/9/6 274/9/6
f 266/8/6 267/8/6 274/8/6
f 269/8/6 270/8/6 274/8/6
f 267/8/6 268/8/6 274/8/6
f 270/7/6 271/7/6 275/7/6
f 274/8/6 270/8/6 275/8/6
f 275/7/6 271/7/6 276/7/6
f 272/9/6 273/9/6 277/9/6
f 277/9/6 273/9/6 278/9/6
