# MagicaVoxel @ Ephtracy

# group
o 10box

# material
mtllib 10mmVB.mtl
usemtl palette

# normals
vn 0 1 0
vn 0 -1 0
vn 0 0 1
vn 0 0 -1
vn -1 0 0
vn 1 0 0

# texcoords
vt 0.0292969 0.5
vt 0.0449219 0.5
vt 0.0527344 0.5

# verts
v -0.5 0.3 0
v -0.5 0.3 -0.1
v -0.4 0.3 0.1
v -0.4 0.3 0
v -0.4 0.3 -0.1
v -0.3 0.3 0.1
v -0.3 0.3 0
v -0.3 0.3 -0.1
v -0.2 0.3 0.1
v -0.2 0.3 0
v -0.2 0.3 -0.1
v -0.1 0.3 0.1
v -0.1 0.3 0
v -0.1 0.3 -0.1
v 0 0.3 0.1
v 0 0.3 0
v 0 0.3 -0.1
v 0.1 0.3 0.1
v 0.1 0.3 0
v 0.1 0.3 -0.1
v 0.2 0.3 0.1
v 0.2 0.3 0
v 0.2 0.3 -0.1
v 0.3 0.3 0.1
v 0.3 0.3 0
v 0.3 0.3 -0.1
v 0.4 0.3 0.1
v 0.4 0.3 0
v 0.4 0.3 -0.1
v 0.5 0.3 0.1
v 0.5 0.3 0
v -0.5 0 0
v -0.5 0 -0.1
v -0.4 0 0.1
v -0.4 0 0
v -0.4 0 -0.1
v -0.3 0 0.1
v -0.3 0 0
v -0.3 0 -0.1
v -0.2 0 0.1
v -0.2 0 0
v -0.2 0 -0.1
v -0.1 0 0.1
v -0.1 0 0
v -0.1 0 -0.1
v 0 0 0.1
v 0 0 0
v 0 0 -0.1
v 0.1 0 0.1
v 0.1 0 0
v 0.1 0 -0.1
v 0.2 0 0.1
v 0.2 0 0
v 0.2 0 -0.1
v 0.3 0 0.1
v 0.3 0 0
v 0.3 0 -0.1
v 0.4 0 0.1
v 0.4 0 0
v 0.4 0 -0.1
v 0.5 0 0.1
v 0.5 0 0
v -0.4 0.3 0.1
v -0.3 0.3 0.1
v -0.2 0.3 0.1
v -0.1 0.3 0.1
v 0 0.3 0.1
v 0.1 0.3 0.1
v 0.2 0.3 0.1
v 0.3 0.3 0.1
v 0.4 0.3 0.1
v 0.5 0.3 0.1
v -0.4 0.2 0.1
v -0.3 0.2 0.1
v -0.2 0.2 0.1
v -0.1 0.2 0.1
v 0 0.2 0.1
v 0.1 0.2 0.1
v 0.2 0.2 0.1
v 0.3 0.2 0.1
v 0.4 0.2 0.1
v 0.5 0.2 0.1
v -0.4 0.1 0.1
v -0.3 0.1 0.1
v -0.2 0.1 0.1
v -0.1 0.1 0.1
v 0 0.1 0.1
v 0.1 0.1 0.1
v 0.2 0.1 0.1
v 0.3 0.1 0.1
v 0.4 0.1 0.1
v 0.5 0.1 0.1
v -0.4 0 0.1
v -0.3 0 0.1
v -0.2 0 0.1
v -0.1 0 0.1
v 0 0 0.1
v 0.1 0 0.1
v 0.2 0 0.1
v 0.3 0 0.1
v 0.4 0 0.1
v 0.5 0 0.1
v -0.5 0.3 0
v -0.4 0.3 0
v -0.3 0.3 0
v -0.2 0.3 0
v -0.1 0.3 0
v 0 0.3 0
v 0.1 0.3 0
v 0.2 0.3 0
v 0.3 0.3 0
v 0.4 0.3 0
v -0.5 0.2 0
v -0.4 0.2 0
v -0.3 0.2 0
v -0.2 0.2 0
v -0.1 0.2 0
v 0 0.2 0
v 0.1 0.2 0
v 0.2 0.2 0
v 0.3 0.2 0
v 0.4 0.2 0
v -0.5 0.1 0
v -0.4 0.1 0
v -0.3 0.1 0
v -0.2 0.1 0
v -0.1 0.1 0
v 0 0.1 0
v 0.1 0.1 0
v 0.2 0.1 0
v 0.3 0.1 0
v 0.4 0.1 0
v -0.5 0 0
v -0.4 0 0
v -0.3 0 0
v -0.2 0 0
v -0.1 0 0
v 0 0 0
v 0.1 0 0
v 0.2 0 0
v 0.3 0 0
v 0.4 0 0
v -0.4 0.3 0
v -0.3 0.3 0
v -0.2 0.3 0
v -0.1 0.3 0
v 0 0.3 0
v 0.1 0.3 0
v 0.2 0.3 0
v 0.3 0.3 0
v 0.4 0.3 0
v 0.5 0.3 0
v -0.4 0.2 0
v -0.3 0.2 0
v -0.2 0.2 0
v -0.1 0.2 0
v 0 0.2 0
v 0.1 0.2 0
v 0.2 0.2 0
v 0.3 0.2 0
v 0.4 0.2 0
v 0.5 0.2 0
v -0.4 0.1 0
v -0.3 0.1 0
v -0.2 0.1 0
v -0.1 0.1 0
v 0 0.1 0
v 0.1 0.1 0
v 0.2 0.1 0
v 0.3 0.1 0
v 0.4 0.1 0
v 0.5 0.1 0
v -0.4 0 0
v -0.3 0 0
v -0.2 0 0
v -0.1 0 0
v 0 0 0
v 0.1 0 0
v 0.2 0 0
v 0.3 0 0
v 0.4 0 0
v 0.5 0 0
v -0.5 0.3 -0.1
v -0.4 0.3 -0.1
v -0.3 0.3 -0.1
v -0.2 0.3 -0.1
v -0.1 0.3 -0.1
v 0 0.3 -0.1
v 0.1 0.3 -0.1
v 0.2 0.3 -0.1
v 0.3 0.3 -0.1
v 0.4 0.3 -0.1
v -0.5 0.2 -0.1
v -0.4 0.2 -0.1
v -0.3 0.2 -0.1
v -0.2 0.2 -0.1
v -0.1 0.2 -0.1
v 0 0.2 -0.1
v 0.1 0.2 -0.1
v 0.2 0.2 -0.1
v 0.3 0.2 -0.1
v 0.4 0.2 -0.1
v -0.5 0.1 -0.1
v -0.4 0.1 -0.1
v -0.3 0.1 -0.1
v -0.2 0.1 -0.1
v -0.1 0.1 -0.1
v 0 0.1 -0.1
v 0.1 0.1 -0.1
v 0.2 0.1 -0.1
v 0.3 0.1 -0.1
v 0.4 0.1 -0.1
v -0.5 0 -0.1
v -0.4 0 -0.1
v -0.3 0 -0.1
v -0.2 0 -0.1
v -0.1 0 -0.1
v 0 0 -0.1
v 0.1 0 -0.1
v 0.2 0 -0.1
v 0.3 0 -0.1
v 0.4 0 -0.1
v -0.5 0.3 0
v -0.5 0.2 0
v -0.5 0.1 0
v -0.5 0 0
v -0.5 0.3 -0.1
v -0.5 0.2 -0.1
v -0.5 0.1 -0.1
v -0.5 0 -0.1
v -0.4 0.3 0.1
v -0.4 0.2 0.1
v -0.4 0.1 0.1
v -0.4 0 0.1
v -0.4 0.3 0
v -0.4 0.2 0
v -0.4 0.1 0
v -0.4 0 0
v -0.3 0.3 0
v -0.3 0.2 0
v -0.3 0.1 0
v -0.3 0 0
v -0.3 0.3 -0.1
v -0.3 0.2 -0.1
v -0.3 0.1 -0.1
v -0.3 0 -0.1
v -0.2 0.3 0.1
v -0.2 0.2 0.1
v -0.2 0.1 0.1
v -0.2 0 0.1
v -0.2 0.3 0
v -0.2 0.2 0
v -0.2 0.1 0
v -0.2 0 0
v -0.1 0.3 0
v -0.1 0.2 0
v -0.1 0.1 0
v -0.1 0 0
v -0.1 0.3 -0.1
v -0.1 0.2 -0.1
v -0.1 0.1 -0.1
v -0.1 0 -0.1
v 0 0.3 0.1
v 0 0.2 0.1
v 0 0.1 0.1
v 0 0 0.1
v 0 0.3 0
v 0 0.2 0
v 0 0.1 0
v 0 0 0
v 0.1 0.3 0
v 0.1 0.2 0
v 0.1 0.1 0
v 0.1 0 0
v 0.1 0.3 -0.1
v 0.1 0.2 -0.1
v 0.1 0.1 -0.1
v 0.1 0 -0.1
v 0.2 0.3 0.1
v 0.2 0.2 0.1
v 0.2 0.1 0.1
v 0.2 0 0.1
v 0.2 0.3 0
v 0.2 0.2 0
v 0.2 0.1 0
v 0.2 0 0
v 0.3 0.3 0
v 0.3 0.2 0
v 0.3 0.1 0
v 0.3 0 0
v 0.3 0.3 -0.1
v 0.3 0.2 -0.1
v 0.3 0.1 -0.1
v 0.3 0 -0.1
v 0.4 0.3 0.1
v 0.4 0.2 0.1
v 0.4 0.1 0.1
v 0.4 0 0.1
v 0.4 0.3 0
v 0.4 0.2 0
v 0.4 0.1 0
v 0.4 0 0
v -0.4 0.3 0
v -0.4 0.2 0
v -0.4 0.1 0
v -0.4 0 0
v -0.4 0.3 -0.1
v -0.4 0.2 -0.1
v -0.4 0.1 -0.1
v -0.4 0 -0.1
v -0.3 0.3 0.1
v -0.3 0.2 0.1
v -0.3 0.1 0.1
v -0.3 0 0.1
v -0.3 0.3 0
v -0.3 0.2 0
v -0.3 0.1 0
v -0.3 0 0
v -0.2 0.3 0
v -0.2 0.2 0
v -0.2 0.1 0
v -0.2 0 0
v -0.2 0.3 -0.1
v -0.2 0.2 -0.1
v -0.2 0.1 -0.1
v -0.2 0 -0.1
v -0.1 0.3 0.1
v -0.1 0.2 0.1
v -0.1 0.1 0.1
v -0.1 0 0.1
v -0.1 0.3 0
v -0.1 0.2 0
v -0.1 0.1 0
v -0.1 0 0
v 0 0.3 0
v 0 0.2 0
v 0 0.1 0
v 0 0 0
v 0 0.3 -0.1
v 0 0.2 -0.1
v 0 0.1 -0.1
v 0 0 -0.1
v 0.1 0.3 0.1
v 0.1 0.2 0.1
v 0.1 0.1 0.1
v 0.1 0 0.1
v 0.1 0.3 0
v 0.1 0.2 0
v 0.1 0.1 0
v 0.1 0 0
v 0.2 0.3 0
v 0.2 0.2 0
v 0.2 0.1 0
v 0.2 0 0
v 0.2 0.3 -0.1
v 0.2 0.2 -0.1
v 0.2 0.1 -0.1
v 0.2 0 -0.1
v 0.3 0.3 0.1
v 0.3 0.2 0.1
v 0.3 0.1 0.1
v 0.3 0 0.1
v 0.3 0.3 0
v 0.3 0.2 0
v 0.3 0.1 0
v 0.3 0 0
v 0.4 0.3 0
v 0.4 0.2 0
v 0.4 0.1 0
v 0.4 0 0
v 0.4 0.3 -0.1
v 0.4 0.2 -0.1
v 0.4 0.1 -0.1
v 0.4 0 -0.1
v 0.5 0.3 0.1
v 0.5 0.2 0.1
v 0.5 0.1 0.1
v 0.5 0 0.1
v 0.5 0.3 0
v 0.5 0.2 0
v 0.5 0.1 0
v 0.5 0 0

# faces
f 4/3/1 2/3/1 1/3/1
f 5/3/1 2/3/1 4/3/1
f 6/3/1 4/3/1 3/3/1
f 7/3/1 4/3/1 6/3/1
f 10/3/1 8/3/1 7/3/1
f 11/3/1 8/3/1 10/3/1
f 12/3/1 10/3/1 9/3/1
f 13/3/1 10/3/1 12/3/1
f 16/3/1 14/3/1 13/3/1
f 17/3/1 14/3/1 16/3/1
f 18/3/1 16/3/1 15/3/1
f 19/3/1 16/3/1 18/3/1
f 22/3/1 20/3/1 19/3/1
f 23/3/1 20/3/1 22/3/1
f 24/3/1 22/3/1 21/3/1
f 25/3/1 22/3/1 24/3/1
f 28/3/1 26/3/1 25/3/1
f 29/3/1 26/3/1 28/3/1
f 30/3/1 28/3/1 27/3/1
f 31/3/1 28/3/1 30/3/1
f 32/1/2 33/1/2 35/1/2
f 35/1/2 33/1/2 36/1/2
f 34/1/2 35/1/2 37/1/2
f 37/1/2 35/1/2 38/1/2
f 38/1/2 39/1/2 41/1/2
f 41/1/2 39/1/2 42/1/2
f 40/1/2 41/1/2 43/1/2
f 43/1/2 41/1/2 44/1/2
f 44/1/2 45/1/2 47/1/2
f 47/1/2 45/1/2 48/1/2
f 46/1/2 47/1/2 49/1/2
f 49/1/2 47/1/2 50/1/2
f 50/1/2 51/1/2 53/1/2
f 53/1/2 51/1/2 54/1/2
f 52/1/2 53/1/2 55/1/2
f 55/1/2 53/1/2 56/1/2
f 56/1/2 57/1/2 59/1/2
f 59/1/2 57/1/2 60/1/2
f 58/1/2 59/1/2 61/1/2
f 61/1/2 59/1/2 62/1/2
f 73/3/3 64/3/3 63/3/3
f 74/3/3 64/3/3 73/3/3
f 75/3/3 66/3/3 65/3/3
f 76/3/3 66/3/3 75/3/3
f 77/3/3 68/3/3 67/3/3
f 78/3/3 68/3/3 77/3/3
f 79/3/3 70/3/3 69/3/3
f 80/3/3 70/3/3 79/3/3
f 81/3/3 72/3/3 71/3/3
f 82/3/3 72/3/3 81/3/3
f 83/2/3 74/2/3 73/2/3
f 84/2/3 74/2/3 83/2/3
f 85/2/3 76/2/3 75/2/3
f 86/2/3 76/2/3 85/2/3
f 87/2/3 78/2/3 77/2/3
f 88/2/3 78/2/3 87/2/3
f 89/2/3 80/2/3 79/2/3
f 90/2/3 80/2/3 89/2/3
f 91/2/3 82/2/3 81/2/3
f 92/2/3 82/2/3 91/2/3
f 93/1/3 84/1/3 83/1/3
f 94/1/3 84/1/3 93/1/3
f 95/1/3 86/1/3 85/1/3
f 96/1/3 86/1/3 95/1/3
f 97/1/3 88/1/3 87/1/3
f 98/1/3 88/1/3 97/1/3
f 99/1/3 90/1/3 89/1/3
f 100/1/3 90/1/3 99/1/3
f 101/1/3 92/1/3 91/1/3
f 102/1/3 92/1/3 101/1/3
f 113/3/3 104/3/3 103/3/3
f 114/3/3 104/3/3 113/3/3
f 115/3/3 106/3/3 105/3/3
f 116/3/3 106/3/3 115/3/3
f 117/3/3 108/3/3 107/3/3
f 118/3/3 108/3/3 117/3/3
f 119/3/3 110/3/3 109/3/3
f 120/3/3 110/3/3 119/3/3
f 121/3/3 112/3/3 111/3/3
f 122/3/3 112/3/3 121/3/3
f 123/2/3 114/2/3 113/2/3
f 124/2/3 114/2/3 123/2/3
f 125/2/3 116/2/3 115/2/3
f 126/2/3 116/2/3 125/2/3
f 127/2/3 118/2/3 117/2/3
f 128/2/3 118/2/3 127/2/3
f 129/2/3 120/2/3 119/2/3
f 130/2/3 120/2/3 129/2/3
f 131/2/3 122/2/3 121/2/3
f 132/2/3 122/2/3 131/2/3
f 133/1/3 124/1/3 123/1/3
f 134/1/3 124/1/3 133/1/3
f 135/1/3 126/1/3 125/1/3
f 136/1/3 126/1/3 135/1/3
f 137/1/3 128/1/3 127/1/3
f 138/1/3 128/1/3 137/1/3
f 139/1/3 130/1/3 129/1/3
f 140/1/3 130/1/3 139/1/3
f 141/1/3 132/1/3 131/1/3
f 142/1/3 132/1/3 141/1/3
f 143/3/4 144/3/4 153/3/4
f 153/3/4 144/3/4 154/3/4
f 145/3/4 146/3/4 155/3/4
f 155/3/4 146/3/4 156/3/4
f 147/3/4 148/3/4 157/3/4
f 157/3/4 148/3/4 158/3/4
f 149/3/4 150/3/4 159/3/4
f 159/3/4 150/3/4 160/3/4
f 151/3/4 152/3/4 161/3/4
f 161/3/4 152/3/4 162/3/4
f 153/2/4 154/2/4 163/2/4
f 163/2/4 154/2/4 164/2/4
f 155/2/4 156/2/4 165/2/4
f 165/2/4 156/2/4 166/2/4
f 157/2/4 158/2/4 167/2/4
f 167/2/4 158/2/4 168/2/4
f 159/2/4 160/2/4 169/2/4
f 169/2/4 160/2/4 170/2/4
f 161/2/4 162/2/4 171/2/4
f 171/2/4 162/2/4 172/2/4
f 163/1/4 164/1/4 173/1/4
f 173/1/4 164/1/4 174/1/4
f 165/1/4 166/1/4 175/1/4
f 175/1/4 166/1/4 176/1/4
f 167/1/4 168/1/4 177/1/4
f 177/1/4 168/1/4 178/1/4
f 169/1/4 170/1/4 179/1/4
f 179/1/4 170/1/4 180/1/4
f 171/1/4 172/1/4 181/1/4
f 181/1/4 172/1/4 182/1/4
f 183/3/4 184/3/4 193/3/4
f 193/3/4 184/3/4 194/3/4
f 185/3/4 186/3/4 195/3/4
f 195/3/4 186/3/4 196/3/4
f 187/3/4 188/3/4 197/3/4
f 197/3/4 188/3/4 198/3/4
f 189/3/4 190/3/4 199/3/4
f 199/3/4 190/3/4 200/3/4
f 191/3/4 192/3/4 201/3/4
f 201/3/4 192/3/4 202/3/4
f 193/2/4 194/2/4 203/2/4
f 203/2/4 194/2/4 204/2/4
f 195/2/4 196/2/4 205/2/4
f 205/2/4 196/2/4 206/2/4
f 197/2/4 198/2/4 207/2/4
f 207/2/4 198/2/4 208/2/4
f 199/2/4 200/2/4 209/2/4
f 209/2/4 200/2/4 210/2/4
f 201/2/4 202/2/4 211/2/4
f 211/2/4 202/2/4 212/2/4
f 203/1/4 204/1/4 213/1/4
f 213/1/4 204/1/4 214/1/4
f 205/1/4 206/1/4 215/1/4
f 215/1/4 206/1/4 216/1/4
f 207/1/4 208/1/4 217/1/4
f 217/1/4 208/1/4 218/1/4
f 209/1/4 210/1/4 219/1/4
f 219/1/4 210/1/4 220/1/4
f 211/1/4 212/1/4 221/1/4
f 221/1/4 212/1/4 222/1/4
f 227/3/5 224/3/5 223/3/5
f 228/2/5 225/2/5 224/2/5
f 228/3/5 224/3/5 227/3/5
f 229/1/5 226/1/5 225/1/5
f 229/2/5 225/2/5 228/2/5
f 230/1/5 226/1/5 229/1/5
f 235/3/5 232/3/5 231/3/5
f 236/2/5 233/2/5 232/2/5
f 236/3/5 232/3/5 235/3/5
f 237/1/5 234/1/5 233/1/5
f 237/2/5 233/2/5 236/2/5
f 238/1/5 234/1/5 237/1/5
f 243/3/5 240/3/5 239/3/5
f 244/2/5 241/2/5 240/2/5
f 244/3/5 240/3/5 243/3/5
f 245/1/5 242/1/5 241/1/5
f 245/2/5 241/2/5 244/2/5
f 246/1/5 242/1/5 245/1/5
f 251/3/5 248/3/5 247/3/5
f 252/2/5 249/2/5 248/2/5
f 252/3/5 248/3/5 251/3/5
f 253/1/5 250/1/5 249/1/5
f 253/2/5 249/2/5 252/2/5
f 254/1/5 250/1/5 253/1/5
f 259/3/5 256/3/5 255/3/5
f 260/2/5 257/2/5 256/2/5
f 260/3/5 256/3/5 259/3/5
f 261/1/5 258/1/5 257/1/5
f 261/2/5 257/2/5 260/2/5
f 262/1/5 258/1/5 261/1/5
f 267/3/5 264/3/5 263/3/5
f 268/2/5 265/2/5 264/2/5
f 268/3/5 264/3/5 267/3/5
f 269/1/5 266/1/5 265/1/5
f 269/2/5 265/2/5 268/2/5
f 270/1/5 266/1/5 269/1/5
f 275/3/5 272/3/5 271/3/5
f 276/2/5 273/2/5 272/2/5
f 276/3/5 272/3/5 275/3/5
f 277/1/5 274/1/5 273/1/5
f 277/2/5 273/2/5 276/2/5
f 278/1/5 274/1/5 277/1/5
f 283/3/5 280/3/5 279/3/5
f 284/2/5 281/2/5 280/2/5
f 284/3/5 280/3/5 283/3/5
f 285/1/5 282/1/5 281/1/5
f 285/2/5 281/2/5 284/2/5
f 286/1/5 282/1/5 285/1/5
f 291/3/5 288/3/5 287/3/5
f 292/2/5 289/2/5 288/2/5
f 292/3/5 288/3/5 291/3/5
f 293/1/5 290/1/5 289/1/5
f 293/2/5 289/2/5 292/2/5
f 294/1/5 290/1/5 293/1/5
f 299/3/5 296/3/5 295/3/5
f 300/2/5 297/2/5 296/2/5
f 300/3/5 296/3/5 299/3/5
f 301/1/5 298/1/5 297/1/5
f 301/2/5 297/2/5 300/2/5
f 302/1/5 298/1/5 301/1/5
f 303/3/6 304/3/6 307/3/6
f 304/2/6 305/2/6 308/2/6
f 307/3/6 304/3/6 308/3/6
f 305/1/6 306/1/6 309/1/6
f 308/2/6 305/2/6 309/2/6
f 309/1/6 306/1/6 310/1/6
f 311/3/6 312/3/6 315/3/6
f 312/2/6 313/2/6 316/2/6
f 315/3/6 312/3/6 316/3/6
f 313/1/6 314/1/6 317/1/6
f 316/2/6 313/2/6 317/2/6
f 317/1/6 314/1/6 318/1/6
f 319/3/6 320/3/6 323/3/6
f 320/2/6 321/2/6 324/2/6
f 323/3/6 320/3/6 324/3/6
f 321/1/6 322/1/6 325/1/6
f 324/2/6 321/2/6 325/2/6
f 325/1/6 322/1/6 326/1/6
f 327/3/6 328/3/6 331/3/6
f 328/2/6 329/2/6 332/2/6
f 331/3/6 328/3/6 332/3/6
f 329/1/6 330/1/6 333/1/6
f 332/2/6 329/2/6 333/2/6
f 333/1/6 330/1/6 334/1/6
f 335/3/6 336/3/6 339/3/6
f 336/2/6 337/2/6 340/2/6
f 339/3/6 336/3/6 340/3/6
f 337/1/6 338/1/6 341/1/6
f 340/2/6 337/2/6 341/2/6
f 341/1/6 338/1/6 342/1/6
f 343/3/6 344/3/6 347/3/6
f 344/2/6 345/2/6 348/2/6
f 347/3/6 344/3/6 348/3/6
f 345/1/6 346/1/6 349/1/6
f 348/2/6 345/2/6 349/2/6
f 349/1/6 346/1/6 350/1/6
f 351/3/6 352/3/6 355/3/6
f 352/2/6 353/2/6 356/2/6
f 355/3/6 352/3/6 356/3/6
f 353/1/6 354/1/6 357/1/6
f 356/2/6 353/2/6 357/2/6
f 357/1/6 354/1/6 358/1/6
f 359/3/6 360/3/6 363/3/6
f 360/2/6 361/2/6 364/2/6
f 363/3/6 360/3/6 364/3/6
f 361/1/6 362/1/6 365/1/6
f 364/2/6 361/2/6 365/2/6
f 365/1/6 362/1/6 366/1/6
f 367/3/6 368/3/6 371/3/6
f 368/2/6 369/2/6 372/2/6
f 371/3/6 368/3/6 372/3/6
f 369/1/6 370/1/6 373/1/6
f 372/2/6 369/2/6 373/2/6
f 373/1/6 370/1/6 374/1/6
f 375/3/6 376/3/6 379/3/6
f 376/2/6 377/2/6 380/2/6
f 379/3/6 376/3/6 380/3/6
f 377/1/6 378/1/6 381/1/6
f 380/2/6 377/2/6 381/2/6
f 381/1/6 378/1/6 382/1/6
