# MagicaVoxel @ Ephtracy

# group
o ACR Casing

# material
mtllib acrB.mtl
usemtl palette

# normals
vn -1 0 0
vn 1 0 0
vn 0 0 1
vn 0 0 -1
vn 0 -1 0
vn 0 1 0

# texcoords
vt 0.00195312 0.5
vt 0.00585938 0.5
vt 0.00976562 0.5
vt 0.0292969 0.5
vt 0.0332031 0.5
vt 0.0371094 0.5

# verts
v -0.3 0 0.1
v -0.3 0 0
v -0.3 0 -0.1
v -0.3 0.1 0.1
v -0.3 0.1 0
v -0.3 0.1 -0.1
v 0.4 0 0.1
v 0.4 0 0
v 0.4 0 -0.1
v 0.4 0.1 0.1
v 0.4 0.1 0
v 0.4 0.1 -0.1
v -0.3 0 0.1
v -0.3 0.1 0.1
v -0.2 0 0.1
v -0.2 0.1 0.1
v -0.1 0 0.1
v -0.1 0.1 0.1
v 0.3 0 0.1
v 0.3 0.1 0.1
v 0.4 0 0.1
v 0.4 0.1 0.1
v -0.3 0 -0.1
v -0.3 0.1 -0.1
v -0.2 0 -0.1
v -0.2 0.1 -0.1
v -0.1 0 -0.1
v -0.1 0.1 -0.1
v 0.3 0 -0.1
v 0.3 0.1 -0.1
v 0.4 0 -0.1
v 0.4 0.1 -0.1
v -0.3 0 0.1
v -0.2 0 0.1
v -0.1 0 0.1
v 0.3 0 0.1
v 0.4 0 0.1
v -0.3 0 0
v -0.2 0 0
v -0.1 0 0
v 0.3 0 0
v 0.4 0 0
v -0.3 0 -0.1
v -0.2 0 -0.1
v -0.1 0 -0.1
v 0.3 0 -0.1
v 0.4 0 -0.1
v -0.3 0.1 0.1
v -0.2 0.1 0.1
v -0.1 0.1 0.1
v 0.3 0.1 0.1
v 0.4 0.1 0.1
v -0.3 0.1 0
v -0.2 0.1 0
v -0.1 0.1 0
v 0.3 0.1 0
v 0.4 0.1 0
v -0.3 0.1 -0.1
v -0.2 0.1 -0.1
v -0.1 0.1 -0.1
v 0.3 0.1 -0.1
v 0.4 0.1 -0.1

# faces
f 4/1/1 2/1/1 1/1/1
f 5/4/1 3/4/1 2/4/1
f 5/1/1 2/1/1 4/1/1
f 6/4/1 3/4/1 5/4/1
f 7/2/2 8/2/2 10/2/2
f 8/5/2 9/5/2 11/5/2
f 10/2/2 8/2/2 11/2/2
f 11/5/2 9/5/2 12/5/2
f 15/1/3 14/1/3 13/1/3
f 16/1/3 14/1/3 15/1/3
f 17/2/3 16/2/3 15/2/3
f 18/2/3 16/2/3 17/2/3
f 19/3/3 18/3/3 17/3/3
f 20/3/3 18/3/3 19/3/3
f 21/2/3 20/2/3 19/2/3
f 22/2/3 20/2/3 21/2/3
f 23/4/4 24/4/4 25/4/4
f 25/4/4 24/4/4 26/4/4
f 25/5/4 26/5/4 27/5/4
f 27/5/4 26/5/4 28/5/4
f 27/6/4 28/6/4 29/6/4
f 29/6/4 28/6/4 30/6/4
f 29/5/4 30/5/4 31/5/4
f 31/5/4 30/5/4 32/5/4
f 38/1/5 34/1/5 33/1/5
f 39/2/5 35/2/5 34/2/5
f 39/1/5 34/1/5 38/1/5
f 40/3/5 36/3/5 35/3/5
f 40/2/5 35/2/5 39/2/5
f 41/2/5 37/2/5 36/2/5
f 41/3/5 36/3/5 40/3/5
f 42/2/5 37/2/5 41/2/5
f 43/4/5 39/4/5 38/4/5
f 44/5/5 40/5/5 39/5/5
f 44/4/5 39/4/5 43/4/5
f 45/6/5 41/6/5 40/6/5
f 45/5/5 40/5/5 44/5/5
f 46/5/5 42/5/5 41/5/5
f 46/6/5 41/6/5 45/6/5
f 47/5/5 42/5/5 46/5/5
f 48/1/6 49/1/6 53/1/6
f 49/2/6 50/2/6 54/2/6
f 53/1/6 49/1/6 54/1/6
f 50/3/6 51/3/6 55/3/6
f 54/2/6 50/2/6 55/2/6
f 51/2/6 52/2/6 56/2/6
f 55/3/6 51/3/6 56/3/6
f 56/2/6 52/2/6 57/2/6
f 53/4/6 54/4/6 58/4/6
f 54/5/6 55/5/6 59/5/6
f 58/4/6 54/4/6 59/4/6
f 55/6/6 56/6/6 60/6/6
f 59/5/6 55/5/6 60/5/6
f 56/5/6 57/5/6 61/5/6
f 60/6/6 56/6/6 61/6/6
f 61/5/6 57/5/6 62/5/6
