# MagicaVoxel @ Ephtracy

# group
o OMG Stack

# material
mtllib OMG10A.mtl
usemtl palette

# normals
vn -1 0 0
vn 1 0 0
vn 0 -1 0
vn 0 1 0
vn 0 0 -1
vn 0 0 1

# texcoords
vt 0.00195312 0.5
vt 0.00585938 0.5
vt 0.0175781 0.5
vt 0.0292969 0.5

# verts
v -0.5 0 0.1
v -0.5 0.1 0.1
v -0.5 0.4 0.1
v -0.5 0.7 0.1
v -0.5 0.9 0.1
v -0.5 0 0.2
v -0.5 0.1 0.2
v -0.5 0.4 0.2
v -0.5 0.7 0.2
v -0.5 0.9 0.2
v -0.4 0 0
v -0.4 0.4 0
v -0.4 0.7 0
v -0.4 0.9 0
v -0.4 0 0.1
v -0.4 0.1 0.1
v -0.4 0.4 0.1
v -0.4 0.7 0.1
v -0.4 0.9 0.1
v -0.3 0 0.1
v -0.3 0.1 0.1
v -0.3 0.4 0.1
v -0.3 0.7 0.1
v -0.3 0.9 0.1
v -0.3 0 0.2
v -0.3 0.1 0.2
v -0.3 0.4 0.2
v -0.3 0.7 0.2
v -0.3 0.9 0.2
v -0.2 0 0
v -0.2 0.4 0
v -0.2 0.7 0
v -0.2 0.9 0
v -0.2 0 0.1
v -0.2 0.1 0.1
v -0.2 0.4 0.1
v -0.2 0.7 0.1
v -0.2 0.9 0.1
v -0.1 0 0.1
v -0.1 0.1 0.1
v -0.1 0.4 0.1
v -0.1 0.7 0.1
v -0.1 0.9 0.1
v -0.1 0 0.2
v -0.1 0.1 0.2
v -0.1 0.4 0.2
v -0.1 0.7 0.2
v -0.1 0.9 0.2
v 0 0 0
v 0 0.4 0
v 0 0.7 0
v 0 0.9 0
v 0 0 0.1
v 0 0.1 0.1
v 0 0.4 0.1
v 0 0.7 0.1
v 0 0.9 0.1
v 0.1 0 0.1
v 0.1 0.1 0.1
v 0.1 0.4 0.1
v 0.1 0.7 0.1
v 0.1 0.9 0.1
v 0.1 0 0.2
v 0.1 0.1 0.2
v 0.1 0.4 0.2
v 0.1 0.7 0.2
v 0.1 0.9 0.2
v 0.2 0 0
v 0.2 0.4 0
v 0.2 0.7 0
v 0.2 0.9 0
v 0.2 0 0.1
v 0.2 0.1 0.1
v 0.2 0.4 0.1
v 0.2 0.7 0.1
v 0.2 0.9 0.1
v 0.3 0 0.1
v 0.3 0.1 0.1
v 0.3 0.4 0.1
v 0.3 0.7 0.1
v 0.3 0.9 0.1
v 0.3 0 0.2
v 0.3 0.1 0.2
v 0.3 0.4 0.2
v 0.3 0.7 0.2
v 0.3 0.9 0.2
v 0.4 0 0
v 0.4 0.4 0
v 0.4 0.7 0
v 0.4 0.9 0
v 0.4 0 0.1
v 0.4 0.1 0.1
v 0.4 0.4 0.1
v 0.4 0.7 0.1
v 0.4 0.9 0.1
v -0.4 0 0.1
v -0.4 0.1 0.1
v -0.4 0.4 0.1
v -0.4 0.7 0.1
v -0.4 0.9 0.1
v -0.4 0 0.2
v -0.4 0.1 0.2
v -0.4 0.4 0.2
v -0.4 0.7 0.2
v -0.4 0.9 0.2
v -0.3 0 0
v -0.3 0.4 0
v -0.3 0.7 0
v -0.3 0.9 0
v -0.3 0 0.1
v -0.3 0.1 0.1
v -0.3 0.4 0.1
v -0.3 0.7 0.1
v -0.3 0.9 0.1
v -0.2 0 0.1
v -0.2 0.1 0.1
v -0.2 0.4 0.1
v -0.2 0.7 0.1
v -0.2 0.9 0.1
v -0.2 0 0.2
v -0.2 0.1 0.2
v -0.2 0.4 0.2
v -0.2 0.7 0.2
v -0.2 0.9 0.2
v -0.1 0 0
v -0.1 0.4 0
v -0.1 0.7 0
v -0.1 0.9 0
v -0.1 0 0.1
v -0.1 0.1 0.1
v -0.1 0.4 0.1
v -0.1 0.7 0.1
v -0.1 0.9 0.1
v 0 0 0.1
v 0 0.1 0.1
v 0 0.4 0.1
v 0 0.7 0.1
v 0 0.9 0.1
v 0 0 0.2
v 0 0.1 0.2
v 0 0.4 0.2
v 0 0.7 0.2
v 0 0.9 0.2
v 0.1 0 0
v 0.1 0.4 0
v 0.1 0.7 0
v 0.1 0.9 0
v 0.1 0 0.1
v 0.1 0.1 0.1
v 0.1 0.4 0.1
v 0.1 0.7 0.1
v 0.1 0.9 0.1
v 0.2 0 0.1
v 0.2 0.1 0.1
v 0.2 0.4 0.1
v 0.2 0.7 0.1
v 0.2 0.9 0.1
v 0.2 0 0.2
v 0.2 0.1 0.2
v 0.2 0.4 0.2
v 0.2 0.7 0.2
v 0.2 0.9 0.2
v 0.3 0 0
v 0.3 0.4 0
v 0.3 0.7 0
v 0.3 0.9 0
v 0.3 0 0.1
v 0.3 0.1 0.1
v 0.3 0.4 0.1
v 0.3 0.7 0.1
v 0.3 0.9 0.1
v 0.4 0 0.1
v 0.4 0.1 0.1
v 0.4 0.4 0.1
v 0.4 0.7 0.1
v 0.4 0.9 0.1
v 0.4 0 0.2
v 0.4 0.1 0.2
v 0.4 0.4 0.2
v 0.4 0.7 0.2
v 0.4 0.9 0.2
v 0.5 0 0
v 0.5 0.4 0
v 0.5 0.7 0
v 0.5 0.9 0
v 0.5 0 0.1
v 0.5 0.4 0.1
v 0.5 0.7 0.1
v 0.5 0.9 0.1
v -0.5 0 0.1
v -0.5 0 0.2
v -0.4 0 0
v -0.4 0 0.1
v -0.4 0 0.2
v -0.3 0 0
v -0.3 0 0.1
v -0.3 0 0.2
v -0.2 0 0
v -0.2 0 0.1
v -0.2 0 0.2
v -0.1 0 0
v -0.1 0 0.1
v -0.1 0 0.2
v 0 0 0
v 0 0 0.1
v 0 0 0.2
v 0.1 0 0
v 0.1 0 0.1
v 0.1 0 0.2
v 0.2 0 0
v 0.2 0 0.1
v 0.2 0 0.2
v 0.3 0 0
v 0.3 0 0.1
v 0.3 0 0.2
v 0.4 0 0
v 0.4 0 0.1
v 0.4 0 0.2
v 0.5 0 0
v 0.5 0 0.1
v -0.5 0.9 0.1
v -0.5 0.9 0.2
v -0.4 0.9 0
v -0.4 0.9 0.1
v -0.4 0.9 0.2
v -0.3 0.9 0
v -0.3 0.9 0.1
v -0.3 0.9 0.2
v -0.2 0.9 0
v -0.2 0.9 0.1
v -0.2 0.9 0.2
v -0.1 0.9 0
v -0.1 0.9 0.1
v -0.1 0.9 0.2
v 0 0.9 0
v 0 0.9 0.1
v 0 0.9 0.2
v 0.1 0.9 0
v 0.1 0.9 0.1
v 0.1 0.9 0.2
v 0.2 0.9 0
v 0.2 0.9 0.1
v 0.2 0.9 0.2
v 0.3 0.9 0
v 0.3 0.9 0.1
v 0.3 0.9 0.2
v 0.4 0.9 0
v 0.4 0.9 0.1
v 0.4 0.9 0.2
v 0.5 0.9 0
v 0.5 0.9 0.1
v -0.4 0 0
v -0.3 0 0
v -0.2 0 0
v -0.1 0 0
v 0 0 0
v 0.1 0 0
v 0.2 0 0
v 0.3 0 0
v 0.4 0 0
v 0.5 0 0
v -0.4 0.4 0
v -0.3 0.4 0
v -0.2 0.4 0
v -0.1 0.4 0
v 0 0.4 0
v 0.1 0.4 0
v 0.2 0.4 0
v 0.3 0.4 0
v 0.4 0.4 0
v 0.5 0.4 0
v -0.4 0.7 0
v -0.3 0.7 0
v -0.2 0.7 0
v -0.1 0.7 0
v 0 0.7 0
v 0.1 0.7 0
v 0.2 0.7 0
v 0.3 0.7 0
v 0.4 0.7 0
v 0.5 0.7 0
v -0.4 0.9 0
v -0.3 0.9 0
v -0.2 0.9 0
v -0.1 0.9 0
v 0 0.9 0
v 0.1 0.9 0
v 0.2 0.9 0
v 0.3 0.9 0
v 0.4 0.9 0
v 0.5 0.9 0
v -0.5 0 0.1
v -0.4 0 0.1
v -0.3 0 0.1
v -0.2 0 0.1
v -0.1 0 0.1
v 0 0 0.1
v 0.1 0 0.1
v 0.2 0 0.1
v 0.3 0 0.1
v 0.4 0 0.1
v -0.5 0.1 0.1
v -0.4 0.1 0.1
v -0.3 0.1 0.1
v -0.2 0.1 0.1
v -0.1 0.1 0.1
v 0 0.1 0.1
v 0.1 0.1 0.1
v 0.2 0.1 0.1
v 0.3 0.1 0.1
v 0.4 0.1 0.1
v -0.5 0.4 0.1
v -0.4 0.4 0.1
v -0.3 0.4 0.1
v -0.2 0.4 0.1
v -0.1 0.4 0.1
v 0 0.4 0.1
v 0.1 0.4 0.1
v 0.2 0.4 0.1
v 0.3 0.4 0.1
v 0.4 0.4 0.1
v -0.5 0.7 0.1
v -0.4 0.7 0.1
v -0.3 0.7 0.1
v -0.2 0.7 0.1
v -0.1 0.7 0.1
v 0 0.7 0.1
v 0.1 0.7 0.1
v 0.2 0.7 0.1
v 0.3 0.7 0.1
v 0.4 0.7 0.1
v -0.5 0.9 0.1
v -0.4 0.9 0.1
v -0.3 0.9 0.1
v -0.2 0.9 0.1
v -0.1 0.9 0.1
v 0 0.9 0.1
v 0.1 0.9 0.1
v 0.2 0.9 0.1
v 0.3 0.9 0.1
v 0.4 0.9 0.1
v -0.4 0 0.1
v -0.3 0 0.1
v -0.2 0 0.1
v -0.1 0 0.1
v 0 0 0.1
v 0.1 0 0.1
v 0.2 0 0.1
v 0.3 0 0.1
v 0.4 0 0.1
v 0.5 0 0.1
v -0.4 0.1 0.1
v -0.3 0.1 0.1
v -0.2 0.1 0.1
v -0.1 0.1 0.1
v 0 0.1 0.1
v 0.1 0.1 0.1
v 0.2 0.1 0.1
v 0.3 0.1 0.1
v 0.4 0.1 0.1
v -0.4 0.4 0.1
v -0.3 0.4 0.1
v -0.2 0.4 0.1
v -0.1 0.4 0.1
v 0 0.4 0.1
v 0.1 0.4 0.1
v 0.2 0.4 0.1
v 0.3 0.4 0.1
v 0.4 0.4 0.1
v 0.5 0.4 0.1
v -0.4 0.7 0.1
v -0.3 0.7 0.1
v -0.2 0.7 0.1
v -0.1 0.7 0.1
v 0 0.7 0.1
v 0.1 0.7 0.1
v 0.2 0.7 0.1
v 0.3 0.7 0.1
v 0.4 0.7 0.1
v 0.5 0.7 0.1
v -0.4 0.9 0.1
v -0.3 0.9 0.1
v -0.2 0.9 0.1
v -0.1 0.9 0.1
v 0 0.9 0.1
v 0.1 0.9 0.1
v 0.2 0.9 0.1
v 0.3 0.9 0.1
v 0.4 0.9 0.1
v 0.5 0.9 0.1
v -0.5 0 0.2
v -0.4 0 0.2
v -0.3 0 0.2
v -0.2 0 0.2
v -0.1 0 0.2
v 0 0 0.2
v 0.1 0 0.2
v 0.2 0 0.2
v 0.3 0 0.2
v 0.4 0 0.2
v -0.5 0.1 0.2
v -0.4 0.1 0.2
v -0.3 0.1 0.2
v -0.2 0.1 0.2
v -0.1 0.1 0.2
v 0 0.1 0.2
v 0.1 0.1 0.2
v 0.2 0.1 0.2
v 0.3 0.1 0.2
v 0.4 0.1 0.2
v -0.5 0.4 0.2
v -0.4 0.4 0.2
v -0.3 0.4 0.2
v -0.2 0.4 0.2
v -0.1 0.4 0.2
v 0 0.4 0.2
v 0.1 0.4 0.2
v 0.2 0.4 0.2
v 0.3 0.4 0.2
v 0.4 0.4 0.2
v -0.5 0.7 0.2
v -0.4 0.7 0.2
v -0.3 0.7 0.2
v -0.2 0.7 0.2
v -0.1 0.7 0.2
v 0 0.7 0.2
v 0.1 0.7 0.2
v 0.2 0.7 0.2
v 0.3 0.7 0.2
v 0.4 0.7 0.2
v -0.5 0.9 0.2
v -0.4 0.9 0.2
v -0.3 0.9 0.2
v -0.2 0.9 0.2
v -0.1 0.9 0.2
v 0 0.9 0.2
v 0.1 0.9 0.2
v 0.2 0.9 0.2
v 0.3 0.9 0.2
v 0.4 0.9 0.2

# faces
f 6/1/1 2/1/1 1/1/1
f 7/2/1 3/2/1 2/2/1
f 7/1/1 2/1/1 6/1/1
f 8/3/1 4/3/1 3/3/1
f 8/2/1 3/2/1 7/2/1
f 9/4/1 5/4/1 4/4/1
f 9/3/1 4/3/1 8/3/1
f 10/4/1 5/4/1 9/4/1
f 15/1/1 12/1/1 11/1/1
f 16/1/1 12/1/1 15/1/1
f 17/2/1 13/2/1 12/2/1
f 17/1/1 12/1/1 16/1/1
f 18/4/1 14/4/1 13/4/1
f 18/2/1 13/2/1 17/2/1
f 19/4/1 14/4/1 18/4/1
f 25/1/1 21/1/1 20/1/1
f 26/2/1 22/2/1 21/2/1
f 26/1/1 21/1/1 25/1/1
f 27/3/1 23/3/1 22/3/1
f 27/2/1 22/2/1 26/2/1
f 28/4/1 24/4/1 23/4/1
f 28/3/1 23/3/1 27/3/1
f 29/4/1 24/4/1 28/4/1
f 34/1/1 31/1/1 30/1/1
f 35/1/1 31/1/1 34/1/1
f 36/2/1 32/2/1 31/2/1
f 36/1/1 31/1/1 35/1/1
f 37/4/1 33/4/1 32/4/1
f 37/2/1 32/2/1 36/2/1
f 38/4/1 33/4/1 37/4/1
f 44/1/1 40/1/1 39/1/1
f 45/2/1 41/2/1 40/2/1
f 45/1/1 40/1/1 44/1/1
f 46/3/1 42/3/1 41/3/1
f 46/2/1 41/2/1 45/2/1
f 47/4/1 43/4/1 42/4/1
f 47/3/1 42/3/1 46/3/1
f 48/4/1 43/4/1 47/4/1
f 53/1/1 50/1/1 49/1/1
f 54/1/1 50/1/1 53/1/1
f 55/2/1 51/2/1 50/2/1
f 55/1/1 50/1/1 54/1/1
f 56/4/1 52/4/1 51/4/1
f 56/2/1 51/2/1 55/2/1
f 57/4/1 52/4/1 56/4/1
f 63/1/1 59/1/1 58/1/1
f 64/2/1 60/2/1 59/2/1
f 64/1/1 59/1/1 63/1/1
f 65/3/1 61/3/1 60/3/1
f 65/2/1 60/2/1 64/2/1
f 66/4/1 62/4/1 61/4/1
f 66/3/1 61/3/1 65/3/1
f 67/4/1 62/4/1 66/4/1
f 72/1/1 69/1/1 68/1/1
f 73/1/1 69/1/1 72/1/1
f 74/2/1 70/2/1 69/2/1
f 74/1/1 69/1/1 73/1/1
f 75/4/1 71/4/1 70/4/1
f 75/2/1 70/2/1 74/2/1
f 76/4/1 71/4/1 75/4/1
f 82/1/1 78/1/1 77/1/1
f 83/2/1 79/2/1 78/2/1
f 83/1/1 78/1/1 82/1/1
f 84/3/1 80/3/1 79/3/1
f 84/2/1 79/2/1 83/2/1
f 85/4/1 81/4/1 80/4/1
f 85/3/1 80/3/1 84/3/1
f 86/4/1 81/4/1 85/4/1
f 91/1/1 88/1/1 87/1/1
f 92/1/1 88/1/1 91/1/1
f 93/2/1 89/2/1 88/2/1
f 93/1/1 88/1/1 92/1/1
f 94/4/1 90/4/1 89/4/1
f 94/2/1 89/2/1 93/2/1
f 95/4/1 90/4/1 94/4/1
f 96/1/2 97/1/2 101/1/2
f 97/2/2 98/2/2 102/2/2
f 101/1/2 97/1/2 102/1/2
f 98/3/2 99/3/2 103/3/2
f 102/2/2 98/2/2 103/2/2
f 99/4/2 100/4/2 104/4/2
f 103/3/2 99/3/2 104/3/2
f 104/4/2 100/4/2 105/4/2
f 106/1/2 107/1/2 110/1/2
f 110/1/2 107/1/2 111/1/2
f 107/2/2 108/2/2 112/2/2
f 111/1/2 107/1/2 112/1/2
f 108/4/2 109/4/2 113/4/2
f 112/2/2 108/2/2 113/2/2
f 113/4/2 109/4/2 114/4/2
f 115/1/2 116/1/2 120/1/2
f 116/2/2 117/2/2 121/2/2
f 120/1/2 116/1/2 121/1/2
f 117/3/2 118/3/2 122/3/2
f 121/2/2 117/2/2 122/2/2
f 118/4/2 119/4/2 123/4/2
f 122/3/2 118/3/2 123/3/2
f 123/4/2 119/4/2 124/4/2
f 125/1/2 126/1/2 129/1/2
f 129/1/2 126/1/2 130/1/2
f 126/2/2 127/2/2 131/2/2
f 130/1/2 126/1/2 131/1/2
f 127/4/2 128/4/2 132/4/2
f 131/2/2 127/2/2 132/2/2
f 132/4/2 128/4/2 133/4/2
f 134/1/2 135/1/2 139/1/2
f 135/2/2 136/2/2 140/2/2
f 139/1/2 135/1/2 140/1/2
f 136/3/2 137/3/2 141/3/2
f 140/2/2 136/2/2 141/2/2
f 137/4/2 138/4/2 142/4/2
f 141/3/2 137/3/2 142/3/2
f 142/4/2 138/4/2 143/4/2
f 144/1/2 145/1/2 148/1/2
f 148/1/2 145/1/2 149/1/2
f 145/2/2 146/2/2 150/2/2
f 149/1/2 145/1/2 150/1/2
f 146/4/2 147/4/2 151/4/2
f 150/2/2 146/2/2 151/2/2
f 151/4/2 147/4/2 152/4/2
f 153/1/2 154/1/2 158/1/2
f 154/2/2 155/2/2 159/2/2
f 158/1/2 154/1/2 159/1/2
f 155/3/2 156/3/2 160/3/2
f 159/2/2 155/2/2 160/2/2
f 156/4/2 157/4/2 161/4/2
f 160/3/2 156/3/2 161/3/2
f 161/4/2 157/4/2 162/4/2
f 163/1/2 164/1/2 167/1/2
f 167/1/2 164/1/2 168/1/2
f 164/2/2 165/2/2 169/2/2
f 168/1/2 164/1/2 169/1/2
f 165/4/2 166/4/2 170/4/2
f 169/2/2 165/2/2 170/2/2
f 170/4/2 166/4/2 171/4/2
f 172/1/2 173/1/2 177/1/2
f 173/2/2 174/2/2 178/2/2
f 177/1/2 173/1/2 178/1/2
f 174/3/2 175/3/2 179/3/2
f 178/2/2 174/2/2 179/2/2
f 175/4/2 176/4/2 180/4/2
f 179/3/2 175/3/2 180/3/2
f 180/4/2 176/4/2 181/4/2
f 182/1/2 183/1/2 186/1/2
f 183/2/2 184/2/2 187/2/2
f 186/1/2 183/1/2 187/1/2
f 184/4/2 185/4/2 188/4/2
f 187/2/2 184/2/2 188/2/2
f 188/4/2 185/4/2 189/4/2
f 193/1/3 191/1/3 190/1/3
f 194/1/3 191/1/3 193/1/3
f 195/1/3 193/1/3 192/1/3
f 196/1/3 193/1/3 195/1/3
f 199/1/3 197/1/3 196/1/3
f 200/1/3 197/1/3 199/1/3
f 201/1/3 199/1/3 198/1/3
f 202/1/3 199/1/3 201/1/3
f 205/1/3 203/1/3 202/1/3
f 206/1/3 203/1/3 205/1/3
f 207/1/3 205/1/3 204/1/3
f 208/1/3 205/1/3 207/1/3
f 211/1/3 209/1/3 208/1/3
f 212/1/3 209/1/3 211/1/3
f 213/1/3 211/1/3 210/1/3
f 214/1/3 211/1/3 213/1/3
f 217/1/3 215/1/3 214/1/3
f 218/1/3 215/1/3 217/1/3
f 219/1/3 217/1/3 216/1/3
f 220/1/3 217/1/3 219/1/3
f 221/4/4 222/4/4 224/4/4
f 224/4/4 222/4/4 225/4/4
f 223/4/4 224/4/4 226/4/4
f 226/4/4 224/4/4 227/4/4
f 227/4/4 228/4/4 230/4/4
f 230/4/4 228/4/4 231/4/4
f 229/4/4 230/4/4 232/4/4
f 232/4/4 230/4/4 233/4/4
f 233/4/4 234/4/4 236/4/4
f 236/4/4 234/4/4 237/4/4
f 235/4/4 236/4/4 238/4/4
f 238/4/4 236/4/4 239/4/4
f 239/4/4 240/4/4 242/4/4
f 242/4/4 240/4/4 243/4/4
f 241/4/4 242/4/4 244/4/4
f 244/4/4 242/4/4 245/4/4
f 245/4/4 246/4/4 248/4/4
f 248/4/4 246/4/4 249/4/4
f 247/4/4 248/4/4 250/4/4
f 250/4/4 248/4/4 251/4/4
f 262/1/5 253/1/5 252/1/5
f 263/1/5 253/1/5 262/1/5
f 264/1/5 255/1/5 254/1/5
f 265/1/5 255/1/5 264/1/5
f 266/1/5 257/1/5 256/1/5
f 267/1/5 257/1/5 266/1/5
f 268/1/5 259/1/5 258/1/5
f 269/1/5 259/1/5 268/1/5
f 270/1/5 261/1/5 260/1/5
f 271/1/5 261/1/5 270/1/5
f 272/2/5 263/2/5 262/2/5
f 273/2/5 263/2/5 272/2/5
f 274/2/5 265/2/5 264/2/5
f 275/2/5 265/2/5 274/2/5
f 276/2/5 267/2/5 266/2/5
f 277/2/5 267/2/5 276/2/5
f 278/2/5 269/2/5 268/2/5
f 279/2/5 269/2/5 278/2/5
f 280/2/5 271/2/5 270/2/5
f 281/2/5 271/2/5 280/2/5
f 282/4/5 273/4/5 272/4/5
f 283/4/5 273/4/5 282/4/5
f 284/4/5 275/4/5 274/4/5
f 285/4/5 275/4/5 284/4/5
f 286/4/5 277/4/5 276/4/5
f 287/4/5 277/4/5 286/4/5
f 288/4/5 279/4/5 278/4/5
f 289/4/5 279/4/5 288/4/5
f 290/4/5 281/4/5 280/4/5
f 291/4/5 281/4/5 290/4/5
f 302/1/5 293/1/5 292/1/5
f 303/1/5 293/1/5 302/1/5
f 304/1/5 295/1/5 294/1/5
f 305/1/5 295/1/5 304/1/5
f 306/1/5 297/1/5 296/1/5
f 307/1/5 297/1/5 306/1/5
f 308/1/5 299/1/5 298/1/5
f 309/1/5 299/1/5 308/1/5
f 310/1/5 301/1/5 300/1/5
f 311/1/5 301/1/5 310/1/5
f 312/2/5 303/2/5 302/2/5
f 313/2/5 303/2/5 312/2/5
f 314/2/5 305/2/5 304/2/5
f 315/2/5 305/2/5 314/2/5
f 316/2/5 307/2/5 306/2/5
f 317/2/5 307/2/5 316/2/5
f 318/2/5 309/2/5 308/2/5
f 319/2/5 309/2/5 318/2/5
f 320/2/5 311/2/5 310/2/5
f 321/2/5 311/2/5 320/2/5
f 322/3/5 313/3/5 312/3/5
f 323/3/5 313/3/5 322/3/5
f 324/3/5 315/3/5 314/3/5
f 325/3/5 315/3/5 324/3/5
f 326/3/5 317/3/5 316/3/5
f 327/3/5 317/3/5 326/3/5
f 328/3/5 319/3/5 318/3/5
f 329/3/5 319/3/5 328/3/5
f 330/3/5 321/3/5 320/3/5
f 331/3/5 321/3/5 330/3/5
f 332/4/5 323/4/5 322/4/5
f 333/4/5 323/4/5 332/4/5
f 334/4/5 325/4/5 324/4/5
f 335/4/5 325/4/5 334/4/5
f 336/4/5 327/4/5 326/4/5
f 337/4/5 327/4/5 336/4/5
f 338/4/5 329/4/5 328/4/5
f 339/4/5 329/4/5 338/4/5
f 340/4/5 331/4/5 330/4/5
f 341/4/5 331/4/5 340/4/5
f 342/1/6 343/1/6 352/1/6
f 352/1/6 343/1/6 353/1/6
f 344/1/6 345/1/6 354/1/6
f 354/1/6 345/1/6 355/1/6
f 346/1/6 347/1/6 356/1/6
f 356/1/6 347/1/6 357/1/6
f 348/1/6 349/1/6 358/1/6
f 358/1/6 349/1/6 359/1/6
f 350/1/6 351/1/6 360/1/6
f 352/1/6 353/1/6 361/1/6
f 361/1/6 353/1/6 362/1/6
f 354/1/6 355/1/6 363/1/6
f 363/1/6 355/1/6 364/1/6
f 356/1/6 357/1/6 365/1/6
f 365/1/6 357/1/6 366/1/6
f 358/1/6 359/1/6 367/1/6
f 367/1/6 359/1/6 368/1/6
f 360/1/6 351/1/6 369/1/6
f 369/1/6 351/1/6 370/1/6
f 361/2/6 362/2/6 371/2/6
f 371/2/6 362/2/6 372/2/6
f 363/2/6 364/2/6 373/2/6
f 373/2/6 364/2/6 374/2/6
f 365/2/6 366/2/6 375/2/6
f 375/2/6 366/2/6 376/2/6
f 367/2/6 368/2/6 377/2/6
f 377/2/6 368/2/6 378/2/6
f 369/2/6 370/2/6 379/2/6
f 379/2/6 370/2/6 380/2/6
f 371/4/6 372/4/6 381/4/6
f 381/4/6 372/4/6 382/4/6
f 373/4/6 374/4/6 383/4/6
f 383/4/6 374/4/6 384/4/6
f 375/4/6 376/4/6 385/4/6
f 385/4/6 376/4/6 386/4/6
f 377/4/6 378/4/6 387/4/6
f 387/4/6 378/4/6 388/4/6
f 379/4/6 380/4/6 389/4/6
f 389/4/6 380/4/6 390/4/6
f 391/1/6 392/1/6 401/1/6
f 401/1/6 392/1/6 402/1/6
f 393/1/6 394/1/6 403/1/6
f 403/1/6 394/1/6 404/1/6
f 395/1/6 396/1/6 405/1/6
f 405/1/6 396/1/6 406/1/6
f 397/1/6 398/1/6 407/1/6
f 407/1/6 398/1/6 408/1/6
f 399/1/6 400/1/6 409/1/6
f 409/1/6 400/1/6 410/1/6
f 401/2/6 402/2/6 411/2/6
f 411/2/6 402/2/6 412/2/6
f 403/2/6 404/2/6 413/2/6
f 413/2/6 404/2/6 414/2/6
f 405/2/6 406/2/6 415/2/6
f 415/2/6 406/2/6 416/2/6
f 407/2/6 408/2/6 417/2/6
f 417/2/6 408/2/6 418/2/6
f 409/2/6 410/2/6 419/2/6
f 419/2/6 410/2/6 420/2/6
f 411/3/6 412/3/6 421/3/6
f 421/3/6 412/3/6 422/3/6
f 413/3/6 414/3/6 423/3/6
f 423/3/6 414/3/6 424/3/6
f 415/3/6 416/3/6 425/3/6
f 425/3/6 416/3/6 426/3/6
f 417/3/6 418/3/6 427/3/6
f 427/3/6 418/3/6 428/3/6
f 419/3/6 420/3/6 429/3/6
f 429/3/6 420/3/6 430/3/6
f 421/4/6 422/4/6 431/4/6
f 431/4/6 422/4/6 432/4/6
f 423/4/6 424/4/6 433/4/6
f 433/4/6 424/4/6 434/4/6
f 425/4/6 426/4/6 435/4/6
f 435/4/6 426/4/6 436/4/6
f 427/4/6 428/4/6 437/4/6
f 437/4/6 428/4/6 438/4/6
f 429/4/6 430/4/6 439/4/6
f 439/4/6 430/4/6 440/4/6
