# MagicaVoxel @ Ephtracy

# group
o AURPA0

# material
#mtllib Aurochs-AURPA0.mtl
#usemtl palette

# normals
vn -1 0 0
vn 1 0 0
vn 0 0 1
vn 0 0 -1
vn 0 -1 0
vn 0 1 0

# texcoords
vt 0.0214844 0.5
vt 0.0253906 0.5
vt 0.0292969 0.5
vt 0.423828 0.5
vt 0.427734 0.5
vt 0.431641 0.5
vt 0.435547 0.5
vt 0.912109 0.5
vt 0.916016 0.5

# verts
v -1.6 0.1 0.6
v -1.6 0.1 0.5
v -1.6 0.1 0.4
v -1.6 0.2 0.6
v -1.6 0.2 0.5
v -1.6 0.2 0.4
v -1.5 0 0.6
v -1.5 0 0.5
v -1.5 0 0.4
v -1.5 0.1 0.6
v -1.5 0.1 0.5
v -1.5 0.1 0.4
v -1.5 0.1 0.2
v -1.5 0.2 0.6
v -1.5 0.2 0.5
v -1.5 0.2 0.4
v -1.5 0.2 0.2
v -1.5 0.3 0.6
v -1.5 0.3 0.5
v -1.5 0.3 0.4
v -1.4 0 0.4
v -1.4 0 0.2
v -1.4 0.1 0.4
v -1.4 0.1 0.2
v -1.4 0.1 0
v -1.4 0.1 -0.3
v -1.4 0.1 -0.4
v -1.4 0.2 0.4
v -1.4 0.2 0.2
v -1.4 0.2 0
v -1.4 0.2 -0.3
v -1.4 0.2 -0.4
v -1.4 0.3 0.4
v -1.4 0.3 0.2
v -1.3 0.1 0
v -1.3 0.1 -0.1
v -1.3 0.1 -0.2
v -1.3 0.1 -0.3
v -1.3 0.2 0
v -1.3 0.2 -0.1
v -1.3 0.2 -0.2
v -1.3 0.2 -0.3
v -1.2 0.1 -0.1
v -1.2 0.1 -0.2
v -1.2 0.2 -0.1
v -1.2 0.2 -0.2
v -1.1 0 0
v -1.1 0 -0.2
v -1.1 0 -0.3
v -1.1 0.1 0
v -1.1 0.1 -0.1
v -1.1 0.1 -0.2
v -1.1 0.1 -0.3
v -1.1 0.1 -0.4
v -1.1 0.2 0
v -1.1 0.2 -0.1
v -1.1 0.2 -0.2
v -1.1 0.2 -0.3
v -1.1 0.2 -0.4
v -1.1 0.3 0
v -1.1 0.3 -0.2
v -1.1 0.3 -0.3
v -1 0.1 0.3
v -1 0.1 0.2
v -1 0.2 0.3
v -1 0.2 0.2
v -0.8 0.1 0.2
v -0.8 0.1 0.1
v -0.8 0.2 0.2
v -0.8 0.2 0.1
v 0 0.1 -0.1
v 0 0.1 -0.2
v 0 0.2 -0.1
v 0 0.2 -0.2
v 0.2 0.1 -0.3
v 0.2 0.1 -0.4
v 0.2 0.2 -0.3
v 0.2 0.2 -0.4
v -1.3 0 0.5
v -1.3 0 0.2
v -1.3 0.1 0.5
v -1.3 0.1 0.2
v -1.3 0.2 0.5
v -1.3 0.2 0.2
v -1.3 0.3 0.5
v -1.3 0.3 0.2
v -1.2 0 0.6
v -1.2 0 0.5
v -1.2 0.1 0.6
v -1.2 0.1 0.5
v -1.2 0.1 0.2
v -1.2 0.1 -0.3
v -1.2 0.1 -0.4
v -1.2 0.2 0.6
v -1.2 0.2 0.5
v -1.2 0.2 0.2
v -1.2 0.2 -0.3
v -1.2 0.2 -0.4
v -1.2 0.3 0.6
v -1.2 0.3 0.5
v -1.1 0.1 0.6
v -1.1 0.1 0.5
v -1.1 0.2 0.6
v -1.1 0.2 0.5
v -1 0.1 0.2
v -1 0.1 0.1
v -1 0.2 0.2
v -1 0.2 0.1
v -0.7 0.1 0.3
v -0.7 0.1 0.2
v -0.7 0.1 0.1
v -0.7 0.2 0.3
v -0.7 0.2 0.2
v -0.7 0.2 0.1
v -0.6 0 0
v -0.6 0 -0.1
v -0.6 0 -0.2
v -0.6 0 -0.3
v -0.6 0.1 0.1
v -0.6 0.1 0
v -0.6 0.1 -0.1
v -0.6 0.1 -0.2
v -0.6 0.1 -0.3
v -0.6 0.2 0.1
v -0.6 0.2 0
v -0.6 0.2 -0.1
v -0.6 0.2 -0.2
v -0.6 0.2 -0.3
v -0.6 0.3 0
v -0.6 0.3 -0.1
v -0.6 0.3 -0.2
v -0.6 0.3 -0.3
v -0.5 0.1 0
v -0.5 0.1 -0.1
v -0.5 0.1 -0.2
v -0.5 0.1 -0.3
v -0.5 0.1 -0.4
v -0.5 0.2 0
v -0.5 0.2 -0.1
v -0.5 0.2 -0.2
v -0.5 0.2 -0.3
v -0.5 0.2 -0.4
v 0.1 0.1 -0.1
v 0.1 0.1 -0.2
v 0.1 0.2 -0.1
v 0.1 0.2 -0.2
v 0.1 0.3 -0.1
v 0.1 0.3 -0.2
v 0.3 0.1 -0.3
v 0.3 0.1 -0.4
v 0.3 0.2 -0.3
v 0.3 0.2 -0.4
v 0.4 0.1 -0.2
v 0.4 0.1 -0.3
v 0.4 0.2 -0.2
v 0.4 0.2 -0.3
v -1.6 0.1 0.6
v -1.6 0.2 0.6
v -1.5 0 0.6
v -1.5 0.1 0.6
v -1.5 0.2 0.6
v -1.5 0.3 0.6
v -1.2 0 0.6
v -1.2 0.1 0.6
v -1.2 0.2 0.6
v -1.2 0.3 0.6
v -1.1 0.1 0.6
v -1.1 0.2 0.6
v -1 0.1 0.3
v -1 0.2 0.3
v -0.9 0.1 0.3
v -0.9 0.2 0.3
v -0.8 0.1 0.3
v -0.8 0.2 0.3
v -0.7 0.1 0.3
v -0.7 0.2 0.3
v -1.2 0.1 0.2
v -1.2 0.2 0.2
v -1.1 0.1 0.2
v -1.1 0.2 0.2
v -1 0.1 0.2
v -1 0.2 0.2
v -1 0.1 0.1
v -1 0.2 0.1
v -0.9 0.1 0.1
v -0.9 0.2 0.1
v -0.8 0.1 0.1
v -0.8 0.2 0.1
v -0.7 0.1 0.1
v -0.7 0.2 0.1
v -0.6 0.1 0.1
v -0.6 0.2 0.1
v -1.1 0 0
v -1.1 0.1 0
v -1.1 0.2 0
v -1.1 0.3 0
v -1 0 0
v -1 0.1 0
v -1 0.2 0
v -1 0.3 0
v -0.9 0.1 0
v -0.9 0.2 0
v -0.6 0 0
v -0.6 0.1 0
v -0.6 0.2 0
v -0.6 0.3 0
v -0.5 0.1 0
v -0.5 0.2 0
v -0.6 0.2 -0.1
v -0.6 0.3 -0.1
v -0.5 0.2 -0.1
v -0.3 0.2 -0.1
v -0.3 0.3 -0.1
v -0.2 0.2 -0.1
v -0.2 0.3 -0.1
v -0.1 0.2 -0.1
v -0.1 0.3 -0.1
v 0 0.1 -0.1
v 0 0.2 -0.1
v 0.1 0.1 -0.1
v 0.1 0.2 -0.1
v 0.1 0.3 -0.1
v -1.3 0.1 -0.2
v -1.3 0.2 -0.2
v -1.2 0.1 -0.2
v -1.2 0.2 -0.2
v -0.5 0.1 -0.2
v -0.5 0.2 -0.2
v -0.4 0.1 -0.2
v -0.4 0.2 -0.2
v -0.3 0.2 -0.2
v -0.2 0.1 -0.2
v -0.2 0.2 -0.2
v -0.1 0.1 -0.2
v -0.1 0.2 -0.2
v 0 0.1 -0.2
v 0 0.2 -0.2
v 0.1 0.1 -0.2
v 0.1 0.2 -0.2
v 0.2 0.1 -0.2
v 0.2 0.2 -0.2
v 0.4 0.1 -0.2
v 0.4 0.2 -0.2
v -1.4 0.1 -0.3
v -1.4 0.2 -0.3
v -1.3 0.1 -0.3
v -1.3 0.2 -0.3
v -1.3 0 0.5
v -1.3 0.1 0.5
v -1.3 0.2 0.5
v -1.3 0.3 0.5
v -1.2 0 0.5
v -1.2 0.1 0.5
v -1.2 0.2 0.5
v -1.2 0.3 0.5
v -1.1 0.1 0.5
v -1.1 0.2 0.5
v -1.6 0.1 0.4
v -1.6 0.2 0.4
v -1.5 0 0.4
v -1.5 0.1 0.4
v -1.5 0.2 0.4
v -1.5 0.3 0.4
v -1.4 0 0.4
v -1.4 0.1 0.4
v -1.4 0.2 0.4
v -1.4 0.3 0.4
v -1.5 0.1 0.2
v -1.5 0.2 0.2
v -1.4 0 0.2
v -1.4 0.1 0.2
v -1.4 0.2 0.2
v -1.4 0.3 0.2
v -1.3 0 0.2
v -1.3 0.1 0.2
v -1.3 0.2 0.2
v -1.3 0.3 0.2
v -1 0.1 0.2
v -1 0.2 0.2
v -0.9 0.1 0.2
v -0.9 0.2 0.2
v -0.8 0.1 0.2
v -0.8 0.2 0.2
v -1.4 0.1 0
v -1.4 0.2 0
v -1.3 0.1 0
v -1.3 0.2 0
v -1.3 0.1 -0.1
v -1.3 0.2 -0.1
v -1.2 0.1 -0.1
v -1.2 0.2 -0.1
v -0.6 0.2 -0.2
v -0.6 0.3 -0.2
v -0.5 0.2 -0.2
v -0.4 0.2 -0.2
v -0.3 0.2 -0.2
v -0.3 0.3 -0.2
v -0.2 0.2 -0.2
v -0.2 0.3 -0.2
v -0.1 0.2 -0.2
v -0.1 0.3 -0.2
v 0 0.2 -0.2
v 0.1 0.2 -0.2
v 0.1 0.3 -0.2
v -1.2 0.1 -0.3
v -1.2 0.2 -0.3
v -1.1 0 -0.3
v -1.1 0.1 -0.3
v -1.1 0.2 -0.3
v -1.1 0.3 -0.3
v -1 0 -0.3
v -1 0.1 -0.3
v -1 0.2 -0.3
v -1 0.3 -0.3
v -0.9 0 -0.3
v -0.9 0.1 -0.3
v -0.9 0.2 -0.3
v -0.9 0.3 -0.3
v -0.8 0.1 -0.3
v -0.8 0.2 -0.3
v -0.6 0 -0.3
v -0.6 0.1 -0.3
v -0.6 0.2 -0.3
v -0.6 0.3 -0.3
v -0.5 0.1 -0.3
v -0.5 0.2 -0.3
v -0.4 0.1 -0.3
v -0.4 0.2 -0.3
v -0.2 0.1 -0.3
v -0.2 0.2 -0.3
v -0.1 0.1 -0.3
v -0.1 0.2 -0.3
v 0 0.1 -0.3
v 0 0.2 -0.3
v 0.2 0.1 -0.3
v 0.2 0.2 -0.3
v 0.3 0.1 -0.3
v 0.3 0.2 -0.3
v 0.4 0.1 -0.3
v 0.4 0.2 -0.3
v -1.4 0.1 -0.4
v -1.4 0.2 -0.4
v -1.3 0.1 -0.4
v -1.3 0.2 -0.4
v -1.2 0.1 -0.4
v -1.2 0.2 -0.4
v -1.1 0.1 -0.4
v -1.1 0.2 -0.4
v -1 0.1 -0.4
v -1 0.2 -0.4
v -0.8 0.1 -0.4
v -0.8 0.2 -0.4
v -0.5 0.1 -0.4
v -0.5 0.2 -0.4
v 0.2 0.1 -0.4
v 0.2 0.2 -0.4
v 0.3 0.1 -0.4
v 0.3 0.2 -0.4
v -1.5 0 0.6
v -1.2 0 0.6
v -1.5 0 0.5
v -1.4 0 0.5
v -1.3 0 0.5
v -1.2 0 0.5
v -1.5 0 0.4
v -1.4 0 0.4
v -1.4 0 0.2
v -1.3 0 0.2
v -1.1 0 0
v -1 0 0
v -0.6 0 0
v -0.9 0 -0.1
v -0.8 0 -0.1
v -0.6 0 -0.1
v -1.1 0 -0.2
v -1 0 -0.2
v -0.9 0 -0.2
v -0.8 0 -0.2
v -0.6 0 -0.2
v -1.1 0 -0.3
v -1 0 -0.3
v -0.9 0 -0.3
v -0.6 0 -0.3
v -1.6 0.1 0.6
v -1.5 0.1 0.6
v -1.2 0.1 0.6
v -1.1 0.1 0.6
v -1.6 0.1 0.5
v -1.5 0.1 0.5
v -1.3 0.1 0.5
v -1.2 0.1 0.5
v -1.1 0.1 0.5
v -1.6 0.1 0.4
v -1.5 0.1 0.4
v -1.4 0.1 0.4
v -1 0.1 0.3
v -0.9 0.1 0.3
v -0.8 0.1 0.3
v -0.7 0.1 0.3
v -1.5 0.1 0.2
v -1.4 0.1 0.2
v -1.3 0.1 0.2
v -1.2 0.1 0.2
v -1.1 0.1 0.2
v -1 0.1 0.2
v -0.9 0.1 0.2
v -0.8 0.1 0.2
v -0.7 0.1 0.2
v -1.3 0.1 0.1
v -1.2 0.1 0.1
v -1.1 0.1 0.1
v -1 0.1 0.1
v -0.9 0.1 0.1
v -0.8 0.1 0.1
v -0.7 0.1 0.1
v -0.6 0.1 0.1
v -1.4 0.1 0
v -1.3 0.1 0
v -1.2 0.1 0
v -1.1 0.1 0
v -1 0.1 0
v -0.9 0.1 0
v -0.6 0.1 0
v -0.5 0.1 0
v -1.3 0.1 -0.1
v -1.2 0.1 -0.1
v -1.1 0.1 -0.1
v -0.6 0.1 -0.1
v -0.5 0.1 -0.1
v 0 0.1 -0.1
v 0.1 0.1 -0.1
v -1.3 0.1 -0.2
v -1.2 0.1 -0.2
v -1.1 0.1 -0.2
v -0.6 0.1 -0.2
v -0.5 0.1 -0.2
v -0.4 0.1 -0.2
v -0.2 0.1 -0.2
v -0.1 0.1 -0.2
v 0 0.1 -0.2
v 0.1 0.1 -0.2
v 0.2 0.1 -0.2
v 0.4 0.1 -0.2
v -1.4 0.1 -0.3
v -1.3 0.1 -0.3
v -1.2 0.1 -0.3
v -1.1 0.1 -0.3
v -1 0.1 -0.3
v -0.9 0.1 -0.3
v -0.8 0.1 -0.3
v -0.6 0.1 -0.3
v -0.5 0.1 -0.3
v -0.4 0.1 -0.3
v -0.2 0.1 -0.3
v -0.1 0.1 -0.3
v 0 0.1 -0.3
v 0.2 0.1 -0.3
v 0.3 0.1 -0.3
v 0.4 0.1 -0.3
v -1.4 0.1 -0.4
v -1.3 0.1 -0.4
v -1.2 0.1 -0.4
v -1.1 0.1 -0.4
v -1 0.1 -0.4
v -0.8 0.1 -0.4
v -0.5 0.1 -0.4
v 0.2 0.1 -0.4
v 0.3 0.1 -0.4
v -0.5 0.2 -0.1
v -0.3 0.2 -0.1
v -0.2 0.2 -0.1
v -0.1 0.2 -0.1
v 0 0.2 -0.1
v -0.5 0.2 -0.2
v -0.4 0.2 -0.2
v -0.3 0.2 -0.2
v -0.2 0.2 -0.2
v -0.1 0.2 -0.2
v 0 0.2 -0.2
v -1.6 0.2 0.6
v -1.5 0.2 0.6
v -1.2 0.2 0.6
v -1.1 0.2 0.6
v -1.6 0.2 0.5
v -1.5 0.2 0.5
v -1.3 0.2 0.5
v -1.2 0.2 0.5
v -1.1 0.2 0.5
v -1.6 0.2 0.4
v -1.5 0.2 0.4
v -1.4 0.2 0.4
v -1 0.2 0.3
v -0.9 0.2 0.3
v -0.8 0.2 0.3
v -0.7 0.2 0.3
v -1.5 0.2 0.2
v -1.4 0.2 0.2
v -1.3 0.2 0.2
v -1.2 0.2 0.2
v -1.1 0.2 0.2
v -1 0.2 0.2
v -0.9 0.2 0.2
v -0.8 0.2 0.2
v -0.7 0.2 0.2
v -1.3 0.2 0.1
v -1.2 0.2 0.1
v -1.1 0.2 0.1
v -1 0.2 0.1
v -0.9 0.2 0.1
v -0.8 0.2 0.1
v -0.7 0.2 0.1
v -0.6 0.2 0.1
v -1.4 0.2 0
v -1.3 0.2 0
v -1.2 0.2 0
v -1.1 0.2 0
v -1 0.2 0
v -0.9 0.2 0
v -0.6 0.2 0
v -0.5 0.2 0
v -1.3 0.2 -0.1
v -1.2 0.2 -0.1
v -1.1 0.2 -0.1
v -0.6 0.2 -0.1
v -0.5 0.2 -0.1
v -1.3 0.2 -0.2
v -1.2 0.2 -0.2
v -1.1 0.2 -0.2
v -0.6 0.2 -0.2
v -0.5 0.2 -0.2
v -0.4 0.2 -0.2
v -0.3 0.2 -0.2
v -0.2 0.2 -0.2
v -0.1 0.2 -0.2
v 0 0.2 -0.2
v 0.1 0.2 -0.2
v 0.2 0.2 -0.2
v 0.4 0.2 -0.2
v -1.4 0.2 -0.3
v -1.3 0.2 -0.3
v -1.2 0.2 -0.3
v -1.1 0.2 -0.3
v -1 0.2 -0.3
v -0.9 0.2 -0.3
v -0.8 0.2 -0.3
v -0.6 0.2 -0.3
v -0.5 0.2 -0.3
v -0.4 0.2 -0.3
v -0.2 0.2 -0.3
v -0.1 0.2 -0.3
v 0 0.2 -0.3
v 0.2 0.2 -0.3
v 0.3 0.2 -0.3
v 0.4 0.2 -0.3
v -1.4 0.2 -0.4
v -1.3 0.2 -0.4
v -1.2 0.2 -0.4
v -1.1 0.2 -0.4
v -1 0.2 -0.4
v -0.8 0.2 -0.4
v -0.5 0.2 -0.4
v 0.2 0.2 -0.4
v 0.3 0.2 -0.4
v -1.5 0.3 0.6
v -1.2 0.3 0.6
v -1.5 0.3 0.5
v -1.4 0.3 0.5
v -1.3 0.3 0.5
v -1.2 0.3 0.5
v -1.5 0.3 0.4
v -1.4 0.3 0.4
v -1.4 0.3 0.2
v -1.3 0.3 0.2
v -1.1 0.3 0
v -1 0.3 0
v -0.6 0.3 0
v -0.9 0.3 -0.1
v -0.8 0.3 -0.1
v -0.6 0.3 -0.1
v -0.3 0.3 -0.1
v -0.2 0.3 -0.1
v -0.1 0.3 -0.1
v 0.1 0.3 -0.1
v -1.1 0.3 -0.2
v -1 0.3 -0.2
v -0.9 0.3 -0.2
v -0.8 0.3 -0.2
v -0.6 0.3 -0.2
v -0.3 0.3 -0.2
v -0.2 0.3 -0.2
v -0.1 0.3 -0.2
v 0.1 0.3 -0.2
v -1.1 0.3 -0.3
v -1 0.3 -0.3
v -0.9 0.3 -0.3
v -0.6 0.3 -0.3

# faces
f 4/9/1 2/9/1 1/9/1
f 5/8/1 3/8/1 2/8/1
f 5/9/1 2/9/1 4/9/1
f 6/8/1 3/8/1 5/8/1
f 10/9/1 8/9/1 7/9/1
f 11/8/1 9/8/1 8/8/1
f 11/9/1 8/9/1 10/9/1
f 12/8/1 9/8/1 11/8/1
f 16/8/1 13/8/1 12/8/1
f 17/8/1 13/8/1 16/8/1
f 18/9/1 15/9/1 14/9/1
f 19/8/1 16/8/1 15/8/1
f 19/9/1 15/9/1 18/9/1
f 20/8/1 16/8/1 19/8/1
f 23/9/1 22/9/1 21/9/1
f 24/9/1 22/9/1 23/9/1
f 29/8/1 25/8/1 24/8/1
f 30/8/1 25/8/1 29/8/1
f 31/6/1 27/6/1 26/6/1
f 32/6/1 27/6/1 31/6/1
f 33/9/1 29/9/1 28/9/1
f 34/9/1 29/9/1 33/9/1
f 39/6/1 36/6/1 35/6/1
f 40/6/1 36/6/1 39/6/1
f 41/1/1 38/1/1 37/1/1
f 42/1/1 38/1/1 41/1/1
f 45/6/1 44/6/1 43/6/1
f 46/6/1 44/6/1 45/6/1
f 50/6/1 48/6/1 47/6/1
f 51/6/1 48/6/1 50/6/1
f 52/4/1 49/4/1 48/4/1
f 52/6/1 48/6/1 51/6/1
f 53/4/1 49/4/1 52/4/1
f 58/6/1 54/6/1 53/6/1
f 59/6/1 54/6/1 58/6/1
f 60/6/1 57/6/1 56/6/1
f 60/6/1 56/6/1 55/6/1
f 61/4/1 58/4/1 57/4/1
f 61/6/1 57/6/1 60/6/1
f 62/4/1 58/4/1 61/4/1
f 65/5/1 64/5/1 63/5/1
f 66/5/1 64/5/1 65/5/1
f 69/7/1 68/7/1 67/7/1
f 70/7/1 68/7/1 69/7/1
f 73/1/1 72/1/1 71/1/1
f 74/1/1 72/1/1 73/1/1
f 77/6/1 76/6/1 75/6/1
f 78/6/1 76/6/1 77/6/1
f 79/9/2 80/9/2 81/9/2
f 81/9/2 80/9/2 82/9/2
f 83/9/2 84/9/2 85/9/2
f 85/9/2 84/9/2 86/9/2
f 87/9/2 88/9/2 89/9/2
f 89/9/2 88/9/2 90/9/2
f 90/9/2 91/9/2 95/9/2
f 95/9/2 91/9/2 96/9/2
f 92/4/2 93/4/2 97/4/2
f 97/4/2 93/4/2 98/4/2
f 94/9/2 95/9/2 99/9/2
f 99/9/2 95/9/2 100/9/2
f 101/9/2 102/9/2 103/9/2
f 103/9/2 102/9/2 104/9/2
f 105/7/2 106/7/2 107/7/2
f 107/7/2 106/7/2 108/7/2
f 109/1/2 110/1/2 112/1/2
f 110/7/2 111/7/2 113/7/2
f 112/1/2 110/1/2 113/1/2
f 113/7/2 111/7/2 114/7/2
f 115/1/2 116/1/2 120/1/2
f 116/2/2 117/2/2 121/2/2
f 120/1/2 116/1/2 121/1/2
f 117/1/2 118/1/2 122/1/2
f 121/2/2 117/2/2 122/2/2
f 122/1/2 118/1/2 123/1/2
f 119/1/2 120/1/2 124/1/2
f 124/1/2 120/1/2 125/1/2
f 125/1/2 126/1/2 129/1/2
f 129/1/2 126/1/2 130/1/2
f 127/1/2 128/1/2 131/1/2
f 131/1/2 128/1/2 132/1/2
f 133/2/2 134/2/2 138/2/2
f 134/3/2 135/3/2 139/3/2
f 138/2/2 134/2/2 139/2/2
f 139/3/2 135/3/2 140/3/2
f 136/1/2 137/1/2 141/1/2
f 141/1/2 137/1/2 142/1/2
f 143/1/2 144/1/2 145/1/2
f 145/1/2 144/1/2 146/1/2
f 145/7/2 146/7/2 147/7/2
f 147/7/2 146/7/2 148/7/2
f 149/6/2 150/6/2 151/6/2
f 151/6/2 150/6/2 152/6/2
f 153/1/2 154/1/2 155/1/2
f 155/1/2 154/1/2 156/1/2
f 160/9/3 158/9/3 157/9/3
f 161/9/3 158/9/3 160/9/3
f 163/9/3 160/9/3 159/9/3
f 164/3/3 161/3/3 160/3/3
f 164/9/3 160/9/3 163/9/3
f 165/9/3 162/9/3 161/9/3
f 165/3/3 161/3/3 164/3/3
f 166/9/3 162/9/3 165/9/3
f 167/9/3 165/9/3 164/9/3
f 168/9/3 165/9/3 167/9/3
f 171/5/3 170/5/3 169/5/3
f 172/5/3 170/5/3 171/5/3
f 173/7/3 172/7/3 171/7/3
f 174/7/3 172/7/3 173/7/3
f 175/1/3 174/1/3 173/1/3
f 176/1/3 174/1/3 175/1/3
f 179/9/3 178/9/3 177/9/3
f 180/9/3 178/9/3 179/9/3
f 181/7/3 180/7/3 179/7/3
f 182/7/3 180/7/3 181/7/3
f 185/7/3 184/7/3 183/7/3
f 186/7/3 184/7/3 185/7/3
f 187/1/3 186/1/3 185/1/3
f 188/1/3 186/1/3 187/1/3
f 191/1/3 190/1/3 189/1/3
f 192/1/3 190/1/3 191/1/3
f 197/6/3 194/6/3 193/6/3
f 198/6/3 194/6/3 197/6/3
f 199/6/3 196/6/3 195/6/3
f 200/6/3 196/6/3 199/6/3
f 201/1/3 198/1/3 197/1/3
f 202/1/3 200/1/3 199/1/3
f 203/1/3 201/1/3 197/1/3
f 204/1/3 201/1/3 203/1/3
f 205/1/3 200/1/3 202/1/3
f 206/1/3 200/1/3 205/1/3
f 207/2/3 205/2/3 204/2/3
f 208/2/3 205/2/3 207/2/3
f 211/1/3 210/1/3 209/1/3
f 212/1/3 210/1/3 211/1/3
f 213/1/3 210/1/3 212/1/3
f 214/4/3 213/4/3 212/4/3
f 215/4/3 213/4/3 214/4/3
f 216/6/3 215/6/3 214/6/3
f 217/6/3 215/6/3 216/6/3
f 219/7/3 217/7/3 216/7/3
f 220/1/3 219/1/3 218/1/3
f 221/7/3 217/7/3 219/7/3
f 221/1/3 219/1/3 220/1/3
f 222/7/3 217/7/3 221/7/3
f 225/1/3 224/1/3 223/1/3
f 226/1/3 224/1/3 225/1/3
f 229/1/3 228/1/3 227/1/3
f 230/1/3 228/1/3 229/1/3
f 231/7/3 230/7/3 229/7/3
f 232/7/3 231/7/3 229/7/3
f 233/7/3 231/7/3 232/7/3
f 234/4/3 233/4/3 232/4/3
f 235/4/3 233/4/3 234/4/3
f 236/6/3 235/6/3 234/6/3
f 237/6/3 235/6/3 236/6/3
f 240/7/3 239/7/3 238/7/3
f 241/7/3 239/7/3 240/7/3
f 242/1/3 241/1/3 240/1/3
f 243/1/3 241/1/3 242/1/3
f 246/6/3 245/6/3 244/6/3
f 247/6/3 245/6/3 246/6/3
f 248/9/4 249/9/4 252/9/4
f 252/9/4 249/9/4 253/9/4
f 250/9/4 251/9/4 254/9/4
f 254/9/4 251/9/4 255/9/4
f 253/9/4 254/9/4 256/9/4
f 256/9/4 254/9/4 257/9/4
f 258/8/4 259/8/4 261/8/4
f 261/8/4 259/8/4 262/8/4
f 260/8/4 261/8/4 264/8/4
f 264/8/4 261/8/4 265/8/4
f 262/8/4 263/8/4 266/8/4
f 266/8/4 263/8/4 267/8/4
f 268/8/4 269/8/4 271/8/4
f 271/8/4 269/8/4 272/8/4
f 270/9/4 271/9/4 274/9/4
f 274/9/4 271/9/4 275/9/4
f 272/9/4 273/9/4 276/9/4
f 276/9/4 273/9/4 277/9/4
f 278/5/4 279/5/4 280/5/4
f 280/5/4 279/5/4 281/5/4
f 280/7/4 281/7/4 282/7/4
f 282/7/4 281/7/4 283/7/4
f 284/8/4 285/8/4 286/8/4
f 286/8/4 285/8/4 287/8/4
f 288/6/4 289/6/4 290/6/4
f 290/6/4 289/6/4 291/6/4
f 292/1/4 293/1/4 294/1/4
f 294/1/4 293/1/4 295/1/4
f 295/1/4 293/1/4 296/1/4
f 296/1/4 293/1/4 297/1/4
f 296/4/4 297/4/4 298/4/4
f 298/4/4 297/4/4 299/4/4
f 298/6/4 299/6/4 300/6/4
f 300/6/4 299/6/4 301/6/4
f 300/7/4 301/7/4 302/7/4
f 302/7/4 301/7/4 303/7/4
f 303/7/4 301/7/4 304/7/4
f 305/6/4 306/6/4 308/6/4
f 308/6/4 306/6/4 309/6/4
f 307/4/4 308/4/4 311/4/4
f 311/4/4 308/4/4 312/4/4
f 309/4/4 310/4/4 313/4/4
f 313/4/4 310/4/4 314/4/4
f 311/7/4 312/7/4 315/7/4
f 315/7/4 312/7/4 316/7/4
f 313/7/4 314/7/4 317/7/4
f 317/7/4 314/7/4 318/7/4
f 315/1/4 316/1/4 319/1/4
f 317/1/4 318/1/4 320/1/4
f 315/1/4 319/1/4 321/1/4
f 321/1/4 319/1/4 322/1/4
f 320/1/4 318/1/4 323/1/4
f 323/1/4 318/1/4 324/1/4
f 325/1/4 326/1/4 327/1/4
f 327/1/4 326/1/4 328/1/4
f 327/7/4 328/7/4 329/7/4
f 329/7/4 328/7/4 330/7/4
f 329/4/4 330/4/4 331/4/4
f 331/4/4 330/4/4 332/4/4
f 331/6/4 332/6/4 333/6/4
f 333/6/4 332/6/4 334/6/4
f 333/7/4 334/7/4 335/7/4
f 335/7/4 334/7/4 336/7/4
f 337/1/4 338/1/4 339/1/4
f 339/1/4 338/1/4 340/1/4
f 341/6/4 342/6/4 343/6/4
f 343/6/4 342/6/4 344/6/4
f 343/4/4 344/4/4 345/4/4
f 345/4/4 344/4/4 346/4/4
f 347/6/4 348/6/4 349/6/4
f 349/6/4 348/6/4 350/6/4
f 349/7/4 350/7/4 351/7/4
f 351/7/4 350/7/4 352/7/4
f 351/1/4 352/1/4 353/1/4
f 353/1/4 352/1/4 354/1/4
f 355/6/4 356/6/4 357/6/4
f 357/6/4 356/6/4 358/6/4
f 361/9/5 360/9/5 359/9/5
f 362/9/5 360/9/5 361/9/5
f 363/9/5 360/9/5 362/9/5
f 364/9/5 360/9/5 363/9/5
f 365/8/5 362/8/5 361/8/5
f 366/9/5 363/9/5 362/9/5
f 366/8/5 362/8/5 365/8/5
f 367/9/5 363/9/5 366/9/5
f 368/9/5 363/9/5 367/9/5
f 372/1/5 371/1/5 370/1/5
f 373/1/5 371/1/5 372/1/5
f 374/1/5 371/1/5 373/1/5
f 375/6/5 370/6/5 369/6/5
f 376/1/5 372/1/5 370/1/5
f 376/6/5 370/6/5 375/6/5
f 377/3/5 373/3/5 372/3/5
f 377/1/5 372/1/5 376/1/5
f 378/2/5 374/2/5 373/2/5
f 378/3/5 373/3/5 377/3/5
f 379/2/5 374/2/5 378/2/5
f 380/4/5 376/4/5 375/4/5
f 381/7/5 377/7/5 376/7/5
f 381/4/5 376/4/5 380/4/5
f 382/1/5 378/1/5 377/1/5
f 382/7/5 377/7/5 381/7/5
f 382/1/5 379/1/5 378/1/5
f 383/1/5 379/1/5 382/1/5
f 388/9/5 385/9/5 384/9/5
f 389/9/5 385/9/5 388/9/5
f 391/9/5 387/9/5 386/9/5
f 392/9/5 387/9/5 391/9/5
f 393/8/5 389/8/5 388/8/5
f 394/8/5 389/8/5 393/8/5
f 400/8/5 395/8/5 394/8/5
f 401/8/5 395/8/5 400/8/5
f 402/9/5 391/9/5 390/9/5
f 403/9/5 391/9/5 402/9/5
f 405/5/5 397/5/5 396/5/5
f 406/7/5 398/7/5 397/7/5
f 406/5/5 397/5/5 405/5/5
f 407/1/5 399/1/5 398/1/5
f 407/7/5 398/7/5 406/7/5
f 408/1/5 399/1/5 407/1/5
f 409/9/5 404/9/5 403/9/5
f 409/8/5 402/8/5 401/8/5
f 409/9/5 403/9/5 402/9/5
f 410/9/5 404/9/5 409/9/5
f 411/7/5 405/7/5 404/7/5
f 411/9/5 404/9/5 410/9/5
f 412/7/5 405/7/5 411/7/5
f 414/7/5 408/7/5 407/7/5
f 415/7/5 408/7/5 414/7/5
f 417/8/5 410/8/5 409/8/5
f 417/8/5 409/8/5 401/8/5
f 418/8/5 410/8/5 417/8/5
f 419/9/5 411/9/5 410/9/5
f 419/8/5 410/8/5 418/8/5
f 420/1/5 412/1/5 411/1/5
f 420/9/5 411/9/5 419/9/5
f 421/7/5 413/7/5 412/7/5
f 421/1/5 412/1/5 420/1/5
f 422/1/5 415/1/5 414/1/5
f 422/7/5 413/7/5 421/7/5
f 422/1/5 416/1/5 415/1/5
f 422/1/5 414/1/5 413/1/5
f 423/1/5 416/1/5 422/1/5
f 425/6/5 419/6/5 418/6/5
f 426/7/5 420/7/5 419/7/5
f 426/6/5 419/6/5 425/6/5
f 427/7/5 420/7/5 426/7/5
f 428/2/5 424/2/5 423/2/5
f 429/2/5 424/2/5 428/2/5
f 433/6/5 427/6/5 426/6/5
f 434/6/5 427/6/5 433/6/5
f 435/3/5 429/3/5 428/3/5
f 436/3/5 429/3/5 435/3/5
f 440/1/5 431/1/5 430/1/5
f 441/1/5 431/1/5 440/1/5
f 445/1/5 433/1/5 432/1/5
f 446/6/5 434/6/5 433/6/5
f 446/1/5 433/1/5 445/1/5
f 447/6/5 434/6/5 446/6/5
f 451/2/5 436/2/5 435/2/5
f 452/1/5 437/1/5 436/1/5
f 452/2/5 436/2/5 451/2/5
f 453/7/5 438/7/5 437/7/5
f 453/1/5 437/1/5 452/1/5
f 454/4/5 439/4/5 438/4/5
f 454/7/5 438/7/5 453/7/5
f 455/6/5 440/6/5 439/6/5
f 455/4/5 439/4/5 454/4/5
f 456/7/5 441/7/5 440/7/5
f 456/6/5 440/6/5 455/6/5
f 456/7/5 442/7/5 441/7/5
f 457/1/5 443/1/5 442/1/5
f 457/7/5 442/7/5 456/7/5
f 458/1/5 443/1/5 457/1/5
f 459/1/5 443/1/5 458/1/5
f 460/6/5 445/6/5 444/6/5
f 461/4/5 446/4/5 445/4/5
f 461/6/5 445/6/5 460/6/5
f 462/4/5 446/4/5 461/4/5
f 463/6/5 448/6/5 447/6/5
f 464/7/5 449/7/5 448/7/5
f 464/6/5 448/6/5 463/6/5
f 464/7/5 450/7/5 449/7/5
f 465/1/5 451/1/5 450/1/5
f 465/7/5 450/7/5 464/7/5
f 465/1/5 452/1/5 451/1/5
f 466/1/5 452/1/5 465/1/5
f 467/6/5 458/6/5 457/6/5
f 468/6/5 458/6/5 467/6/5
f 474/1/5 470/1/5 469/1/5
f 475/1/5 470/1/5 474/1/5
f 476/4/5 471/4/5 470/4/5
f 476/1/5 470/1/5 475/1/5
f 477/6/5 472/6/5 471/6/5
f 477/4/5 471/4/5 476/4/5
f 478/7/5 473/7/5 472/7/5
f 478/6/5 472/6/5 477/6/5
f 479/7/5 473/7/5 478/7/5
f 480/9/6 481/9/6 484/9/6
f 484/9/6 481/9/6 485/9/6
f 482/9/6 483/9/6 487/9/6
f 487/9/6 483/9/6 488/9/6
f 484/8/6 485/8/6 489/8/6
f 489/8/6 485/8/6 490/8/6
f 490/8/6 491/8/6 496/8/6
f 496/8/6 491/8/6 497/8/6
f 486/9/6 487/9/6 498/9/6
f 498/9/6 487/9/6 499/9/6
f 492/5/6 493/5/6 501/5/6
f 493/7/6 494/7/6 502/7/6
f 501/5/6 493/5/6 502/5/6
f 494/1/6 495/1/6 503/1/6
f 502/7/6 494/7/6 503/7/6
f 503/1/6 495/1/6 504/1/6
f 499/9/6 500/9/6 505/9/6
f 497/8/6 498/8/6 505/8/6
f 498/9/6 499/9/6 505/9/6
f 505/9/6 500/9/6 506/9/6
f 500/7/6 501/7/6 507/7/6
f 506/9/6 500/9/6 507/9/6
f 507/7/6 501/7/6 508/7/6
f 503/7/6 504/7/6 510/7/6
f 510/7/6 504/7/6 511/7/6
f 505/8/6 506/8/6 513/8/6
f 497/8/6 505/8/6 513/8/6
f 513/8/6 506/8/6 514/8/6
f 506/9/6 507/9/6 515/9/6
f 514/8/6 506/8/6 515/8/6
f 507/1/6 508/1/6 516/1/6
f 515/9/6 507/9/6 516/9/6
f 508/7/6 509/7/6 517/7/6
f 516/1/6 508/1/6 517/1/6
f 510/1/6 511/1/6 518/1/6
f 517/7/6 509/7/6 518/7/6
f 511/1/6 512/1/6 518/1/6
f 509/1/6 510/1/6 518/1/6
f 518/1/6 512/1/6 519/1/6
f 514/6/6 515/6/6 521/6/6
f 515/7/6 516/7/6 522/7/6
f 521/6/6 515/6/6 522/6/6
f 522/7/6 516/7/6 523/7/6
f 519/2/6 520/2/6 524/2/6
f 524/2/6 520/2/6 525/2/6
f 522/6/6 523/6/6 527/6/6
f 527/6/6 523/6/6 528/6/6
f 526/1/6 527/1/6 540/1/6
f 527/6/6 528/6/6 541/6/6
f 540/1/6 527/1/6 541/1/6
f 541/6/6 528/6/6 542/6/6
f 529/2/6 530/2/6 546/2/6
f 530/1/6 531/1/6 547/1/6
f 546/2/6 530/2/6 547/2/6
f 531/7/6 532/7/6 548/7/6
f 547/1/6 531/1/6 548/1/6
f 532/7/6 533/7/6 548/7/6
f 533/4/6 534/4/6 549/4/6
f 548/7/6 533/7/6 549/7/6
f 534/6/6 535/6/6 550/6/6
f 549/4/6 534/4/6 550/4/6
f 535/7/6 536/7/6 551/7/6
f 550/6/6 535/6/6 551/6/6
f 536/7/6 537/7/6 551/7/6
f 537/1/6 538/1/6 552/1/6
f 551/7/6 537/7/6 552/7/6
f 552/1/6 538/1/6 553/1/6
f 553/1/6 538/1/6 554/1/6
f 539/6/6 540/6/6 555/6/6
f 540/4/6 541/4/6 556/4/6
f 555/6/6 540/6/6 556/6/6
f 556/4/6 541/4/6 557/4/6
f 542/6/6 543/6/6 558/6/6
f 544/7/6 545/7/6 559/7/6
f 558/6/6 543/6/6 559/6/6
f 543/7/6 544/7/6 559/7/6
f 545/1/6 546/1/6 560/1/6
f 559/7/6 545/7/6 560/7/6
f 546/1/6 547/1/6 560/1/6
f 560/1/6 547/1/6 561/1/6
f 552/6/6 553/6/6 562/6/6
f 562/6/6 553/6/6 563/6/6
f 564/9/6 565/9/6 566/9/6
f 566/9/6 565/9/6 567/9/6
f 567/9/6 565/9/6 568/9/6
f 568/9/6 565/9/6 569/9/6
f 566/8/6 567/8/6 570/8/6
f 567/9/6 568/9/6 571/9/6
f 570/8/6 567/8/6 571/8/6
f 571/9/6 568/9/6 572/9/6
f 572/9/6 568/9/6 573/9/6
f 575/1/6 576/1/6 577/1/6
f 577/1/6 576/1/6 578/1/6
f 578/1/6 576/1/6 579/1/6
f 574/6/6 575/6/6 584/6/6
f 575/1/6 577/1/6 585/1/6
f 584/6/6 575/6/6 585/6/6
f 577/3/6 578/3/6 586/3/6
f 585/1/6 577/1/6 586/1/6
f 578/2/6 579/2/6 587/2/6
f 586/3/6 578/3/6 587/3/6
f 579/1/6 580/1/6 588/1/6
f 587/2/6 579/2/6 588/2/6
f 580/4/6 581/4/6 589/4/6
f 588/1/6 580/1/6 589/1/6
f 581/6/6 582/6/6 590/6/6
f 589/4/6 581/4/6 590/4/6
f 582/7/6 583/7/6 591/7/6
f 590/6/6 582/6/6 591/6/6
f 591/7/6 583/7/6 592/7/6
f 584/4/6 585/4/6 593/4/6
f 585/7/6 586/7/6 594/7/6
f 593/4/6 585/4/6 594/4/6
f 587/1/6 588/1/6 595/1/6
f 594/7/6 586/7/6 595/7/6
f 586/1/6 587/1/6 595/1/6
f 595/1/6 588/1/6 596/1/6
