# MagicaVoxel @ Ephtracy

# group
o PNMGB0

# material
#mtllib P90-0-PNMGB0.mtl
#usemtl palette

# normals
vn 0 0 -1
vn 0 0 1
vn 1 0 0
vn -1 0 0
vn 0 1 0
vn 0 -1 0

# texcoords
vt 0.291016 0.5
vt 0.294922 0.5
vt 0.298828 0.5
vt 0.302734 0.5
vt 0.431641 0.5
vt 0.642578 0.5
vt 0.646484 0.5
vt 0.650391 0.5

# verts
v -0.7 0.4 -0.3
v -0.8 0.4 -0.3
v -0.9 0.4 -0.3
v -1 0.4 -0.3
v -1.1 0.4 -0.3
v 1.2 0.3 -0.3
v 1.1 0.3 -0.3
v -0.4 0.3 -0.3
v -0.6 0.3 -0.3
v -0.7 0.3 -0.3
v -0.8 0.3 -0.3
v -0.9 0.3 -0.3
v -1 0.3 -0.3
v 1.1 0.2 -0.3
v -0.4 0.2 -0.3
v -0.6 0.2 -0.3
v -0.7 0.2 -0.3
v 1.1 0.1 -0.3
v -0.7 0.1 -0.3
v -1 0.1 -0.3
v 1.2 0 -0.3
v 1.1 0 -0.3
v -0.7 0 -0.3
v -1 0 -0.3
v -1.1 0 -0.3
v -0.6 0.4 -0.2
v -0.7 0.4 -0.2
v -1.1 0.4 -0.2
v -1.2 0.4 -0.2
v -0.6 0.3 -0.2
v -0.7 0.3 -0.2
v -1.1 0 -0.2
v -1.2 0 -0.2
v -0.6 0.4 0.1
v -0.7 0.4 0.1
v -1.1 0.4 0.1
v -1.2 0.4 0.1
v -0.6 0.3 0.1
v -0.7 0.3 0.1
v -1.1 0 0.1
v -1.2 0 0.1
v -0.7 0.4 0.2
v -0.8 0.4 0.2
v -0.9 0.4 0.2
v -1 0.4 0.2
v -1.1 0.4 0.2
v 1.2 0.3 0.2
v 1.1 0.3 0.2
v -0.4 0.3 0.2
v -0.6 0.3 0.2
v -0.7 0.3 0.2
v -0.8 0.3 0.2
v -0.9 0.3 0.2
v -1 0.3 0.2
v 1.1 0.2 0.2
v -0.4 0.2 0.2
v -0.6 0.2 0.2
v -0.7 0.2 0.2
v 1.1 0.1 0.2
v -0.7 0.1 0.2
v -1 0.1 0.2
v 1.2 0 0.2
v 1.1 0 0.2
v -0.7 0 0.2
v -1 0 0.2
v -1.1 0 0.2
v 1.2 0.3 -0.3
v 1.2 0 -0.3
v 1.2 0.3 -0.2
v 1.2 0 -0.2
v 1.2 0.3 0.1
v 1.2 0 0.1
v 1.2 0.3 0.2
v 1.2 0 0.2
v -0.6 0.4 -0.2
v -0.6 0.3 -0.2
v -0.6 0.4 -0.1
v -0.6 0.3 -0.1
v -0.6 0.4 0
v -0.6 0.3 0
v -0.6 0.4 0.1
v -0.6 0.3 0.1
v -0.7 0.4 -0.3
v -0.7 0.3 -0.3
v -0.7 0.4 -0.2
v -0.7 0.3 -0.2
v -0.7 0.4 0.1
v -0.7 0.3 0.1
v -0.7 0.4 0.2
v -0.7 0.3 0.2
v -1.1 0.4 -0.3
v -1.1 0 -0.3
v -1.1 0.4 -0.2
v -1.1 0 -0.2
v -1.1 0.4 0.1
v -1.1 0 0.1
v -1.1 0.4 0.2
v -1.1 0 0.2
v -1.2 0.4 -0.2
v -1.2 0 -0.2
v -1.2 0.2 -0.1
v -1.2 0 -0.1
v -1.2 0.2 0
v -1.2 0 0
v -1.2 0.4 0.1
v -1.2 0 0.1
v -0.6 0.4 -0.2
v -0.6 0.4 -0.1
v -0.6 0.4 0
v -0.6 0.4 0.1
v -0.7 0.4 -0.3
v -0.7 0.4 -0.2
v -0.7 0.4 -0.1
v -0.7 0.4 0
v -0.7 0.4 0.1
v -0.7 0.4 0.2
v -0.8 0.4 -0.3
v -0.8 0.4 -0.2
v -0.8 0.4 0.1
v -0.8 0.4 0.2
v -0.9 0.4 -0.3
v -0.9 0.4 -0.2
v -0.9 0.4 0.1
v -0.9 0.4 0.2
v -1 0.4 -0.3
v -1 0.4 -0.2
v -1 0.4 -0.1
v -1 0.4 0
v -1 0.4 0.1
v -1 0.4 0.2
v -1.1 0.4 -0.3
v -1.1 0.4 -0.2
v -1.1 0.4 0.1
v -1.1 0.4 0.2
v -1.2 0.4 -0.2
v -1.2 0.4 0.1
v 1.2 0.3 -0.3
v 1.2 0.3 -0.2
v 1.2 0.3 0.1
v 1.2 0.3 0.2
v 1.1 0.3 -0.3
v 1.1 0.3 -0.2
v 1.1 0.3 0.1
v 1.1 0.3 0.2
v 1 0.3 -0.1
v 1 0.3 0
v 0.9 0.3 -0.2
v 0.9 0.3 -0.1
v 0.9 0.3 0
v 0.9 0.3 0.1
v -0.4 0.3 -0.3
v -0.4 0.3 -0.2
v -0.4 0.3 0.1
v -0.4 0.3 0.2
v -0.5 0.3 -0.2
v -0.5 0.3 -0.1
v -0.5 0.3 0
v -0.5 0.3 0.1
v -0.6 0.3 -0.3
v -0.6 0.3 -0.2
v -0.6 0.3 -0.1
v -0.6 0.3 0
v -0.6 0.3 0.1
v -0.6 0.3 0.2
v -0.7 0.3 -0.3
v -0.7 0.3 -0.2
v -0.7 0.3 0.1
v -0.7 0.3 0.2
v 1.2 0 -0.3
v 1.2 0 -0.2
v 1.2 0 0.1
v 1.2 0 0.2
v 1.1 0 -0.3
v 1.1 0 -0.2
v 1.1 0 0.1
v 1.1 0 0.2
v 1 0 -0.1
v 1 0 0
v 0.9 0 -0.2
v 0.9 0 -0.1
v 0.9 0 0
v 0.9 0 0.1
v -0.5 0 -0.2
v -0.5 0 -0.1
v -0.5 0 0
v -0.5 0 0.1
v -0.6 0 -0.2
v -0.6 0 -0.1
v -0.6 0 0
v -0.6 0 0.1
v -0.7 0 -0.3
v -0.7 0 -0.2
v -0.7 0 -0.1
v -0.7 0 0
v -0.7 0 0.1
v -0.7 0 0.2
v -1 0 -0.3
v -1 0 -0.2
v -1 0 -0.1
v -1 0 0
v -1 0 0.1
v -1 0 0.2
v -1.1 0 -0.3
v -1.1 0 -0.2
v -1.1 0 -0.1
v -1.1 0 0
v -1.1 0 0.1
v -1.1 0 0.2
v -1.2 0 -0.2
v -1.2 0 -0.1
v -1.2 0 0
v -1.2 0 0.1

# faces
f 10/2/1 2/2/1 1/2/1
f 11/1/1 3/1/1 2/1/1
f 11/2/1 2/2/1 10/2/1
f 12/2/1 4/2/1 3/2/1
f 12/1/1 3/1/1 11/1/1
f 13/4/1 5/4/1 4/4/1
f 13/2/1 4/2/1 12/2/1
f 14/3/1 7/3/1 6/3/1
f 14/6/1 8/6/1 7/6/1
f 15/7/1 9/7/1 8/7/1
f 15/6/1 8/6/1 14/6/1
f 16/4/1 10/4/1 9/4/1
f 16/7/1 9/7/1 15/7/1
f 17/8/1 11/8/1 10/8/1
f 17/4/1 10/4/1 16/4/1
f 17/8/1 12/8/1 11/8/1
f 17/8/1 13/8/1 12/8/1
f 18/3/1 14/3/1 6/3/1
f 18/8/1 15/8/1 14/8/1
f 18/8/1 17/8/1 16/8/1
f 18/8/1 16/8/1 15/8/1
f 19/8/1 13/8/1 17/8/1
f 19/8/1 17/8/1 18/8/1
f 20/4/1 5/4/1 13/4/1
f 20/8/1 13/8/1 19/8/1
f 21/3/1 18/3/1 6/3/1
f 22/6/1 19/6/1 18/6/1
f 22/3/1 18/3/1 21/3/1
f 23/7/1 20/7/1 19/7/1
f 23/6/1 19/6/1 22/6/1
f 24/4/1 5/4/1 20/4/1
f 24/7/1 20/7/1 23/7/1
f 25/4/1 5/4/1 24/4/1
f 30/2/1 27/2/1 26/2/1
f 31/2/1 27/2/1 30/2/1
f 32/3/1 29/3/1 28/3/1
f 33/3/1 29/3/1 32/3/1
f 34/2/2 35/2/2 38/2/2
f 38/2/2 35/2/2 39/2/2
f 36/3/2 37/3/2 40/3/2
f 40/3/2 37/3/2 41/3/2
f 42/2/2 43/2/2 51/2/2
f 43/1/2 44/1/2 52/1/2
f 51/2/2 43/2/2 52/2/2
f 44/2/2 45/2/2 53/2/2
f 52/1/2 44/1/2 53/1/2
f 45/4/2 46/4/2 54/4/2
f 53/2/2 45/2/2 54/2/2
f 47/3/2 48/3/2 55/3/2
f 48/6/2 49/6/2 55/6/2
f 49/7/2 50/7/2 56/7/2
f 55/6/2 49/6/2 56/6/2
f 50/4/2 51/4/2 57/4/2
f 56/7/2 50/7/2 57/7/2
f 51/8/2 52/8/2 58/8/2
f 57/4/2 51/4/2 58/4/2
f 52/8/2 53/8/2 58/8/2
f 53/8/2 54/8/2 58/8/2
f 47/3/2 55/3/2 59/3/2
f 55/8/2 56/8/2 59/8/2
f 57/8/2 58/8/2 59/8/2
f 56/8/2 57/8/2 59/8/2
f 58/8/2 54/8/2 60/8/2
f 59/8/2 58/8/2 60/8/2
f 54/4/2 46/4/2 61/4/2
f 60/8/2 54/8/2 61/8/2
f 47/3/2 59/3/2 62/3/2
f 59/6/2 60/6/2 63/6/2
f 62/3/2 59/3/2 63/3/2
f 60/7/2 61/7/2 64/7/2
f 63/6/2 60/6/2 64/6/2
f 61/4/2 46/4/2 65/4/2
f 64/7/2 61/7/2 65/7/2
f 65/4/2 46/4/2 66/4/2
f 69/3/3 68/3/3 67/3/3
f 70/3/3 68/3/3 69/3/3
f 71/7/3 70/7/3 69/7/3
f 72/7/3 70/7/3 71/7/3
f 73/3/3 72/3/3 71/3/3
f 74/3/3 72/3/3 73/3/3
f 77/2/3 76/2/3 75/2/3
f 78/2/3 76/2/3 77/2/3
f 79/1/3 78/1/3 77/1/3
f 80/1/3 78/1/3 79/1/3
f 81/2/3 80/2/3 79/2/3
f 82/2/3 80/2/3 81/2/3
f 85/2/3 84/2/3 83/2/3
f 86/2/3 84/2/3 85/2/3
f 89/2/3 88/2/3 87/2/3
f 90/2/3 88/2/3 89/2/3
f 91/4/4 92/4/4 93/4/4
f 93/4/4 92/4/4 94/4/4
f 95/4/4 96/4/4 97/4/4
f 97/4/4 96/4/4 98/4/4
f 99/3/4 100/3/4 101/3/4
f 101/3/4 100/3/4 102/3/4
f 99/3/4 101/3/4 103/3/4
f 101/8/4 102/8/4 103/8/4
f 103/8/4 102/8/4 104/8/4
f 99/3/4 103/3/4 105/3/4
f 103/3/4 104/3/4 105/3/4
f 105/3/4 104/3/4 106/3/4
f 112/2/5 108/2/5 107/2/5
f 113/1/5 109/1/5 108/1/5
f 113/2/5 108/2/5 112/2/5
f 114/2/5 110/2/5 109/2/5
f 114/1/5 109/1/5 113/1/5
f 115/2/5 110/2/5 114/2/5
f 117/2/5 112/2/5 111/2/5
f 118/8/5 113/8/5 112/8/5
f 118/2/5 112/2/5 117/2/5
f 119/2/5 116/2/5 115/2/5
f 119/8/5 115/8/5 114/8/5
f 120/2/5 116/2/5 119/2/5
f 121/1/5 118/1/5 117/1/5
f 122/8/5 113/8/5 118/8/5
f 122/1/5 118/1/5 121/1/5
f 123/8/5 119/8/5 114/8/5
f 123/1/5 120/1/5 119/1/5
f 124/1/5 120/1/5 123/1/5
f 125/2/5 122/2/5 121/2/5
f 126/8/5 113/8/5 122/8/5
f 126/2/5 122/2/5 125/2/5
f 127/5/5 114/5/5 113/5/5
f 127/8/5 113/8/5 126/8/5
f 128/8/5 123/8/5 114/8/5
f 128/5/5 114/5/5 127/5/5
f 129/2/5 124/2/5 123/2/5
f 129/8/5 123/8/5 128/8/5
f 130/2/5 124/2/5 129/2/5
f 131/4/5 126/4/5 125/4/5
f 132/2/5 127/2/5 126/2/5
f 132/4/5 126/4/5 131/4/5
f 132/2/5 128/2/5 127/2/5
f 132/2/5 129/2/5 128/2/5
f 133/4/5 130/4/5 129/4/5
f 133/2/5 129/2/5 132/2/5
f 134/4/5 130/4/5 133/4/5
f 135/3/5 133/3/5 132/3/5
f 136/3/5 133/3/5 135/3/5
f 141/3/5 138/3/5 137/3/5
f 142/7/5 139/7/5 138/7/5
f 142/3/5 138/3/5 141/3/5
f 143/3/5 140/3/5 139/3/5
f 143/7/5 139/7/5 142/7/5
f 144/3/5 140/3/5 143/3/5
f 145/7/5 143/7/5 142/7/5
f 146/7/5 143/7/5 145/7/5
f 147/6/5 142/6/5 141/6/5
f 147/7/5 145/7/5 142/7/5
f 148/6/5 146/6/5 145/6/5
f 148/7/5 145/7/5 147/7/5
f 149/7/5 143/7/5 146/7/5
f 149/6/5 146/6/5 148/6/5
f 150/6/5 144/6/5 143/6/5
f 150/7/5 143/7/5 149/7/5
f 151/6/5 147/6/5 141/6/5
f 152/2/5 148/2/5 147/2/5
f 152/6/5 147/6/5 151/6/5
f 153/6/5 144/6/5 150/6/5
f 153/2/5 150/2/5 149/2/5
f 154/6/5 144/6/5 153/6/5
f 155/2/5 148/2/5 152/2/5
f 155/7/5 152/7/5 151/7/5
f 156/6/5 149/6/5 148/6/5
f 156/2/5 148/2/5 155/2/5
f 157/2/5 153/2/5 149/2/5
f 157/6/5 149/6/5 156/6/5
f 158/7/5 154/7/5 153/7/5
f 158/2/5 153/2/5 157/2/5
f 159/7/5 155/7/5 151/7/5
f 160/3/5 157/3/5 156/3/5
f 160/7/5 155/7/5 159/7/5
f 160/3/5 156/3/5 155/3/5
f 160/3/5 158/3/5 157/3/5
f 161/3/5 158/3/5 160/3/5
f 162/3/5 158/3/5 161/3/5
f 163/7/5 154/7/5 158/7/5
f 163/3/5 158/3/5 162/3/5
f 164/7/5 154/7/5 163/7/5
f 165/4/5 160/4/5 159/4/5
f 166/4/5 160/4/5 165/4/5
f 167/4/5 164/4/5 163/4/5
f 168/4/5 164/4/5 167/4/5
f 169/3/6 170/3/6 173/3/6
f 170/7/6 171/7/6 174/7/6
f 173/3/6 170/3/6 174/3/6
f 171/3/6 172/3/6 175/3/6
f 174/7/6 171/7/6 175/7/6
f 175/3/6 172/3/6 176/3/6
f 174/7/6 175/7/6 177/7/6
f 177/7/6 175/7/6 178/7/6
f 173/6/6 174/6/6 179/6/6
f 174/7/6 177/7/6 179/7/6
f 177/6/6 178/6/6 180/6/6
f 179/7/6 177/7/6 180/7/6
f 178/7/6 175/7/6 181/7/6
f 180/6/6 178/6/6 181/6/6
f 175/6/6 176/6/6 182/6/6
f 181/7/6 175/7/6 182/7/6
f 179/2/6 180/2/6 183/2/6
f 173/6/6 179/6/6 183/6/6
f 180/6/6 181/6/6 184/6/6
f 183/2/6 180/2/6 184/2/6
f 181/2/6 182/2/6 185/2/6
f 184/6/6 181/6/6 185/6/6
f 182/6/6 176/6/6 186/6/6
f 185/2/6 182/2/6 186/2/6
f 173/6/6 183/6/6 187/6/6
f 183/3/6 184/3/6 187/3/6
f 184/6/6 185/6/6 188/6/6
f 187/3/6 184/3/6 188/3/6
f 185/3/6 186/3/6 189/3/6
f 188/6/6 185/6/6 189/6/6
f 186/6/6 176/6/6 190/6/6
f 189/3/6 186/3/6 190/3/6
f 173/6/6 187/6/6 191/6/6
f 187/2/6 188/2/6 192/2/6
f 191/6/6 187/6/6 192/6/6
f 188/6/6 189/6/6 193/6/6
f 192/2/6 188/2/6 193/2/6
f 189/2/6 190/2/6 194/2/6
f 193/6/6 189/6/6 194/6/6
f 190/6/6 176/6/6 195/6/6
f 194/2/6 190/2/6 195/2/6
f 195/6/6 176/6/6 196/6/6
f 191/7/6 192/7/6 197/7/6
f 192/8/6 193/8/6 198/8/6
f 197/7/6 192/7/6 198/7/6
f 193/6/6 194/6/6 199/6/6
f 198/8/6 193/8/6 199/8/6
f 194/8/6 195/8/6 200/8/6
f 199/6/6 194/6/6 200/6/6
f 195/7/6 196/7/6 201/7/6
f 200/8/6 195/8/6 201/8/6
f 201/7/6 196/7/6 202/7/6
f 197/4/6 198/4/6 203/4/6
f 198/7/6 199/7/6 204/7/6
f 203/4/6 198/4/6 204/4/6
f 199/8/6 200/8/6 205/8/6
f 204/7/6 199/7/6 205/7/6
f 200/7/6 201/7/6 206/7/6
f 205/8/6 200/8/6 206/8/6
f 201/4/6 202/4/6 207/4/6
f 206/7/6 201/7/6 207/7/6
f 207/4/6 202/4/6 208/4/6
f 204/3/6 205/3/6 209/3/6
f 205/8/6 206/8/6 210/8/6
f 209/3/6 205/3/6 210/3/6
f 206/3/6 207/3/6 211/3/6
f 210/8/6 206/8/6 211/8/6
f 211/3/6 207/3/6 212/3/6
