# MagicaVoxel @ Ephtracy

# group
o OMG5A0

# material
#mtllib zm94-2-OMG5A0.mtl
#usemtl palette

# normals
vn -1 0 0
vn 1 0 0
vn 0 0 1
vn 0 0 -1
vn 0 -1 0
vn 0 1 0

# texcoords
vt 0.00195313 0.5
vt 0.0136719 0.5
vt 0.0214844 0.5
vt 0.0253906 0.5
vt 0.0292969 0.5
vt 0.0332031 0.5
vt 0.392578 0.5
vt 0.396484 0.5
vt 0.400391 0.5
vt 0.404297 0.5
vt 0.408203 0.5
vt 0.416016 0.5
vt 0.419922 0.5
vt 0.423828 0.5
vt 0.427734 0.5
vt 0.431641 0.5
vt 0.435547 0.5
vt 0.634766 0.5
vt 0.638672 0.5
vt 0.646484 0.5
vt 0.947266 0.5

# verts
v -0.5 0.1 0.4
v -0.5 0.1 0.3
v -0.5 0.1 0.2
v -0.5 0.1 0
v -0.5 0.1 -0.1
v -0.5 0.1 -0.2
v -0.5 0.1 -0.3
v -0.5 0.1 -0.4
v -0.5 0.1 -0.5
v -0.5 0.4 0.4
v -0.5 0.4 0.3
v -0.5 0.4 0.2
v -0.5 0.4 0
v -0.5 0.4 -0.1
v -0.5 0.4 -0.2
v -0.5 0.4 -0.3
v -0.5 0.4 -0.4
v -0.5 0.4 -0.5
v 0.5 0.1 -0.3
v 0.5 0.1 -0.5
v 0.5 0.2 -0.3
v 0.5 0.2 -0.4
v 0.5 0.2 -0.5
v 0.5 0.3 -0.3
v 0.5 0.3 -0.4
v 0.5 0.3 -0.5
v 0.5 0.4 -0.3
v 0.5 0.4 -0.5
v -0.4 0.1 -0.4
v -0.4 0.1 -0.5
v -0.4 0.2 -0.4
v -0.4 0.2 -0.5
v -0.4 0.3 -0.4
v -0.4 0.3 -0.5
v -0.4 0.4 -0.4
v -0.4 0.4 -0.5
v -0.1 0.1 0.4
v -0.1 0.1 0.3
v -0.1 0.4 0.4
v -0.1 0.4 0.3
v 0.3 0.1 0.3
v 0.3 0.1 0.2
v 0.3 0.1 -0.3
v 0.3 0.1 -0.4
v 0.3 0.2 -0.3
v 0.3 0.2 -0.4
v 0.3 0.3 -0.3
v 0.3 0.3 -0.4
v 0.3 0.4 0.3
v 0.3 0.4 0.2
v 0.3 0.4 -0.3
v 0.3 0.4 -0.4
v 0.6 0.1 0.2
v 0.6 0.1 0.1
v 0.6 0.1 0
v 0.6 0.1 -0.2
v 0.6 0.1 -0.3
v 0.6 0.1 -0.5
v 0.6 0.4 0.2
v 0.6 0.4 0.1
v 0.6 0.4 0
v 0.6 0.4 -0.2
v 0.6 0.4 -0.3
v 0.6 0.4 -0.5
v -0.5 0.1 0.4
v -0.5 0.4 0.4
v -0.4 0.1 0.4
v -0.4 0.4 0.4
v -0.3 0.1 0.4
v -0.3 0.4 0.4
v -0.2 0.1 0.4
v -0.2 0.4 0.4
v -0.1 0.1 0.4
v -0.1 0.4 0.4
v -0.1 0.1 0.3
v -0.1 0.4 0.3
v 0.3 0.1 0.3
v 0.3 0.4 0.3
v 0.3 0.1 0.2
v 0.3 0.4 0.2
v 0.4 0.1 0.2
v 0.4 0.4 0.2
v 0.5 0.1 0.2
v 0.5 0.4 0.2
v 0.6 0.1 0.2
v 0.6 0.4 0.2
v 0.3 0.1 -0.3
v 0.3 0.2 -0.3
v 0.3 0.3 -0.3
v 0.3 0.4 -0.3
v 0.4 0.1 -0.3
v 0.4 0.2 -0.3
v 0.4 0.3 -0.3
v 0.4 0.4 -0.3
v 0.5 0.1 -0.3
v 0.5 0.2 -0.3
v 0.5 0.3 -0.3
v 0.5 0.4 -0.3
v -0.4 0.1 -0.4
v -0.4 0.2 -0.4
v -0.4 0.3 -0.4
v -0.4 0.4 -0.4
v -0.3 0.1 -0.4
v -0.3 0.2 -0.4
v -0.3 0.3 -0.4
v -0.3 0.4 -0.4
v -0.2 0.1 -0.4
v -0.2 0.2 -0.4
v -0.2 0.3 -0.4
v -0.2 0.4 -0.4
v -0.1 0.1 -0.4
v -0.1 0.2 -0.4
v -0.1 0.3 -0.4
v -0.1 0.4 -0.4
v 0 0.1 -0.4
v 0 0.2 -0.4
v 0 0.3 -0.4
v 0 0.4 -0.4
v 0.1 0.1 -0.4
v 0.1 0.2 -0.4
v 0.1 0.3 -0.4
v 0.1 0.4 -0.4
v 0.2 0.1 -0.4
v 0.2 0.2 -0.4
v 0.2 0.3 -0.4
v 0.2 0.4 -0.4
v 0.3 0.1 -0.4
v 0.3 0.2 -0.4
v 0.3 0.3 -0.4
v 0.3 0.4 -0.4
v -0.5 0.1 -0.5
v -0.5 0.4 -0.5
v -0.4 0.1 -0.5
v -0.4 0.2 -0.5
v -0.4 0.3 -0.5
v -0.4 0.4 -0.5
v -0.3 0.2 -0.5
v -0.3 0.3 -0.5
v 0 0.2 -0.5
v 0 0.3 -0.5
v 0.3 0.2 -0.5
v 0.3 0.3 -0.5
v 0.5 0.1 -0.5
v 0.5 0.2 -0.5
v 0.5 0.3 -0.5
v 0.5 0.4 -0.5
v 0.6 0.1 -0.5
v 0.6 0.4 -0.5
v -0.5 0.1 0.4
v -0.4 0.1 0.4
v -0.3 0.1 0.4
v -0.2 0.1 0.4
v -0.1 0.1 0.4
v -0.5 0.1 0.3
v -0.4 0.1 0.3
v -0.3 0.1 0.3
v -0.2 0.1 0.3
v -0.1 0.1 0.3
v 0.3 0.1 0.3
v -0.5 0.1 0.2
v -0.4 0.1 0.2
v -0.3 0.1 0.2
v -0.2 0.1 0.2
v -0.1 0.1 0.2
v 0.3 0.1 0.2
v 0.4 0.1 0.2
v 0.5 0.1 0.2
v 0.6 0.1 0.2
v -0.3 0.1 0.1
v -0.2 0.1 0.1
v 0.3 0.1 0.1
v 0.4 0.1 0.1
v 0.5 0.1 0.1
v 0.6 0.1 0.1
v -0.5 0.1 0
v -0.4 0.1 0
v -0.3 0.1 0
v -0.2 0.1 0
v 0.3 0.1 0
v 0.4 0.1 0
v 0.5 0.1 0
v 0.6 0.1 0
v -0.5 0.1 -0.1
v -0.4 0.1 -0.1
v -0.3 0.1 -0.1
v -0.2 0.1 -0.1
v 0.1 0.1 -0.1
v 0.3 0.1 -0.1
v 0.4 0.1 -0.1
v 0.5 0.1 -0.1
v -0.5 0.1 -0.2
v -0.4 0.1 -0.2
v -0.3 0.1 -0.2
v -0.2 0.1 -0.2
v -0.1 0.1 -0.2
v 0.1 0.1 -0.2
v 0.2 0.1 -0.2
v 0.3 0.1 -0.2
v 0.4 0.1 -0.2
v 0.5 0.1 -0.2
v 0.6 0.1 -0.2
v -0.5 0.1 -0.3
v -0.4 0.1 -0.3
v -0.3 0.1 -0.3
v -0.2 0.1 -0.3
v -0.1 0.1 -0.3
v 0 0.1 -0.3
v 0.1 0.1 -0.3
v 0.2 0.1 -0.3
v 0.3 0.1 -0.3
v 0.4 0.1 -0.3
v 0.5 0.1 -0.3
v 0.6 0.1 -0.3
v -0.5 0.1 -0.4
v -0.4 0.1 -0.4
v -0.3 0.1 -0.4
v -0.2 0.1 -0.4
v -0.1 0.1 -0.4
v 0 0.1 -0.4
v 0.1 0.1 -0.4
v 0.2 0.1 -0.4
v 0.3 0.1 -0.4
v -0.5 0.1 -0.5
v -0.4 0.1 -0.5
v 0.5 0.1 -0.5
v 0.6 0.1 -0.5
v 0.3 0.2 -0.3
v 0.4 0.2 -0.3
v 0.5 0.2 -0.3
v -0.4 0.2 -0.4
v -0.3 0.2 -0.4
v -0.2 0.2 -0.4
v -0.1 0.2 -0.4
v 0 0.2 -0.4
v 0.1 0.2 -0.4
v 0.2 0.2 -0.4
v 0.3 0.2 -0.4
v 0.4 0.2 -0.4
v 0.5 0.2 -0.4
v -0.4 0.2 -0.5
v -0.3 0.2 -0.5
v 0 0.2 -0.5
v 0.3 0.2 -0.5
v 0.5 0.2 -0.5
v 0.3 0.3 -0.3
v 0.4 0.3 -0.3
v 0.5 0.3 -0.3
v -0.4 0.3 -0.4
v -0.3 0.3 -0.4
v -0.2 0.3 -0.4
v -0.1 0.3 -0.4
v 0 0.3 -0.4
v 0.1 0.3 -0.4
v 0.2 0.3 -0.4
v 0.3 0.3 -0.4
v 0.4 0.3 -0.4
v 0.5 0.3 -0.4
v -0.4 0.3 -0.5
v -0.3 0.3 -0.5
v 0 0.3 -0.5
v 0.3 0.3 -0.5
v 0.5 0.3 -0.5
v -0.5 0.4 0.4
v -0.4 0.4 0.4
v -0.3 0.4 0.4
v -0.2 0.4 0.4
v -0.1 0.4 0.4
v -0.5 0.4 0.3
v -0.4 0.4 0.3
v -0.3 0.4 0.3
v -0.2 0.4 0.3
v -0.1 0.4 0.3
v 0.3 0.4 0.3
v -0.5 0.4 0.2
v -0.4 0.4 0.2
v -0.3 0.4 0.2
v -0.2 0.4 0.2
v -0.1 0.4 0.2
v 0.3 0.4 0.2
v 0.4 0.4 0.2
v 0.5 0.4 0.2
v 0.6 0.4 0.2
v -0.3 0.4 0.1
v -0.2 0.4 0.1
v 0.3 0.4 0.1
v 0.4 0.4 0.1
v 0.5 0.4 0.1
v 0.6 0.4 0.1
v -0.5 0.4 0
v -0.4 0.4 0
v -0.3 0.4 0
v -0.2 0.4 0
v 0.3 0.4 0
v 0.4 0.4 0
v 0.5 0.4 0
v 0.6 0.4 0
v -0.5 0.4 -0.1
v -0.4 0.4 -0.1
v -0.3 0.4 -0.1
v -0.2 0.4 -0.1
v 0.1 0.4 -0.1
v 0.3 0.4 -0.1
v 0.4 0.4 -0.1
v 0.5 0.4 -0.1
v -0.5 0.4 -0.2
v -0.4 0.4 -0.2
v -0.3 0.4 -0.2
v -0.2 0.4 -0.2
v -0.1 0.4 -0.2
v 0.1 0.4 -0.2
v 0.2 0.4 -0.2
v 0.3 0.4 -0.2
v 0.4 0.4 -0.2
v 0.5 0.4 -0.2
v 0.6 0.4 -0.2
v -0.5 0.4 -0.3
v -0.4 0.4 -0.3
v -0.3 0.4 -0.3
v -0.2 0.4 -0.3
v -0.1 0.4 -0.3
v 0 0.4 -0.3
v 0.1 0.4 -0.3
v 0.2 0.4 -0.3
v 0.3 0.4 -0.3
v 0.4 0.4 -0.3
v 0.5 0.4 -0.3
v 0.6 0.4 -0.3
v -0.5 0.4 -0.4
v -0.4 0.4 -0.4
v -0.3 0.4 -0.4
v -0.2 0.4 -0.4
v -0.1 0.4 -0.4
v 0 0.4 -0.4
v 0.1 0.4 -0.4
v 0.2 0.4 -0.4
v 0.3 0.4 -0.4
v -0.5 0.4 -0.5
v -0.4 0.4 -0.5
v 0.5 0.4 -0.5
v 0.6 0.4 -0.5

# faces
f 10/4/1 2/4/1 1/4/1
f 11/3/1 3/3/1 2/3/1
f 11/4/1 2/4/1 10/4/1
f 12/17/1 4/17/1 3/17/1
f 12/3/1 3/3/1 11/3/1
f 13/15/1 5/15/1 4/15/1
f 13/17/1 4/17/1 12/17/1
f 14/13/1 6/13/1 5/13/1
f 14/15/1 5/15/1 13/15/1
f 15/2/1 7/2/1 6/2/1
f 15/13/1 6/13/1 14/13/1
f 16/7/1 8/7/1 7/7/1
f 16/2/1 7/2/1 15/2/1
f 17/10/1 9/10/1 8/10/1
f 17/7/1 8/7/1 16/7/1
f 18/10/1 9/10/1 17/10/1
f 21/8/1 20/8/1 19/8/1
f 22/8/1 20/8/1 21/8/1
f 23/8/1 20/8/1 22/8/1
f 27/8/1 25/8/1 24/8/1
f 27/8/1 26/8/1 25/8/1
f 28/8/1 26/8/1 27/8/1
f 29/10/2 30/10/2 31/10/2
f 31/10/2 30/10/2 32/10/2
f 33/10/2 34/10/2 35/10/2
f 35/10/2 34/10/2 36/10/2
f 37/16/2 38/16/2 39/16/2
f 39/16/2 38/16/2 40/16/2
f 43/13/2 44/13/2 45/13/2
f 45/13/2 44/13/2 46/13/2
f 41/3/2 42/3/2 49/3/2
f 49/3/2 42/3/2 50/3/2
f 47/13/2 48/13/2 51/13/2
f 51/13/2 48/13/2 52/13/2
f 53/6/2 54/6/2 59/6/2
f 54/5/2 55/5/2 60/5/2
f 59/6/2 54/6/2 60/6/2
f 55/3/2 56/3/2 61/3/2
f 60/5/2 55/5/2 61/5/2
f 56/14/2 57/14/2 62/14/2
f 61/3/2 56/3/2 62/3/2
f 57/8/2 58/8/2 63/8/2
f 62/14/2 57/14/2 63/14/2
f 63/8/2 58/8/2 64/8/2
f 67/4/3 66/4/3 65/4/3
f 68/4/3 66/4/3 67/4/3
f 69/5/3 68/5/3 67/5/3
f 70/5/3 68/5/3 69/5/3
f 71/17/3 70/17/3 69/17/3
f 72/17/3 70/17/3 71/17/3
f 73/16/3 72/16/3 71/16/3
f 74/16/3 72/16/3 73/16/3
f 77/3/3 76/3/3 75/3/3
f 78/3/3 76/3/3 77/3/3
f 81/4/3 80/4/3 79/4/3
f 82/4/3 80/4/3 81/4/3
f 83/1/3 82/1/3 81/1/3
f 84/1/3 82/1/3 83/1/3
f 85/6/3 84/6/3 83/6/3
f 86/6/3 84/6/3 85/6/3
f 87/12/4 88/12/4 91/12/4
f 91/12/4 88/12/4 92/12/4
f 89/12/4 90/12/4 93/12/4
f 93/12/4 90/12/4 94/12/4
f 91/5/4 92/5/4 95/5/4
f 95/5/4 92/5/4 96/5/4
f 93/5/4 94/5/4 97/5/4
f 97/5/4 94/5/4 98/5/4
f 99/3/4 100/3/4 103/3/4
f 103/3/4 100/3/4 104/3/4
f 101/3/4 102/3/4 105/3/4
f 105/3/4 102/3/4 106/3/4
f 103/12/4 104/12/4 107/12/4
f 107/12/4 104/12/4 108/12/4
f 105/12/4 106/12/4 109/12/4
f 109/12/4 106/12/4 110/12/4
f 107/10/4 108/10/4 111/10/4
f 111/10/4 108/10/4 112/10/4
f 109/10/4 110/10/4 113/10/4
f 113/10/4 110/10/4 114/10/4
f 111/9/4 112/9/4 115/9/4
f 115/9/4 112/9/4 116/9/4
f 113/9/4 114/9/4 117/9/4
f 117/9/4 114/9/4 118/9/4
f 115/10/4 116/10/4 119/10/4
f 119/10/4 116/10/4 120/10/4
f 117/10/4 118/10/4 121/10/4
f 121/10/4 118/10/4 122/10/4
f 119/11/4 120/11/4 123/11/4
f 123/11/4 120/11/4 124/11/4
f 121/11/4 122/11/4 125/11/4
f 125/11/4 122/11/4 126/11/4
f 123/13/4 124/13/4 127/13/4
f 127/13/4 124/13/4 128/13/4
f 125/13/4 126/13/4 129/13/4
f 129/13/4 126/13/4 130/13/4
f 131/10/4 132/10/4 133/10/4
f 133/10/4 132/10/4 134/10/4
f 134/10/4 132/10/4 135/10/4
f 135/10/4 132/10/4 136/10/4
f 134/19/4 135/19/4 137/19/4
f 137/19/4 135/19/4 138/19/4
f 137/18/4 138/18/4 139/18/4
f 139/18/4 138/18/4 140/18/4
f 139/21/4 140/21/4 141/21/4
f 141/21/4 140/21/4 142/21/4
f 141/20/4 142/20/4 144/20/4
f 144/20/4 142/20/4 145/20/4
f 144/8/4 145/8/4 147/8/4
f 145/8/4 146/8/4 147/8/4
f 143/8/4 144/8/4 147/8/4
f 147/8/4 146/8/4 148/8/4
f 154/4/5 150/4/5 149/4/5
f 155/5/5 151/5/5 150/5/5
f 155/4/5 150/4/5 154/4/5
f 156/17/5 152/17/5 151/17/5
f 156/5/5 151/5/5 155/5/5
f 157/16/5 153/16/5 152/16/5
f 157/17/5 152/17/5 156/17/5
f 158/16/5 153/16/5 157/16/5
f 160/3/5 155/3/5 154/3/5
f 161/5/5 156/5/5 155/5/5
f 161/3/5 155/3/5 160/3/5
f 162/4/5 157/4/5 156/4/5
f 162/5/5 156/5/5 161/5/5
f 162/4/5 158/4/5 157/4/5
f 163/4/5 158/4/5 162/4/5
f 164/3/5 159/3/5 158/3/5
f 164/4/5 158/4/5 163/4/5
f 165/3/5 159/3/5 164/3/5
f 169/3/5 163/3/5 162/3/5
f 169/5/5 162/5/5 161/5/5
f 170/4/5 164/4/5 163/4/5
f 170/3/5 163/3/5 169/3/5
f 170/4/5 165/4/5 164/4/5
f 170/4/5 166/4/5 165/4/5
f 171/4/5 166/4/5 170/4/5
f 172/1/5 167/1/5 166/1/5
f 172/4/5 166/4/5 171/4/5
f 173/6/5 168/6/5 167/6/5
f 173/1/5 167/1/5 172/1/5
f 174/6/5 168/6/5 173/6/5
f 175/17/5 161/17/5 160/17/5
f 176/5/5 169/5/5 161/5/5
f 176/17/5 161/17/5 175/17/5
f 177/15/5 170/15/5 169/15/5
f 177/5/5 169/5/5 176/5/5
f 178/4/5 171/4/5 170/4/5
f 178/15/5 170/15/5 177/15/5
f 179/3/5 172/3/5 171/3/5
f 179/4/5 171/4/5 178/4/5
f 180/1/5 173/1/5 172/1/5
f 180/3/5 172/3/5 179/3/5
f 181/5/5 174/5/5 173/5/5
f 181/1/5 173/1/5 180/1/5
f 182/5/5 174/5/5 181/5/5
f 183/15/5 176/15/5 175/15/5
f 184/5/5 177/5/5 176/5/5
f 184/15/5 176/15/5 183/15/5
f 185/12/5 178/12/5 177/12/5
f 185/5/5 177/5/5 184/5/5
f 186/4/5 179/4/5 178/4/5
f 186/12/5 178/12/5 185/12/5
f 187/4/5 179/4/5 186/4/5
f 188/17/5 180/17/5 179/17/5
f 188/4/5 179/4/5 187/4/5
f 189/1/5 181/1/5 180/1/5
f 189/17/5 180/17/5 188/17/5
f 190/3/5 182/3/5 181/3/5
f 190/1/5 181/1/5 189/1/5
f 191/13/5 184/13/5 183/13/5
f 192/4/5 185/4/5 184/4/5
f 192/13/5 184/13/5 191/13/5
f 193/8/5 186/8/5 185/8/5
f 193/4/5 185/4/5 192/4/5
f 194/3/5 187/3/5 186/3/5
f 194/8/5 186/8/5 193/8/5
f 195/3/5 187/3/5 194/3/5
f 196/4/5 188/4/5 187/4/5
f 196/3/5 187/3/5 195/3/5
f 197/4/5 188/4/5 196/4/5
f 198/15/5 189/15/5 188/15/5
f 198/4/5 188/4/5 197/4/5
f 199/6/5 190/6/5 189/6/5
f 199/15/5 189/15/5 198/15/5
f 200/3/5 182/3/5 190/3/5
f 200/6/5 190/6/5 199/6/5
f 201/3/5 182/3/5 200/3/5
f 202/2/5 192/2/5 191/2/5
f 203/4/5 193/4/5 192/4/5
f 203/2/5 192/2/5 202/2/5
f 204/7/5 194/7/5 193/7/5
f 204/4/5 193/4/5 203/4/5
f 205/15/5 195/15/5 194/15/5
f 205/7/5 194/7/5 204/7/5
f 206/16/5 196/16/5 195/16/5
f 206/15/5 195/15/5 205/15/5
f 207/16/5 196/16/5 206/16/5
f 208/17/5 197/17/5 196/17/5
f 208/16/5 196/16/5 207/16/5
f 209/3/5 198/3/5 197/3/5
f 209/17/5 197/17/5 208/17/5
f 210/12/5 199/12/5 198/12/5
f 210/3/5 198/3/5 209/3/5
f 211/5/5 200/5/5 199/5/5
f 211/12/5 199/12/5 210/12/5
f 212/14/5 201/14/5 200/14/5
f 212/5/5 200/5/5 211/5/5
f 213/14/5 201/14/5 212/14/5
f 214/7/5 203/7/5 202/7/5
f 215/3/5 204/3/5 203/3/5
f 215/7/5 203/7/5 214/7/5
f 216/12/5 205/12/5 204/12/5
f 216/3/5 204/3/5 215/3/5
f 217/10/5 206/10/5 205/10/5
f 217/12/5 205/12/5 216/12/5
f 218/9/5 207/9/5 206/9/5
f 218/10/5 206/10/5 217/10/5
f 219/10/5 208/10/5 207/10/5
f 219/9/5 207/9/5 218/9/5
f 220/11/5 209/11/5 208/11/5
f 220/10/5 208/10/5 219/10/5
f 221/13/5 210/13/5 209/13/5
f 221/11/5 209/11/5 220/11/5
f 222/13/5 210/13/5 221/13/5
f 223/10/5 215/10/5 214/10/5
f 224/10/5 215/10/5 223/10/5
f 225/8/5 213/8/5 212/8/5
f 226/8/5 213/8/5 225/8/5
f 237/17/5 228/17/5 227/17/5
f 238/4/5 229/4/5 228/4/5
f 238/17/5 228/17/5 237/17/5
f 239/4/5 229/4/5 238/4/5
f 240/19/5 231/19/5 230/19/5
f 241/18/5 232/18/5 231/18/5
f 241/19/5 231/19/5 240/19/5
f 241/18/5 233/18/5 232/18/5
f 241/18/5 234/18/5 233/18/5
f 242/21/5 236/21/5 235/21/5
f 242/18/5 234/18/5 241/18/5
f 242/21/5 237/21/5 236/21/5
f 242/21/5 235/21/5 234/21/5
f 243/20/5 239/20/5 238/20/5
f 243/21/5 237/21/5 242/21/5
f 243/20/5 238/20/5 237/20/5
f 244/20/5 239/20/5 243/20/5
f 245/17/6 246/17/6 255/17/6
f 246/4/6 247/4/6 256/4/6
f 255/17/6 246/17/6 256/17/6
f 256/4/6 247/4/6 257/4/6
f 248/19/6 249/19/6 258/19/6
f 249/18/6 250/18/6 259/18/6
f 258/19/6 249/19/6 259/19/6
f 250/18/6 251/18/6 259/18/6
f 251/18/6 252/18/6 259/18/6
f 253/21/6 254/21/6 260/21/6
f 259/18/6 252/18/6 260/18/6
f 254/21/6 255/21/6 260/21/6
f 252/21/6 253/21/6 260/21/6
f 256/20/6 257/20/6 261/20/6
f 260/21/6 255/21/6 261/21/6
f 255/20/6 256/20/6 261/20/6
f 261/20/6 257/20/6 262/20/6
f 263/4/6 264/4/6 268/4/6
f 264/5/6 265/5/6 269/5/6
f 268/4/6 264/4/6 269/4/6
f 265/17/6 266/17/6 270/17/6
f 269/5/6 265/5/6 270/5/6
f 266/16/6 267/16/6 271/16/6
f 270/17/6 266/17/6 271/17/6
f 271/16/6 267/16/6 272/16/6
f 268/3/6 269/3/6 274/3/6
f 269/5/6 270/5/6 275/5/6
f 274/3/6 269/3/6 275/3/6
f 270/4/6 271/4/6 276/4/6
f 275/5/6 270/5/6 276/5/6
f 271/4/6 272/4/6 276/4/6
f 276/4/6 272/4/6 277/4/6
f 272/3/6 273/3/6 278/3/6
f 277/4/6 272/4/6 278/4/6
f 278/3/6 273/3/6 279/3/6
f 276/3/6 277/3/6 283/3/6
f 275/5/6 276/5/6 283/5/6
f 277/4/6 278/4/6 284/4/6
f 283/3/6 277/3/6 284/3/6
f 278/4/6 279/4/6 284/4/6
f 279/4/6 280/4/6 284/4/6
f 284/4/6 280/4/6 285/4/6
f 280/1/6 281/1/6 286/1/6
f 285/4/6 280/4/6 286/4/6
f 281/6/6 282/6/6 287/6/6
f 286/1/6 281/1/6 287/1/6
f 287/6/6 282/6/6 288/6/6
f 274/17/6 275/17/6 289/17/6
f 275/5/6 283/5/6 290/5/6
f 289/17/6 275/17/6 290/17/6
f 283/15/6 284/15/6 291/15/6
f 290/5/6 283/5/6 291/5/6
f 284/4/6 285/4/6 292/4/6
f 291/15/6 284/15/6 292/15/6
f 285/3/6 286/3/6 293/3/6
f 292/4/6 285/4/6 293/4/6
f 286/1/6 287/1/6 294/1/6
f 293/3/6 286/3/6 294/3/6
f 287/5/6 288/5/6 295/5/6
f 294/1/6 287/1/6 295/1/6
f 295/5/6 288/5/6 296/5/6
f 289/15/6 290/15/6 297/15/6
f 290/5/6 291/5/6 298/5/6
f 297/15/6 290/15/6 298/15/6
f 291/12/6 292/12/6 299/12/6
f 298/5/6 291/5/6 299/5/6
f 292/4/6 293/4/6 300/4/6
f 299/12/6 292/12/6 300/12/6
f 300/4/6 293/4/6 301/4/6
f 293/17/6 294/17/6 302/17/6
f 301/4/6 293/4/6 302/4/6
f 294/1/6 295/1/6 303/1/6
f 302/17/6 294/17/6 303/17/6
f 295/3/6 296/3/6 304/3/6
f 303/1/6 295/1/6 304/1/6
f 297/13/6 298/13/6 305/13/6
f 298/4/6 299/4/6 306/4/6
f 305/13/6 298/13/6 306/13/6
f 299/8/6 300/8/6 307/8/6
f 306/4/6 299/4/6 307/4/6
f 300/3/6 301/3/6 308/3/6
f 307/8/6 300/8/6 308/8/6
f 308/3/6 301/3/6 309/3/6
f 301/4/6 302/4/6 310/4/6
f 309/3/6 301/3/6 310/3/6
f 310/4/6 302/4/6 311/4/6
f 302/15/6 303/15/6 312/15/6
f 311/4/6 302/4/6 312/4/6
f 303/6/6 304/6/6 313/6/6
f 312/15/6 303/15/6 313/15/6
f 304/3/6 296/3/6 314/3/6
f 313/6/6 304/6/6 314/6/6
f 314/3/6 296/3/6 315/3/6
f 305/2/6 306/2/6 316/2/6
f 306/4/6 307/4/6 317/4/6
f 316/2/6 306/2/6 317/2/6
f 307/7/6 308/7/6 318/7/6
f 317/4/6 307/4/6 318/4/6
f 308/15/6 309/15/6 319/15/6
f 318/7/6 308/7/6 319/7/6
f 309/16/6 310/16/6 320/16/6
f 319/15/6 309/15/6 320/15/6
f 320/16/6 310/16/6 321/16/6
f 310/17/6 311/17/6 322/17/6
f 321/16/6 310/16/6 322/16/6
f 311/3/6 312/3/6 323/3/6
f 322/17/6 311/17/6 323/17/6
f 312/12/6 313/12/6 324/12/6
f 323/3/6 312/3/6 324/3/6
f 313/5/6 314/5/6 325/5/6
f 324/12/6 313/12/6 325/12/6
f 314/14/6 315/14/6 326/14/6
f 325/5/6 314/5/6 326/5/6
f 326/14/6 315/14/6 327/14/6
f 316/7/6 317/7/6 328/7/6
f 317/3/6 318/3/6 329/3/6
f 328/7/6 317/7/6 329/7/6
f 318/12/6 319/12/6 330/12/6
f 329/3/6 318/3/6 330/3/6
f 319/10/6 320/10/6 331/10/6
f 330/12/6 319/12/6 331/12/6
f 320/9/6 321/9/6 332/9/6
f 331/10/6 320/10/6 332/10/6
f 321/10/6 322/10/6 333/10/6
f 332/9/6 321/9/6 333/9/6
f 322/11/6 323/11/6 334/11/6
f 333/10/6 322/10/6 334/10/6
f 323/13/6 324/13/6 335/13/6
f 334/11/6 323/11/6 335/11/6
f 335/13/6 324/13/6 336/13/6
f 328/10/6 329/10/6 337/10/6
f 337/10/6 329/10/6 338/10/6
f 326/8/6 327/8/6 339/8/6
f 339/8/6 327/8/6 340/8/6
