# MagicaVoxel @ Ephtracy

# group
o Mau-mgt1brt0stk0

# material
#mtllib BoxCannon-9-Mau-mgt1brt0stk0.mtl
#usemtl palette

# normals
vn 1 0 0
vn -1 0 0
vn 0 0 -1
vn 0 0 1
vn 0 -1 0
vn 0 1 0

# texcoords
vt 0.0214844 0.5
vt 0.0253906 0.5
vt 0.0292969 0.5
vt 0.416016 0.5
vt 0.419922 0.5
vt 0.423828 0.5
vt 0.435547 0.5
vt 0.896484 0.5
vt 0.900391 0.5
vt 0.908203 0.5
vt 0.912109 0.5
vt 0.916016 0.5

# verts
v 1.3 0.1 -0.7
v 1.3 0.1 -0.5
v 1.3 0.1 -0.4
v 1.3 0.2 -0.7
v 1.3 0.2 -0.5
v 1.3 0.2 -0.4
v 1.2 0 -0.7
v 1.2 0 -0.6
v 1.2 0 -0.5
v 1.2 0 0.1
v 1.2 0 0.2
v 1.2 0.1 -0.8
v 1.2 0.1 -0.7
v 1.2 0.1 -0.6
v 1.2 0.1 -0.5
v 1.2 0.1 -0.4
v 1.2 0.1 -0.2
v 1.2 0.1 0
v 1.2 0.1 0.1
v 1.2 0.1 0.2
v 1.2 0.1 0.3
v 1.2 0.1 0.4
v 1.2 0.2 -0.8
v 1.2 0.2 -0.7
v 1.2 0.2 -0.6
v 1.2 0.2 -0.5
v 1.2 0.2 -0.4
v 1.2 0.2 -0.2
v 1.2 0.2 0
v 1.2 0.2 0.1
v 1.2 0.2 0.3
v 1.2 0.2 0.4
v 1.2 0.3 -0.7
v 1.2 0.3 -0.6
v 1.2 0.3 -0.5
v 1.1 0 -0.5
v 1.1 0 -0.4
v 1.1 0.1 -0.5
v 1.1 0.1 -0.4
v 1.1 0.1 -0.2
v 1.1 0.1 0
v 1.1 0.1 0.1
v 1.1 0.1 0.2
v 1.1 0.1 0.3
v 1.1 0.2 -0.5
v 1.1 0.2 -0.4
v 1.1 0.2 -0.2
v 1.1 0.2 0
v 1.1 0.2 0.1
v 1.1 0.2 0.3
v 1.1 0.3 -0.5
v 1.1 0.3 -0.4
v 1 0 0.2
v 1 0 0.3
v 1 0.1 0.2
v 1 0.1 0.3
v 1 0.2 0.2
v 1 0.2 0.3
v 1 0.3 0.2
v 1 0.3 0.3
v 0.9 0 0.1
v 0.9 0 0.2
v 0.9 0 0.3
v 0.9 0 0.4
v 0.9 0.1 0.1
v 0.9 0.1 0.2
v 0.9 0.1 0.3
v 0.9 0.2 0.1
v 0.9 0.2 0.2
v 0.9 0.2 0.3
v 0.9 0.3 0.1
v 0.9 0.3 0.2
v 0.9 0.3 0.3
v 0.9 0.3 0.4
v 0.8 0 -0.1
v 0.8 0 0
v 0.8 0.1 -0.1
v 0.8 0.1 0
v 0.7 0.1 -0.3
v 0.7 0.1 -0.2
v 0.7 0.2 -0.3
v 0.7 0.2 -0.2
v 0.6 0.1 -0.4
v 0.6 0.1 -0.3
v 0.6 0.2 -0.4
v 0.6 0.2 -0.3
v 0.5 0.1 -0.2
v 0.5 0.1 -0.1
v 0.5 0.2 -0.2
v 0.5 0.2 -0.1
v 0.3 0.1 -0.3
v 0.3 0.1 -0.1
v 0.3 0.2 -0.3
v 0.3 0.2 -0.1
v 0.2 0.1 -0.8
v 0.2 0.1 -0.4
v 0.2 0.2 -0.8
v 0.2 0.2 -0.4
v -1.2 0.1 0.3
v -1.2 0.1 0.4
v -1.2 0.2 0.3
v -1.2 0.2 0.4
v 1.1 0 0.1
v 1.1 0 0.2
v 1.1 0.1 0.1
v 1.1 0.1 0.2
v 1 0 -0.7
v 1 0 -0.5
v 1 0 -0.4
v 1 0.1 -0.8
v 1 0.1 -0.7
v 1 0.1 -0.5
v 1 0.1 -0.4
v 1 0.1 0.1
v 1 0.1 0.2
v 1 0.1 0.3
v 1 0.1 0.4
v 1 0.2 -0.8
v 1 0.2 -0.7
v 1 0.2 -0.5
v 1 0.2 -0.4
v 1 0.2 0.1
v 1 0.2 0.2
v 1 0.2 0.3
v 1 0.2 0.4
v 1 0.3 -0.7
v 1 0.3 -0.5
v 1 0.3 -0.4
v 0.9 0 0.2
v 0.9 0 0.3
v 0.9 0.1 -0.7
v 0.9 0.1 -0.4
v 0.9 0.1 0.2
v 0.9 0.1 0.3
v 0.9 0.2 -0.7
v 0.9 0.2 -0.4
v 0.9 0.2 0.2
v 0.9 0.2 0.3
v 0.9 0.3 0.2
v 0.9 0.3 0.3
v 0.8 0 0.3
v 0.8 0 0.4
v 0.8 0.1 -0.4
v 0.8 0.1 -0.2
v 0.8 0.1 0.3
v 0.8 0.1 0.4
v 0.8 0.2 -0.4
v 0.8 0.2 -0.2
v 0.8 0.2 0.3
v 0.8 0.2 0.4
v 0.8 0.3 0.3
v 0.8 0.3 0.4
v 0.7 0 -0.1
v 0.7 0 0
v 0.7 0.1 -0.1
v 0.7 0.1 0
v 0.6 0.1 -0.3
v 0.6 0.1 -0.1
v 0.6 0.2 -0.3
v 0.6 0.2 -0.1
v 0.4 0.1 -0.2
v 0.4 0.1 -0.1
v 0.4 0.2 -0.2
v 0.4 0.2 -0.1
v 0.3 0.1 0.3
v 0.3 0.1 0.4
v 0.3 0.2 0.3
v 0.3 0.2 0.4
v -0.2 0.1 -0.8
v -0.2 0.1 -0.4
v -0.2 0.1 0.1
v -0.2 0.2 -0.8
v -0.2 0.2 -0.4
v -0.2 0.2 0.1
v -0.3 0 0.1
v -0.3 0 0.2
v -0.3 0.1 0.1
v -0.3 0.1 0.2
v -0.3 0.2 0.1
v -0.3 0.2 0.2
v -0.3 0.3 0.1
v -0.3 0.3 0.2
v -0.4 0.1 0.1
v -0.4 0.1 0.2
v -0.4 0.2 0.1
v -0.4 0.2 0.2
v -1.3 0.1 0.2
v -1.3 0.1 0.4
v -1.3 0.2 0.2
v -1.3 0.2 0.4
v 1.2 0.1 -0.8
v 1.2 0.2 -0.8
v 1 0.1 -0.8
v 1 0.2 -0.8
v 0.2 0.1 -0.8
v 0.2 0.2 -0.8
v -0.2 0.1 -0.8
v -0.2 0.2 -0.8
v 1.3 0.1 -0.7
v 1.3 0.2 -0.7
v 1.2 0 -0.7
v 1.2 0.1 -0.7
v 1.2 0.2 -0.7
v 1.2 0.3 -0.7
v 1 0 -0.7
v 1 0.1 -0.7
v 1 0.2 -0.7
v 1 0.3 -0.7
v 0.9 0.1 -0.7
v 0.9 0.2 -0.7
v 0.9 0.1 -0.4
v 0.9 0.2 -0.4
v 0.8 0.1 -0.4
v 0.8 0.2 -0.4
v 0.6 0.1 -0.4
v 0.6 0.2 -0.4
v 0.2 0.1 -0.4
v 0.2 0.2 -0.4
v 0.7 0.1 -0.3
v 0.7 0.2 -0.3
v 0.6 0.1 -0.3
v 0.6 0.2 -0.3
v 0.8 0.1 -0.2
v 0.8 0.2 -0.2
v 0.7 0.1 -0.2
v 0.7 0.2 -0.2
v 0.5 0.1 -0.2
v 0.5 0.2 -0.2
v 0.4 0.1 -0.2
v 0.4 0.2 -0.2
v 0.8 0 -0.1
v 0.8 0.1 -0.1
v 0.7 0 -0.1
v 0.7 0.1 -0.1
v 0.6 0.1 -0.1
v 0.6 0.2 -0.1
v 0.5 0.1 -0.1
v 0.5 0.2 -0.1
v 0.4 0.1 -0.1
v 0.4 0.2 -0.1
v 0.3 0.1 -0.1
v 0.3 0.2 -0.1
v 1.2 0.1 0
v 1.2 0.2 0
v 1.1 0.1 0
v 1.1 0.2 0
v 1.2 0 0.1
v 1.2 0.1 0.1
v 1.1 0 0.1
v 1.1 0.1 0.1
v 0.9 0 0.1
v 0.9 0.1 0.1
v 0.9 0.2 0.1
v 0.9 0.3 0.1
v -0.2 0.1 0.1
v -0.2 0.2 0.1
v -0.3 0 0.1
v -0.3 0.1 0.1
v -0.3 0.2 0.1
v -0.3 0.3 0.1
v -0.4 0.1 0.1
v -0.4 0.2 0.1
v 1 0 0.2
v 1 0.1 0.2
v 1 0.2 0.2
v 1 0.3 0.2
v 0.9 0 0.2
v 0.9 0.1 0.2
v 0.9 0.2 0.2
v 0.9 0.3 0.2
v -0.4 0.1 0.2
v -0.4 0.2 0.2
v -1.3 0.1 0.2
v -1.3 0.2 0.2
v 1.2 0.1 0.3
v 1.2 0.2 0.3
v 1.1 0.1 0.3
v 1.1 0.2 0.3
v 0.9 0 0.3
v 0.9 0.1 0.3
v 0.9 0.2 0.3
v 0.9 0.3 0.3
v 0.8 0 0.3
v 0.8 0.1 0.3
v 0.8 0.2 0.3
v 0.8 0.3 0.3
v 1.2 0 -0.5
v 1.2 0.1 -0.5
v 1.2 0.2 -0.5
v 1.2 0.3 -0.5
v 1.1 0 -0.5
v 1.1 0.1 -0.5
v 1.1 0.2 -0.5
v 1.1 0.3 -0.5
v 1.3 0.1 -0.4
v 1.3 0.2 -0.4
v 1.2 0.1 -0.4
v 1.2 0.2 -0.4
v 1.1 0 -0.4
v 1.1 0.1 -0.4
v 1.1 0.2 -0.4
v 1.1 0.3 -0.4
v 1 0 -0.4
v 1 0.1 -0.4
v 1 0.2 -0.4
v 1 0.3 -0.4
v 0.6 0.1 -0.3
v 0.6 0.2 -0.3
v 0.3 0.1 -0.3
v 0.3 0.2 -0.3
v 1.2 0.1 -0.2
v 1.2 0.2 -0.2
v 1.1 0.1 -0.2
v 1.1 0.2 -0.2
v 0.8 0 0
v 0.8 0.1 0
v 0.7 0 0
v 0.7 0.1 0
v 1.2 0.1 0.1
v 1.2 0.2 0.1
v 1.1 0.1 0.1
v 1.1 0.2 0.1
v 1 0.1 0.1
v 1 0.2 0.1
v 0.9 0.1 0.1
v 0.9 0.2 0.1
v 1.2 0 0.2
v 1.2 0.1 0.2
v 1.1 0 0.2
v 1.1 0.1 0.2
v 0.9 0 0.2
v 0.9 0.1 0.2
v 0.9 0.2 0.2
v 0.9 0.3 0.2
v 0.2 0.1 0.2
v 0.2 0.2 0.2
v 0.1 0.1 0.2
v 0.1 0.2 0.2
v 1.19209e-07 0.1 0.2
v 1.19209e-07 0.2 0.2
v -0.0999999 0.1 0.2
v -0.0999999 0.2 0.2
v -0.3 0 0.2
v -0.3 0.1 0.2
v -0.3 0.2 0.2
v -0.3 0.3 0.2
v 1 0 0.3
v 1 0.1 0.3
v 1 0.2 0.3
v 1 0.3 0.3
v 0.9 0 0.3
v 0.9 0.1 0.3
v 0.9 0.2 0.3
v 0.9 0.3 0.3
v 0.3 0.1 0.3
v 0.3 0.2 0.3
v 0.2 0.1 0.3
v 0.2 0.2 0.3
v 0.1 0.1 0.3
v 0.1 0.2 0.3
v 1.19209e-07 0.1 0.3
v 1.19209e-07 0.2 0.3
v -0.0999999 0.1 0.3
v -0.0999999 0.2 0.3
v -1.2 0.1 0.3
v -1.2 0.2 0.3
v 1.2 0.1 0.4
v 1.2 0.2 0.4
v 1.1 0.1 0.4
v 1.1 0.2 0.4
v 1 0.1 0.4
v 1 0.2 0.4
v 0.9 0 0.4
v 0.9 0.3 0.4
v 0.8 0 0.4
v 0.8 0.1 0.4
v 0.8 0.2 0.4
v 0.8 0.3 0.4
v 0.3 0.1 0.4
v 0.3 0.2 0.4
v -1.2 0.1 0.4
v -1.2 0.2 0.4
v -1.3 0.1 0.4
v -1.3 0.2 0.4
v 1.2 0 -0.7
v 1 0 -0.7
v 1.2 0 -0.6
v 1.1 0 -0.6
v 1.2 0 -0.5
v 1.1 0 -0.5
v 1 0 -0.5
v 1.1 0 -0.4
v 1 0 -0.4
v 0.8 0 -0.1
v 0.7 0 -0.1
v 0.8 0 0
v 0.7 0 0
v 1.2 0 0.1
v 1.1 0 0.1
v 0.9 0 0.1
v -0.3 0 0.1
v 1.2 0 0.2
v 1.1 0 0.2
v 1 0 0.2
v 0.9 0 0.2
v -0.3 0 0.2
v 1 0 0.3
v 0.9 0 0.3
v 0.8 0 0.3
v 0.9 0 0.4
v 0.8 0 0.4
v 1.2 0.1 -0.8
v 1 0.1 -0.8
v 0.2 0.1 -0.8
v -0.2 0.1 -0.8
v 1.3 0.1 -0.7
v 1.2 0.1 -0.7
v 1 0.1 -0.7
v 0.9 0.1 -0.7
v 1.2 0.1 -0.6
v 1.3 0.1 -0.5
v 1.2 0.1 -0.5
v 1.1 0.1 -0.5
v 1 0.1 -0.5
v 1.3 0.1 -0.4
v 1.2 0.1 -0.4
v 1.1 0.1 -0.4
v 1 0.1 -0.4
v 0.9 0.1 -0.4
v 0.8 0.1 -0.4
v 0.6 0.1 -0.4
v 0.2 0.1 -0.4
v -0.2 0.1 -0.4
v 1 0.1 -0.3
v 0.9 0.1 -0.3
v 0.7 0.1 -0.3
v 0.6 0.1 -0.3
v 0.3 0.1 -0.3
v 1.2 0.1 -0.2
v 1.1 0.1 -0.2
v 0.9 0.1 -0.2
v 0.8 0.1 -0.2
v 0.7 0.1 -0.2
v 0.5 0.1 -0.2
v 0.4 0.1 -0.2
v 0.8 0.1 -0.1
v 0.7 0.1 -0.1
v 0.6 0.1 -0.1
v 0.5 0.1 -0.1
v 0.4 0.1 -0.1
v 0.3 0.1 -0.1
v 1.2 0.1 0
v 1.1 0.1 0
v 0.8 0.1 0
v 0.7 0.1 0
v 1.2 0.1 0.1
v 1.1 0.1 0.1
v 1 0.1 0.1
v 0.9 0.1 0.1
v -0.2 0.1 0.1
v -0.3 0.1 0.1
v -0.4 0.1 0.1
v 1.1 0.1 0.2
v 1 0.1 0.2
v 0.9 0.1 0.2
v 0.2 0.1 0.2
v 0.1 0.1 0.2
v 1.19209e-07 0.1 0.2
v -0.0999999 0.1 0.2
v -0.3 0.1 0.2
v -0.4 0.1 0.2
v -1.3 0.1 0.2
v 1.2 0.1 0.3
v 1.1 0.1 0.3
v 1 0.1 0.3
v 0.9 0.1 0.3
v 0.8 0.1 0.3
v 0.3 0.1 0.3
v 0.2 0.1 0.3
v 0.1 0.1 0.3
v 1.19209e-07 0.1 0.3
v -0.0999999 0.1 0.3
v -1.2 0.1 0.3
v 1.2 0.1 0.4
v 1.1 0.1 0.4
v 1 0.1 0.4
v 0.8 0.1 0.4
v 0.3 0.1 0.4
v -1.2 0.1 0.4
v -1.3 0.1 0.4
v 1.2 0.1 0.1
v 1.1 0.1 0.1
v 1.2 0.1 0.2
v 1.1 0.1 0.2
v 1.2 0.2 -0.8
v 1 0.2 -0.8
v 0.2 0.2 -0.8
v -0.2 0.2 -0.8
v 1.3 0.2 -0.7
v 1.2 0.2 -0.7
v 1 0.2 -0.7
v 0.9 0.2 -0.7
v 1.2 0.2 -0.6
v 1.3 0.2 -0.5
v 1.2 0.2 -0.5
v 1.1 0.2 -0.5
v 1 0.2 -0.5
v 1.3 0.2 -0.4
v 1.2 0.2 -0.4
v 1.1 0.2 -0.4
v 1 0.2 -0.4
v 0.9 0.2 -0.4
v 0.8 0.2 -0.4
v 0.6 0.2 -0.4
v 0.2 0.2 -0.4
v -0.2 0.2 -0.4
v 1 0.2 -0.3
v 0.9 0.2 -0.3
v 0.7 0.2 -0.3
v 0.6 0.2 -0.3
v 0.3 0.2 -0.3
v 1.2 0.2 -0.2
v 1.1 0.2 -0.2
v 0.9 0.2 -0.2
v 0.8 0.2 -0.2
v 0.7 0.2 -0.2
v 0.5 0.2 -0.2
v 0.4 0.2 -0.2
v 0.6 0.2 -0.1
v 0.5 0.2 -0.1
v 0.4 0.2 -0.1
v 0.3 0.2 -0.1
v 1.2 0.2 0
v 1.1 0.2 0
v 1.2 0.2 0.1
v 1.1 0.2 0.1
v 1 0.2 0.1
v 0.9 0.2 0.1
v -0.2 0.2 0.1
v -0.3 0.2 0.1
v -0.4 0.2 0.1
v 1 0.2 0.2
v 0.9 0.2 0.2
v 0.2 0.2 0.2
v 0.1 0.2 0.2
v 1.19209e-07 0.2 0.2
v -0.0999999 0.2 0.2
v -0.3 0.2 0.2
v -0.4 0.2 0.2
v -1.3 0.2 0.2
v 1.2 0.2 0.3
v 1.1 0.2 0.3
v 1 0.2 0.3
v 0.9 0.2 0.3
v 0.8 0.2 0.3
v 0.3 0.2 0.3
v 0.2 0.2 0.3
v 0.1 0.2 0.3
v 1.19209e-07 0.2 0.3
v -0.0999999 0.2 0.3
v -1.2 0.2 0.3
v 1.2 0.2 0.4
v 1.1 0.2 0.4
v 1 0.2 0.4
v 0.8 0.2 0.4
v 0.3 0.2 0.4
v -1.2 0.2 0.4
v -1.3 0.2 0.4
v 1.2 0.3 -0.7
v 1 0.3 -0.7
v 1.2 0.3 -0.6
v 1.1 0.3 -0.6
v 1.2 0.3 -0.5
v 1.1 0.3 -0.5
v 1 0.3 -0.5
v 1.1 0.3 -0.4
v 1 0.3 -0.4
v 0.9 0.3 0.1
v -0.3 0.3 0.1
v 1 0.3 0.2
v 0.9 0.3 0.2
v -0.3 0.3 0.2
v 1 0.3 0.3
v 0.9 0.3 0.3
v 0.8 0.3 0.3
v 0.9 0.3 0.4
v 0.8 0.3 0.4

# faces
f 4/12/1 2/12/1 1/12/1
f 5/10/1 3/10/1 2/10/1
f 5/12/1 2/12/1 4/12/1
f 6/10/1 3/10/1 5/10/1
f 13/12/1 8/12/1 7/12/1
f 14/11/1 9/11/1 8/11/1
f 14/12/1 8/12/1 13/12/1
f 15/11/1 9/11/1 14/11/1
f 19/7/1 11/7/1 10/7/1
f 20/7/1 11/7/1 19/7/1
f 23/12/1 13/12/1 12/12/1
f 24/12/1 13/12/1 23/12/1
f 27/10/1 17/10/1 16/10/1
f 28/10/1 17/10/1 27/10/1
f 29/3/1 19/3/1 18/3/1
f 30/3/1 19/3/1 29/3/1
f 31/5/1 22/5/1 21/5/1
f 32/5/1 22/5/1 31/5/1
f 33/12/1 25/12/1 24/12/1
f 34/11/1 26/11/1 25/11/1
f 34/12/1 25/12/1 33/12/1
f 35/11/1 26/11/1 34/11/1
f 38/11/1 37/11/1 36/11/1
f 39/11/1 37/11/1 38/11/1
f 47/3/1 41/3/1 40/3/1
f 48/3/1 41/3/1 47/3/1
f 49/5/1 44/5/1 43/5/1
f 49/5/1 43/5/1 42/5/1
f 50/5/1 44/5/1 49/5/1
f 51/11/1 46/11/1 45/11/1
f 52/11/1 46/11/1 51/11/1
f 55/4/1 54/4/1 53/4/1
f 56/4/1 54/4/1 55/4/1
f 59/4/1 58/4/1 57/4/1
f 60/4/1 58/4/1 59/4/1
f 65/3/1 62/3/1 61/3/1
f 66/3/1 62/3/1 65/3/1
f 67/3/1 64/3/1 63/3/1
f 68/1/1 66/1/1 65/1/1
f 69/1/1 66/1/1 68/1/1
f 70/3/1 64/3/1 67/3/1
f 71/3/1 69/3/1 68/3/1
f 72/3/1 69/3/1 71/3/1
f 73/3/1 64/3/1 70/3/1
f 74/3/1 64/3/1 73/3/1
f 77/1/1 76/1/1 75/1/1
f 78/1/1 76/1/1 77/1/1
f 81/3/1 80/3/1 79/3/1
f 82/3/1 80/3/1 81/3/1
f 85/3/1 84/3/1 83/3/1
f 86/3/1 84/3/1 85/3/1
f 89/3/1 88/3/1 87/3/1
f 90/3/1 88/3/1 89/3/1
f 93/3/1 92/3/1 91/3/1
f 94/3/1 92/3/1 93/3/1
f 97/2/1 96/2/1 95/2/1
f 98/2/1 96/2/1 97/2/1
f 101/3/1 100/3/1 99/3/1
f 102/3/1 100/3/1 101/3/1
f 103/7/2 104/7/2 105/7/2
f 105/7/2 104/7/2 106/7/2
f 107/12/2 108/12/2 111/12/2
f 108/11/2 109/11/2 112/11/2
f 111/12/2 108/12/2 112/12/2
f 112/11/2 109/11/2 113/11/2
f 110/12/2 111/12/2 118/12/2
f 118/12/2 111/12/2 119/12/2
f 114/5/2 115/5/2 122/5/2
f 122/5/2 115/5/2 123/5/2
f 116/4/2 117/4/2 124/4/2
f 124/4/2 117/4/2 125/4/2
f 119/12/2 120/12/2 126/12/2
f 120/11/2 121/11/2 127/11/2
f 126/12/2 120/12/2 127/12/2
f 127/11/2 121/11/2 128/11/2
f 129/4/2 130/4/2 133/4/2
f 133/4/2 130/4/2 134/4/2
f 131/12/2 132/12/2 135/12/2
f 135/12/2 132/12/2 136/12/2
f 137/4/2 138/4/2 139/4/2
f 139/4/2 138/4/2 140/4/2
f 141/3/2 142/3/2 145/3/2
f 145/3/2 142/3/2 146/3/2
f 143/12/2 144/12/2 147/12/2
f 147/12/2 144/12/2 148/12/2
f 149/3/2 150/3/2 151/3/2
f 151/3/2 150/3/2 152/3/2
f 153/1/2 154/1/2 155/1/2
f 155/1/2 154/1/2 156/1/2
f 157/3/2 158/3/2 159/3/2
f 159/3/2 158/3/2 160/3/2
f 161/3/2 162/3/2 163/3/2
f 163/3/2 162/3/2 164/3/2
f 165/3/2 166/3/2 167/3/2
f 167/3/2 166/3/2 168/3/2
f 169/2/2 170/2/2 172/2/2
f 170/3/2 171/3/2 173/3/2
f 172/2/2 170/2/2 173/2/2
f 173/3/2 171/3/2 174/3/2
f 175/3/2 176/3/2 177/3/2
f 177/3/2 176/3/2 178/3/2
f 179/3/2 180/3/2 181/3/2
f 181/3/2 180/3/2 182/3/2
f 183/3/2 184/3/2 185/3/2
f 185/3/2 184/3/2 186/3/2
f 187/3/2 188/3/2 189/3/2
f 189/3/2 188/3/2 190/3/2
f 193/12/3 192/12/3 191/12/3
f 194/12/3 192/12/3 193/12/3
f 197/2/3 196/2/3 195/2/3
f 198/2/3 196/2/3 197/2/3
f 202/12/3 200/12/3 199/12/3
f 203/12/3 200/12/3 202/12/3
f 205/12/3 202/12/3 201/12/3
f 206/12/3 202/12/3 205/12/3
f 207/12/3 204/12/3 203/12/3
f 208/12/3 204/12/3 207/12/3
f 209/12/3 207/12/3 206/12/3
f 210/12/3 207/12/3 209/12/3
f 213/12/3 212/12/3 211/12/3
f 214/12/3 212/12/3 213/12/3
f 217/3/3 216/3/3 215/3/3
f 218/3/3 216/3/3 217/3/3
f 221/3/3 220/3/3 219/3/3
f 222/3/3 220/3/3 221/3/3
f 225/3/3 224/3/3 223/3/3
f 226/3/3 224/3/3 225/3/3
f 229/3/3 228/3/3 227/3/3
f 230/3/3 228/3/3 229/3/3
f 233/1/3 232/1/3 231/1/3
f 234/1/3 232/1/3 233/1/3
f 237/3/3 236/3/3 235/3/3
f 238/3/3 236/3/3 237/3/3
f 241/3/3 240/3/3 239/3/3
f 242/3/3 240/3/3 241/3/3
f 245/3/3 244/3/3 243/3/3
f 246/3/3 244/3/3 245/3/3
f 249/7/3 248/7/3 247/7/3
f 250/7/3 248/7/3 249/7/3
f 255/3/3 252/3/3 251/3/3
f 256/3/3 254/3/3 253/3/3
f 257/3/3 255/3/3 251/3/3
f 257/3/3 256/3/3 255/3/3
f 258/3/3 256/3/3 257/3/3
f 259/3/3 254/3/3 256/3/3
f 259/3/3 256/3/3 258/3/3
f 260/3/3 254/3/3 259/3/3
f 261/3/3 259/3/3 258/3/3
f 262/3/3 259/3/3 261/3/3
f 267/4/3 264/4/3 263/4/3
f 268/5/3 265/5/3 264/5/3
f 268/4/3 264/4/3 267/4/3
f 269/4/3 266/4/3 265/4/3
f 269/5/3 265/5/3 268/5/3
f 270/4/3 266/4/3 269/4/3
f 273/3/3 272/3/3 271/3/3
f 274/3/3 272/3/3 273/3/3
f 277/5/3 276/5/3 275/5/3
f 278/5/3 276/5/3 277/5/3
f 283/3/3 280/3/3 279/3/3
f 284/3/3 280/3/3 283/3/3
f 285/3/3 282/3/3 281/3/3
f 286/3/3 282/3/3 285/3/3
f 287/11/4 288/11/4 291/11/4
f 291/11/4 288/11/4 292/11/4
f 289/11/4 290/11/4 293/11/4
f 293/11/4 290/11/4 294/11/4
f 295/10/4 296/10/4 297/10/4
f 297/10/4 296/10/4 298/10/4
f 299/11/4 300/11/4 303/11/4
f 303/11/4 300/11/4 304/11/4
f 301/11/4 302/11/4 305/11/4
f 305/11/4 302/11/4 306/11/4
f 307/3/4 308/3/4 309/3/4
f 309/3/4 308/3/4 310/3/4
f 311/10/4 312/10/4 313/10/4
f 313/10/4 312/10/4 314/10/4
f 315/1/4 316/1/4 317/1/4
f 317/1/4 316/1/4 318/1/4
f 319/3/4 320/3/4 321/3/4
f 321/3/4 320/3/4 322/3/4
f 323/3/4 324/3/4 325/3/4
f 325/3/4 324/3/4 326/3/4
f 327/7/4 328/7/4 329/7/4
f 329/7/4 328/7/4 330/7/4
f 331/3/4 332/3/4 335/3/4
f 333/3/4 334/3/4 336/3/4
f 331/3/4 335/3/4 337/3/4
f 336/3/4 334/3/4 338/3/4
f 331/3/4 337/3/4 339/3/4
f 338/3/4 334/3/4 340/3/4
f 331/3/4 339/3/4 341/3/4
f 340/3/4 334/3/4 342/3/4
f 331/3/4 341/3/4 343/3/4
f 343/3/4 341/3/4 344/3/4
f 342/3/4 334/3/4 345/3/4
f 345/3/4 334/3/4 346/3/4
f 347/4/4 348/4/4 351/4/4
f 348/5/4 349/5/4 352/5/4
f 351/4/4 348/4/4 352/4/4
f 349/4/4 350/4/4 353/4/4
f 352/5/4 349/5/4 353/5/4
f 353/4/4 350/4/4 354/4/4
f 355/3/4 356/3/4 357/3/4
f 357/3/4 356/3/4 358/3/4
f 357/6/4 358/6/4 359/6/4
f 359/6/4 358/6/4 360/6/4
f 359/5/4 360/5/4 361/5/4
f 361/5/4 360/5/4 362/5/4
f 361/4/4 362/4/4 363/4/4
f 363/4/4 362/4/4 364/4/4
f 363/3/4 364/3/4 365/3/4
f 365/3/4 364/3/4 366/3/4
f 367/5/4 368/5/4 369/5/4
f 369/5/4 368/5/4 370/5/4
f 369/4/4 370/4/4 371/4/4
f 371/4/4 370/4/4 372/4/4
f 373/3/4 374/3/4 375/3/4
f 375/3/4 374/3/4 376/3/4
f 376/3/4 374/3/4 377/3/4
f 377/3/4 374/3/4 378/3/4
f 376/3/4 377/3/4 379/3/4
f 379/3/4 377/3/4 380/3/4
f 381/3/4 382/3/4 383/3/4
f 383/3/4 382/3/4 384/3/4
f 387/12/5 386/12/5 385/12/5
f 388/12/5 386/12/5 387/12/5
f 389/11/5 388/11/5 387/11/5
f 390/12/5 386/12/5 388/12/5
f 390/11/5 388/11/5 389/11/5
f 391/12/5 386/12/5 390/12/5
f 392/11/5 391/11/5 390/11/5
f 393/11/5 391/11/5 392/11/5
f 396/1/5 395/1/5 394/1/5
f 397/1/5 395/1/5 396/1/5
f 402/7/5 399/7/5 398/7/5
f 403/7/5 399/7/5 402/7/5
f 405/3/5 401/3/5 400/3/5
f 406/3/5 401/3/5 405/3/5
f 407/4/5 405/4/5 404/4/5
f 408/4/5 405/4/5 407/4/5
f 410/3/5 409/3/5 408/3/5
f 411/3/5 409/3/5 410/3/5
f 417/12/5 413/12/5 412/12/5
f 418/12/5 413/12/5 417/12/5
f 420/12/5 417/12/5 416/12/5
f 421/12/5 420/12/5 416/12/5
f 422/12/5 420/12/5 421/12/5
f 424/12/5 419/12/5 418/12/5
f 425/10/5 422/10/5 421/10/5
f 426/11/5 423/11/5 422/11/5
f 426/10/5 422/10/5 425/10/5
f 427/11/5 423/11/5 426/11/5
f 428/12/5 419/12/5 424/12/5
f 429/12/5 419/12/5 428/12/5
f 432/2/5 415/2/5 414/2/5
f 433/2/5 415/2/5 432/2/5
f 434/12/5 430/12/5 429/12/5
f 434/11/5 428/11/5 427/11/5
f 434/12/5 429/12/5 428/12/5
f 435/12/5 430/12/5 434/12/5
f 437/3/5 433/3/5 432/3/5
f 437/3/5 432/3/5 431/3/5
f 438/3/5 433/3/5 437/3/5
f 439/10/5 427/10/5 426/10/5
f 440/11/5 435/11/5 434/11/5
f 440/10/5 427/10/5 439/10/5
f 440/11/5 434/11/5 427/11/5
f 441/12/5 430/12/5 435/12/5
f 441/11/5 435/11/5 440/11/5
f 442/12/5 430/12/5 441/12/5
f 443/3/5 437/3/5 436/3/5
f 446/3/5 442/3/5 441/3/5
f 446/3/5 443/3/5 442/3/5
f 446/3/5 441/3/5 440/3/5
f 447/3/5 437/3/5 443/3/5
f 447/3/5 443/3/5 446/3/5
f 448/3/5 437/3/5 447/3/5
f 449/3/5 445/3/5 444/3/5
f 450/3/5 445/3/5 449/3/5
f 451/3/5 433/3/5 438/3/5
f 453/3/5 446/3/5 440/3/5
f 454/3/5 446/3/5 453/3/5
f 455/3/5 450/3/5 449/3/5
f 455/3/5 448/3/5 447/3/5
f 455/3/5 451/3/5 450/3/5
f 455/3/5 449/3/5 448/3/5
f 456/3/5 454/3/5 453/3/5
f 456/3/5 455/3/5 454/3/5
f 456/3/5 453/3/5 452/3/5
f 457/3/5 455/3/5 456/3/5
f 458/3/5 455/3/5 457/3/5
f 459/3/5 455/3/5 458/3/5
f 460/3/5 451/3/5 455/3/5
f 460/3/5 455/3/5 459/3/5
f 460/3/5 433/3/5 451/3/5
f 463/5/5 458/5/5 457/5/5
f 464/5/5 458/5/5 463/5/5
f 470/3/5 462/3/5 461/3/5
f 471/3/5 462/3/5 470/3/5
f 474/5/5 464/5/5 463/5/5
f 475/5/5 464/5/5 474/5/5
f 476/3/5 466/3/5 465/3/5
f 477/3/5 466/3/5 476/3/5
f 478/3/5 466/3/5 477/3/5
f 479/6/5 467/6/5 466/6/5
f 479/3/5 466/3/5 478/3/5
f 480/5/5 468/5/5 467/5/5
f 480/6/5 467/6/5 479/6/5
f 481/4/5 469/4/5 468/4/5
f 481/5/5 468/5/5 480/5/5
f 482/3/5 472/3/5 471/3/5
f 482/4/5 469/4/5 481/4/5
f 482/3/5 470/3/5 469/3/5
f 482/3/5 471/3/5 470/3/5
f 483/3/5 472/3/5 482/3/5
f 484/5/5 474/5/5 473/5/5
f 485/4/5 475/4/5 474/4/5
f 485/5/5 474/5/5 484/5/5
f 486/4/5 475/4/5 485/4/5
f 487/3/5 478/3/5 477/3/5
f 488/3/5 478/3/5 487/3/5
f 489/3/5 472/3/5 483/3/5
f 490/3/5 472/3/5 489/3/5
f 491/7/6 492/7/6 493/7/6
f 493/7/6 492/7/6 494/7/6
f 495/12/6 496/12/6 500/12/6
f 500/12/6 496/12/6 501/12/6
f 499/12/6 500/12/6 503/12/6
f 499/12/6 503/12/6 504/12/6
f 504/12/6 503/12/6 505/12/6
f 501/12/6 502/12/6 507/12/6
f 504/10/6 505/10/6 508/10/6
f 505/11/6 506/11/6 509/11/6
f 508/10/6 505/10/6 509/10/6
f 509/11/6 506/11/6 510/11/6
f 507/12/6 502/12/6 511/12/6
f 511/12/6 502/12/6 512/12/6
f 497/2/6 498/2/6 515/2/6
f 515/2/6 498/2/6 516/2/6
f 512/12/6 513/12/6 517/12/6
f 510/11/6 511/11/6 517/11/6
f 511/12/6 512/12/6 517/12/6
f 517/12/6 513/12/6 518/12/6
f 515/3/6 516/3/6 520/3/6
f 514/3/6 515/3/6 520/3/6
f 520/3/6 516/3/6 521/3/6
f 509/10/6 510/10/6 522/10/6
f 517/11/6 518/11/6 523/11/6
f 522/10/6 510/10/6 523/10/6
f 510/11/6 517/11/6 523/11/6
f 518/12/6 513/12/6 524/12/6
f 523/11/6 518/11/6 524/11/6
f 524/12/6 513/12/6 525/12/6
f 519/3/6 520/3/6 526/3/6
f 524/3/6 525/3/6 529/3/6
f 525/3/6 526/3/6 529/3/6
f 526/3/6 520/3/6 529/3/6
f 523/3/6 524/3/6 529/3/6
f 527/3/6 528/3/6 530/3/6
f 530/3/6 528/3/6 531/3/6
f 521/3/6 516/3/6 532/3/6
f 530/3/6 531/3/6 534/3/6
f 531/3/6 532/3/6 534/3/6
f 523/3/6 529/3/6 534/3/6
f 529/3/6 530/3/6 534/3/6
f 533/3/6 534/3/6 535/3/6
f 534/3/6 532/3/6 536/3/6
f 535/3/6 534/3/6 536/3/6
f 536/3/6 532/3/6 537/3/6
f 537/3/6 532/3/6 538/3/6
f 532/3/6 516/3/6 539/3/6
f 538/3/6 532/3/6 539/3/6
f 536/5/6 537/5/6 542/5/6
f 540/3/6 541/3/6 548/3/6
f 548/3/6 541/3/6 549/3/6
f 536/5/6 542/5/6 552/5/6
f 552/5/6 542/5/6 553/5/6
f 543/3/6 544/3/6 554/3/6
f 554/3/6 544/3/6 555/3/6
f 555/3/6 544/3/6 556/3/6
f 544/6/6 545/6/6 557/6/6
f 556/3/6 544/3/6 557/3/6
f 545/5/6 546/5/6 558/5/6
f 557/6/6 545/6/6 558/6/6
f 546/4/6 547/4/6 559/4/6
f 558/5/6 546/5/6 559/5/6
f 549/3/6 550/3/6 560/3/6
f 559/4/6 547/4/6 560/4/6
f 547/3/6 548/3/6 560/3/6
f 548/3/6 549/3/6 560/3/6
f 560/3/6 550/3/6 561/3/6
f 551/5/6 552/5/6 562/5/6
f 552/4/6 553/4/6 563/4/6
f 562/5/6 552/5/6 563/5/6
f 563/4/6 553/4/6 564/4/6
f 555/3/6 556/3/6 565/3/6
f 565/3/6 556/3/6 566/3/6
f 561/3/6 550/3/6 567/3/6
f 567/3/6 550/3/6 568/3/6
f 569/12/6 570/12/6 571/12/6
f 571/12/6 570/12/6 572/12/6
f 571/11/6 572/11/6 573/11/6
f 572/12/6 570/12/6 574/12/6
f 573/11/6 572/11/6 574/11/6
f 574/12/6 570/12/6 575/12/6
f 574/11/6 575/11/6 576/11/6
f 576/11/6 575/11/6 577/11/6
f 578/3/6 579/3/6 581/3/6
f 581/3/6 579/3/6 582/3/6
f 580/4/6 581/4/6 583/4/6
f 583/4/6 581/4/6 584/4/6
f 584/3/6 585/3/6 586/3/6
f 586/3/6 585/3/6 587/3/6
